<?xml version="1.0" encoding="UTF-8"?>
<svg id="Layer_1" data-name="Layer 1" xmlns="http://www.w3.org/2000/svg" viewBox="0 0 663.07 173.52">
  <defs>
    <style>
      .cls-1 {
        fill: #fff;
      }
    </style>
  </defs>
  <g id="Layer_1-2" data-name="Layer 1">
    <path class="cls-1"
      d="M257.2,125.13l-1.97.05c-2.96-20.76-10.21-24.09-27.44-24.09v57.08c0,12.73,11.02,12.34,11.02,12.34v1.95s-10.58-.98-18.59-.98-17.83.98-17.83.98v-1.95s11.77,0,11.77-12.34v-57.1c-18.11,0-24.83,5.45-27.45,24.1l-1.95-.04s2.92-25.88,2.94-26.16c0-.07,3.33,0,3.53,0h61.48c.3,0,1.2-.16,1.46,0,.03,0,.06,0,.09,0,.48,4.21.95,8.41,1.42,12.62.47,4.21.94,8.4,1.42,12.57l.11.98Z" />
    <path class="cls-1"
      d="M284.57,143.73v12.86h.11v1.58c0,12.73,11.55,12.34,11.55,12.34v1.95s-10.58-.98-18.6-.98-18.36.98-18.36.98v-1.95s11.54,0,11.63-12.2v-43.46c0-14.1-11.99-13.92-11.99-13.92v-1.94h31.45c11.6,0,34.74,0,34.74,20.87,0,23.78-25.13,23.83-40.54,23.87ZM284.57,141.76c1.91,0,6.24-.05,9.27-.11,3.83-.03,7.52-1.4,10.44-3.88,3.38-2.97,6.49-8.22,6.49-17.49,0-8.74-3.72-13.56-7.44-16.18-2.95-2.04-6.46-3.12-10.05-3.09h-8.72v40.82-.06Z" />
    <path class="cls-1"
      d="M152.81,98.89c-2.61-.56-5.27-.84-7.93-.83-2.64,0-5.27.27-7.85.83-16.66,3.63-27.11,18.8-27.11,36.91,0,20.81,13.8,37.73,34.96,37.73s35.86-16.92,35.86-37.73c.04-18.11-11.1-33.28-27.93-36.91ZM144.88,171.9h0c-9.83,0-20.27-8.43-20.27-36.13s10.47-36.13,20.27-36.13,20.91,7.93,20.91,36.13c.04,28.7-11.04,36.13-20.91,36.13Z" />
    <path class="cls-1"
      d="M651.36,114.86v-1.59c0-12.34,11.69-12.4,11.69-12.4v-1.96h-37.1v1.96s11.69-.37,11.69,12.41v1.58h.06v41.68h-.06v1.58c0,12.4-12.47,11.67-12.47,11.67,0,0-15.62-.11-15.62-14.98,0-10.43-3.06-15.92-9.32-17.63,11.04-2.01,15.86-6.94,15.86-18.8,0-13.34-7.83-18-17.7-19.5h-46.75v1.3s12.01-.22,12.01,13.92v43.47c-.1,12.19-11.62,12.21-11.62,12.21,0,0-16.86-.11-16.86-14.98,0-10.43-3.07-15.92-9.32-17.63,11.03-2.01,15.86-6.94,15.86-18.8,0-13.34-7.83-18-17.69-19.5h-74.56v1.69c7.42,0,13.22,1.42,13.3,15.56v35.44c0,.78-.33,18.96-24.84,18.96-3.05-.03-6.02-.95-8.56-2.64-5.85-4.56-5.08-16.74-5.08-16.87v-38.99c.12-12.15,11.42-12.15,11.42-12.15v-.95h-36.44v.95s11.4-.38,11.4,12.34v1.58h0v37.2c.02,4.97,1.96,9.73,5.4,13.31,5.16,5.44,10.7,8.2,21.86,8.2,13.78,0,20.35-5.67,23.43-10.43,2.05-3.13,3.23-6.75,3.42-10.49v-35.32c0-14.28,5.61-15.68,12.51-15.68,0,0,12-.61,12,13.53v43.47c-.09,12.18-11.63,12.2-11.63,12.2v2.88h36.92v-2.88s-11.67.38-11.67-12.34v-18.89c1.55,0,6.28,0,7.77-.06,1.57.38,10.92,3.23,10.92,16.44,0,6.31,1.72,10.99,5.12,13.9,3.4,2.91,7.93,3.82,13.04,3.82,3.61-.06,7.27,0,12.25,0h36.96v-2.88s-11.67.38-11.67-12.34v-18.89c1.55,0,6.28,0,7.77-.06,1.57.38,10.92,3.23,10.92,16.44,0,6.31,1.76,10.99,5.11,13.9s7.86,3.66,12.95,3.66h49.01v-1.97s-11.69.38-11.69-12.41v-1.58h0v-41.68h-.02ZM512.18,136.45c-.48,0-.97.04-1.45.08-1.3.08-2.64.05-3.92.06h-3.91v-36.39h8.76c.7,0,15.59.42,15.59,16.74,0,15.54-9.54,18.99-15.07,19.48v.03ZM586.57,136.45c-.41,0-.82.06-1.23.08-1.47.08-2.94.07-4.41.08h-3.63v-36.41h8.76c.7,0,15.6.42,15.6,16.74,0,1.6-.1,3.19-.33,4.78-.2,1.34-.51,2.66-.94,3.95-.37,1.11-.85,2.18-1.44,3.19-.51.9-1.12,1.74-1.81,2.51-.62.71-1.31,1.35-2.06,1.91-.69.53-1.44.99-2.21,1.39-.73.37-1.48.68-2.25.93-.71.24-1.43.43-2.17.57-.62.11-1.25.18-1.88.22v.04Z" />
    <path class="cls-1"
      d="M372.49,98.89c-2.61-.56-5.27-.84-7.93-.83-2.64,0-5.27.27-7.85.83-16.65,3.63-27.11,18.8-27.11,36.91,0,20.81,13.8,37.73,34.96,37.73s35.89-16.92,35.89-37.73c0-18.11-11.12-33.28-27.95-36.91ZM364.56,171.9h0c-7.98,0-16.38-5.55-19.26-22.43,2.09,3.02,6.04,4.11,9.39,2.6l.46-.2-.2-.47c-.46-1.02-1.14-1.92-1.99-2.64,1.68-.73,3.09-1.98,4.01-3.57l.64-1.12-1.12-.65c-1.3-.75-2.77-1.14-4.27-1.14-.29-.02-.59-.02-.88,0,.26-.94.34-1.92.23-2.89l-.06-.51-.5.06c-3.01.34-5.53,2.44-6.41,5.34-.24-2.64-.37-5.45-.37-8.52,0-28.91,10.47-36.13,20.27-36.13s20.92,7.93,20.92,36.13c.11,28.71-10.98,36.14-20.82,36.14h-.04ZM347.75,146.93c1.33-.74,2.41-1.87,3.09-3.23.45-.09.91-.13,1.37-.13,1.27,0,2.52.34,3.61.98-.92,1.6-2.42,2.78-4.19,3.31-1.18-.65-2.51-.97-3.86-.93h-.04Z" />
    <path class="cls-1"
      d="M48.33,27.17c-1.84-1.56-2.94-3.83-3.03-6.24-2.28,2.7-5.98,3.73-9.32,2.58l-1.22-.42.42-1.23v-.11c-14.13,8.55-24.32,21.82-27.57,37.23-.44,2.06-.75,4.15-.93,6.26h0c-.53-.18-1.08-.27-1.64-.27-2.16,0-4.07,1.37-4.78,3.41l-.26.72.72.25c.53.18,1.09.27,1.66.27h.11c-.11.58-.11,1.18,0,1.76l.12.76.76-.12c1.25-.21,2.38-.9,3.15-1.91.02,2.04.16,4.08.42,6.1.99-7.66,3.57-15.03,7.59-21.64,1.38-2.29,2.92-4.49,4.61-6.57-.88,2.59-.03,5.46,2.12,7.16l.34.26.26-.33c2.23-2.8,1.77-6.88-1.02-9.11.99-1.14,2.02-2.24,3.11-3.3,3.45-3.42,7.26-6.45,11.37-9.04,1.8-1.15,3.68-2.21,5.62-3.19-1.94,3.04-1.75,6.97.46,9.81l.79,1.02,1.03-.79c3.69-2.86,4.39-8.15,1.59-11.88,1.15-.5,2.33-.99,3.52-1.43ZM2.34,68.84c-.48,0-.95-.08-1.4-.24.77-2.23,3.21-3.42,5.45-2.64-.06.17-.13.33-.21.49-.52,1.07-1.46,1.87-2.6,2.21-.29.08-.58.14-.88.17h-.35ZM6.52,68.54c-.54,1.43-1.8,2.46-3.3,2.71-.1-.59-.08-1.19.07-1.76,1.32-.24,2.48-1.01,3.23-2.12.09-.13.17-.26.25-.41.02.54-.07,1.07-.25,1.58ZM42.45,39.45c-2.46-3.15-1.89-7.7,1.26-10.16,2.45,3.16,1.88,7.7-1.28,10.15,0,0,0,0-.01,0h.03Z" />
    <path class="cls-1"
      d="M128.2,36.78c-.43-.04-.84-.19-1.2-.42.65.93,1.48,1.73,2.44,2.34-.42-.65-.81-1.29-1.24-1.91ZM123.73,31.14h0c-.42-.45-.84-.88-1.27-1.34.29.86.72,1.66,1.27,2.38-.07-.34-.07-.7,0-1.04Z" />
    <path class="cls-1"
      d="M75.66,54.05v86.64c-1.96-1.19-3.98-2.28-6.05-3.26l-.2-.1-1.19-.54-1.38-.65-1.26-.59c-2.64-1.22-5.29-2.42-7.66-3.77-1.33-.76-2.82-1.61-4.21-2.57h0v-49.51c0-22.81-19.39-22.46-19.39-22.46v-3.18h41.35Z" />
    <path class="cls-1"
      d="M94.48,169.49v3.15s-17.09-1.59-29.96-1.59-29.63,1.59-29.63,1.59v-3.15s18.62,0,18.78-19.68v-10.2h0l1.6.67c3.11,1.24,6.29,2.3,9.23,3.35.8.28,1.58.56,2.34.88l.5.19h.1l.17.06,1,.41c.29.11.57.23.88.34.76.31,1.53.63,2.31.98l.54.25.61.29.59.3c.24.12.47.24.69.37h.07c.32.18.61.36.88.56h0c.2.13.4.26.59.4v.8c-.12,3.82.73,7.61,2.47,11.02l.29.51.15.25.26.41.26.39h0c.08.11.15.22.24.33l.11.14.21.28c.4.5.82.98,1.28,1.43.15.15.29.29.44.42,5.48,5.12,13.03,4.86,13.03,4.86Z" />
    <path class="cls-1"
      d="M57.88,131.78c2.41,1.35,5.02,2.55,7.66,3.77-3.56-1.5-7-3.24-10.31-5.23-.53-.34-1.07-.71-1.6-1.09v-.05h0c1.43.99,2.92,1.84,4.25,2.6Z" />
    <path class="cls-1"
      d="M75.21,148.34c-.3-.19-.59-.38-.88-.56h-.07c-.22-.13-.45-.25-.69-.37l-.59-.3-.61-.29-.54-.25c-.78-.35-1.55-.67-2.31-.98-.29-.11-.57-.24-.88-.34l-1.02-.44-.17-.06c2.72.88,5.32,2.08,7.76,3.59Z" />
    <path class="cls-1"
      d="M112.46,80.49c-1.02-.39-2.15-.28-3.08.28-1.72-1.17-2.77-3.08-2.85-5.16v-.44h.44c1.99-.08,3.9.76,5.2,2.26-.37,1.01-.27,2.13.29,3.05Z" />
    <path class="cls-1"
      d="M75.85,148.78h0c-.19-.14-.39-.26-.59-.4l.59.4ZM75.66,140.67c-1.96-1.18-3.98-2.26-6.05-3.22,2.07.98,4.09,2.07,6.05,3.26v-.04ZM64.49,143.65c-2.93-1.05-6.12-2.11-9.23-3.35,3.74,1.52,7.56,2.8,11.36,4.15l.71.25-.5-.19c-.76-.29-1.53-.56-2.34-.85Z" />
    <path class="cls-1"
      d="M84.37,150.44c-1.1-3.45-3.69-6.26-6.74-8.46-.64-.46-1.3-.88-1.97-1.31v.04c-1.96-1.19-3.98-2.28-6.05-3.26l-.2-.1-1.19-.56-1.38-.65-1.26-.59c-3.56-1.5-7-3.24-10.31-5.23-.53-.34-1.07-.71-1.6-1.09-2.8-2.06-5.29-4.71-5.14-8.44.07-3.12,2.15-5.84,5.14-6.73v-13.12c-1.98.41-3.9,1.05-5.72,1.93-6.78,3.3-10.8,10.82-10.45,18.17-3.24-4.48-9.41-5.64-14.06-2.64l-.58.37.38.59c2.32,3.6,6.61,5.41,10.8,4.56-.99,1.05-1.48,2.48-1.34,3.92l.07.76.76-.07c2.2-.19,4.02-1.8,4.49-3.97.44,1.79,1.17,3.49,2.16,5.04,2.98,4.75,8.03,7.76,13.47,10.07h0l1.6.67c3.11,1.24,6.29,2.3,9.23,3.35.8.28,1.58.56,2.34.88l.5.19h.1c2.72.88,5.32,2.08,7.76,3.59h0c.2.13.4.26.59.4h0c.49.35.95.73,1.39,1.15,1.21,1.07,1.99,2.55,2.19,4.15.2,2.23-.18,4.47-1.11,6.5l.29.51.15.25.26.41.26.39h0l.24.33.11.14.21.28c.4.48.83.94,1.29,1.37l.44.41c.05,0,2.12-4.19,2.26-4.58.68-1.67,1.09-3.43,1.24-5.22.08-1.48-.11-2.97-.58-4.38ZM33.47,127.73c-.22-2.36,1.51-4.44,3.87-4.66,0,0,.02,0,.03,0,.22,2.35-1.5,4.44-3.85,4.66-.01,0-.03,0-.04,0ZM42.85,129.28c-6.26-8.7-2.22-20.52,7.5-24.46-8.75,4.72-12.55,15.44-6.91,24.05,1.79,2.63,4.15,4.83,6.91,6.42-2.98-1.32-5.57-3.39-7.5-6.02ZM82.82,159.58c1.86-4.47,1.13-9.6-1.91-13.37,3.57,3.52,4.35,8.99,1.91,13.37Z" />
    <path class="cls-1"
      d="M57.12,11.2c-3.35-1.16-7.06-.13-9.33,2.58-.12-3.53-2.4-6.63-5.74-7.8l-1.22-.41-.43,1.22c-1.16,3.35-.13,7.07,2.58,9.35-3.49.12-6.56,2.35-7.76,5.63v.11l-.42,1.23,1.22.42c3.33,1.12,7.01.08,9.27-2.62.09,2.41,1.18,4.67,3.01,6.24.8.68,1.73,1.21,2.72,1.55l1.22.42.43-1.22c.27-.77.42-1.58.46-2.4.12-2.65-1-5.21-3.03-6.93,3.47-.12,6.52-2.32,7.72-5.57.03-.05.05-.11.07-.17l.42-1.22-1.21-.43ZM36.41,22.32c1.3-3.78,5.42-5.79,9.2-4.48,0,0,.01,0,.02,0-1.31,3.78-5.44,5.78-9.22,4.48ZM46.1,16.46c-3.79-1.31-5.8-5.44-4.49-9.22,0,0,0-.02.01-.03,3.78,1.3,5.79,5.42,4.48,9.2,0,0,0,.01,0,.02v.04ZM51.84,25.98c-.06.53-.18,1.05-.35,1.55-.63-.21-1.22-.51-1.76-.88-2.7-1.85-3.83-5.27-2.76-8.35,3.22,1.09,5.24,4.27,4.87,7.65v.04ZM56.3,13.4c-1.65,3.2-5.41,4.71-8.81,3.53,1.32-3.78,5.44-5.78,9.22-4.48-.11.32-.25.62-.41.92v.04Z" />
    <path class="cls-1"
      d="M138.46,37.3c-.67-1.32-1.68-2.44-2.92-3.24,1.22-.84,2.2-1.98,2.84-3.3l.56-1.16-1.16-.56c-1.15-.57-2.42-.87-3.7-.88h-.57c.46-1.4.55-2.89.25-4.34l-.26-1.27-1.27.26c-1.45.29-2.8.95-3.9,1.93-.48-1.4-1.31-2.64-2.42-3.61l-.98-.88-.88.97c-2.71,3.11-2.84,7.7-.31,10.95-.07-.34-.07-.7,0-1.04h0v-.16l.04-.18h.18c.18.05.36.11.53.2-.81-1.2-1.25-2.63-1.25-4.08,0-1.76.64-3.46,1.81-4.78,1.1.98,1.87,2.27,2.22,3.7.17.66.24,1.34.2,2.03-.04,1.06-.32,2.1-.81,3.04-.05.1-.1.2-.16.29.27-.24.58-.42.93-.53l.17-.05.05.17c.24.71.15,1.49-.23,2.14.73-.19,1.5-.06,2.12.35l.14.1-.1.15c-.17.26-.39.49-.64.67l.25-.07c1.03-.24,2.1-.24,3.14,0,2.14.45,3.96,1.84,4.96,3.78-2.83,1.46-6.27.89-8.49-1.39v.25h-.17c-.16.01-.32.01-.48,0-.43-.04-.84-.19-1.2-.42,2.44,3.55,7.14,4.71,10.95,2.72l1.15-.59-.59-1.17Z" />
    <path class="cls-1"
      d="M133.48,46.78c-1.09-2.81-2.44-5.52-4.04-8.08-.96-.61-1.79-1.4-2.44-2.34.36.24.77.38,1.2.42.16.01.32.01.48,0h.17v-.26c-.09-.7-.47-1.34-1.03-1.76.74-.11,1.4-.52,1.82-1.15l.1-.15-.14-.1c-.63-.41-1.4-.54-2.12-.35.38-.65.47-1.43.23-2.14l-.05-.17-.17.05c-.34.11-.66.29-.93.53-.31.28-.56.62-.71,1.01-.02.05-.04.11-.05.17v-.06c-.24-.58-.68-1.05-1.24-1.33-.17-.09-.34-.16-.53-.2h-.18l-.04.18v.16h0c-.07.35-.07.7,0,1.05-.56-.72-.99-1.53-1.29-2.4-9.82-10.05-23.96-16.74-39.9-17.85,4.17-1.14,6.82-5.23,6.17-9.5l-.28-1.33-1.28.2c-2.23.32-4.24,1.52-5.58,3.32-.57.77-1,1.62-1.29,2.53-1.05-3.49-3.85-6.16-7.39-7.05l-.67-.18-.18.68c-1.04,4.14.56,8.5,4.04,10.98-1.15-.05-2.3-.08-3.46-.08-4.96,0-9.92.48-14.79,1.45-1.2,3.25-4.25,5.45-7.72,5.57,2.03,1.71,3.15,4.27,3.03,6.93,6.35-1.9,12.91-2.97,19.53-3.2-3.63,2.05-5.67,6.08-5.19,10.21l.07.7.7-.09c5.44-.62,9.46-5.36,9.18-10.82,23.79,1,42.65,18.22,42.65,39.3-.02,6.68-1.93,13.23-5.51,18.87.1-1.46-.72-2.84-2.05-3.45l-.22-.08-.1.21c-.04.09-.08.19-.11.28-.37,1.02-.26,2.15.31,3.07-1.02-.39-2.15-.28-3.08.28l-.22.14-.19.14.14.19c.93,1.33,2.65,1.85,4.16,1.27-7.88,10.94-21.75,18.2-37.6,18.28v14.03h4.55c31.35-1.11,56.4-23.74,56.4-51.51,0-5.67-1.07-11.29-3.13-16.57ZM87.41,2.62c.6,3.96-2.12,7.65-6.08,8.25,0,0,0,0,0,0-.6-3.96,2.12-7.65,6.08-8.25,0,0,0,0,0,0ZM120.58,95.15c-6.56,6.69-14.77,11.53-23.79,14.04,2.14-.88,4.22-1.85,6.27-2.91,10.04-5.29,18.65-13.45,23.62-23.67,3.88-8.01,5.6-17.24,4.06-26.04-2.56-13.44-11.69-24.77-21.81-33.59,11.67,7.54,21.68,19.15,24.47,33.08,2.59,14.05-2.96,28.99-12.81,39.05v.04Z" />
  </g>
</svg>