<?xml version="1.0" encoding="UTF-8"?>
<svg id="Layer_1" data-name="Layer 1" xmlns="http://www.w3.org/2000/svg" viewBox="0 0 282.62 86.23">
  <defs>
    <style>
      .cls-1 {
        fill: #fff;
      }
    </style>
  </defs>
  <path class="cls-1" d="M52.22,3.59c.12.71.12,1.35,0,1.93v.06c-.08.5-.32.89-.7,1.17-.38.28-.83.38-1.32.3s-.88-.32-1.15-.7c-.27-.38-.37-.83-.31-1.32,0-.06.01-.12.03-.19.06-.27.09-.49.09-.65,0-.08-.01-.15-.03-.2-.02-.05-.04-.11-.06-.17-.08-.1-.25-.23-.5-.37-.25-.12-.55-.23-.9-.31-.71-.15-1.47-.22-2.3-.22-.81.02-1.63.07-2.46.16-1.68.21-3.36.52-5.04.93-1.66.39-3.32.86-4.98,1.4-1.64.52-3.28,1.1-4.92,1.74-1.62.62-3.22,1.29-4.8,1.99-1.6.73-3.17,1.48-4.7,2.27-1.56.81-3.07,1.66-4.55,2.55-1.49.89-2.96,1.85-4.39,2.86-.35.25-.7.5-1.03.75-.35.27-.7.54-1.03.81-.69.56-1.34,1.13-1.96,1.71-1.29,1.18-2.4,2.49-3.33,3.92-.46.73-.8,1.49-1.03,2.3-.1.39-.17.8-.19,1.21-.02.21-.02.4,0,.59.04.21.08.42.12.62.25.77.67,1.46,1.28,2.09.6.6,1.27,1.14,1.99,1.62.35.23.73.45,1.12.65.37.21.76.4,1.15.59.79.37,1.59.72,2.4,1.03,1.79.69,3.61,1.29,5.48,1.81,1.37-.91,2.76-1.79,4.17-2.62.77-.44,1.55-.86,2.34-1.28.39-.21.79-.39,1.18-.56.21-.1.42-.2.62-.28.1-.04.22-.07.34-.09.1-.04.23-.07.37-.09.06,0,.12.02.17.06.05.04.09.1.11.19,0,.06-.02.12-.06.17-.04.05-.1.09-.19.11-.08,0-.18.01-.28.03-.1.04-.2.07-.28.09-.21.08-.42.17-.62.25-.39.17-.79.34-1.18.53-.77.39-1.54.8-2.3,1.21-1.33.77-2.64,1.57-3.92,2.4,1.35.37,2.7.74,4.05,1.09.69.17,1.36.33,2.02.5,2.74.66,5.47,1.42,8.19,2.27.83.27,1.67.56,2.52.87.85.31,1.69.7,2.52,1.15.39.21.8.46,1.21.75.39.27.78.6,1.15,1,.39.39.71.89.93,1.49.12.31.19.63.19.97,0,.17-.01.33-.03.5-.02.17-.05.33-.09.5-.1.33-.24.63-.4.9-.17.25-.35.48-.56.69-.39.37-.8.7-1.21.97-.42.27-.84.5-1.28.69-.44.21-.87.39-1.31.56-.87.31-1.74.58-2.62.81-.87.21-1.75.38-2.65.53-3.53.6-7.07.87-10.62.81-1.79-.04-3.56-.17-5.32-.37-.89-.12-1.77-.28-2.65-.47-.44-.1-.87-.22-1.31-.34-.42-.15-.84-.3-1.28-.47-.42-.17-.82-.37-1.21-.62-.39-.23-.77-.51-1.12-.84-.33-.35-.58-.77-.75-1.25-.06-.23-.09-.47-.09-.72-.02-.23-.01-.46.03-.69.08-.48.23-.92.44-1.34.19-.39.4-.78.65-1.15.5-.75,1.05-1.44,1.65-2.09.6-.64,1.23-1.26,1.9-1.84.66-.6,1.34-1.17,2.02-1.71,1.12-.89,2.28-1.74,3.49-2.55-.77-.27-1.53-.55-2.27-.84-.42-.17-.82-.33-1.21-.5-.42-.17-.83-.33-1.25-.5-1.62-.66-3.19-1.48-4.7-2.46-.75-.48-1.44-1.04-2.09-1.68-.64-.66-1.12-1.45-1.43-2.37-.06-.23-.11-.46-.16-.69-.02-.23-.03-.47-.03-.72.02-.46.08-.91.19-1.37.25-.89.6-1.72,1.06-2.49.48-.77,1-1.49,1.56-2.18.58-.69,1.19-1.34,1.84-1.96,1.27-1.22,2.6-2.38,4.02-3.46,1.41-1.06,2.86-2.07,4.36-3.02,1.47-.98,2.98-1.89,4.52-2.74,1.54-.87,3.09-1.7,4.67-2.49,1.58-.79,3.18-1.55,4.8-2.27,1.62-.71,3.26-1.38,4.92-2.02,1.64-.64,3.32-1.22,5.04-1.74,1.7-.54,3.45-.98,5.23-1.31.89-.17,1.81-.29,2.74-.37.93-.1,1.92-.09,2.96.03.52.08,1.06.23,1.62.44.58.19,1.14.54,1.68,1.06.25.27.47.58.65.93.17.35.29.71.37,1.06ZM23.35,40.64l-5.01-1.62c-1.6-.52-3.2-1.06-4.8-1.62-1.25.85-2.46,1.75-3.64,2.71-1.39,1.08-2.68,2.25-3.86,3.52-.58.64-1.11,1.33-1.59,2.06-.48.73-.8,1.49-.97,2.3-.04.21-.05.4-.03.59,0,.21.04.4.12.59.14.35.37.66.69.93.29.27.63.5,1.03.69.35.17.74.32,1.15.47.81.25,1.64.45,2.49.59.83.12,1.68.22,2.55.28,1.72.12,3.45.16,5.17.09,1.74-.08,3.47-.24,5.17-.47,1.72-.23,3.43-.52,5.11-.87.83-.19,1.65-.39,2.46-.62.83-.25,1.63-.52,2.4-.81.37-.15.75-.31,1.12-.5.37-.17.72-.35,1.03-.56.33-.21.61-.43.84-.65.21-.23.34-.44.4-.62,0-.02,0-.05.02-.08.01-.03.02-.06.02-.08v-.16c0-.1-.01-.21-.03-.31-.08-.23-.24-.47-.47-.72-.23-.25-.5-.49-.81-.72s-.64-.45-1-.65c-1.45-.79-3-1.47-4.64-2.06-1.62-.6-3.26-1.17-4.92-1.71Z"/>
  <path class="cls-1" d="M61.9,43.98c.06-.12.15-.18.26-.16.11.02.2.08.26.17s.06.2,0,.33c-.62,1.02-1.4,2-2.32,2.96-.92.95-1.96,1.65-3.1,2.09-1.14.44-2.36.39-3.64-.12-1.6-.89-2.68-2.18-3.24-3.86-.06-.17-.18-.25-.34-.26-.17-.01-.28.07-.34.23-.64,1.66-1.39,3.13-2.23,4.41s-1.92,1.99-3.22,2.13c-1.68-.27-2.6-1.2-2.76-2.79s.09-3.4.73-5.45,1.31-3.89,1.99-5.53c.25-.48.59-.73,1.03-.75s.8.13,1.11.45c.3.32.36.74.17,1.26-1.02,2.47-1.71,4.45-2.09,5.93s-.54,2.56-.51,3.24.13,1.04.3,1.11c.6-.27,1.33-1.23,2.18-2.88.85-1.65,1.63-3.33,2.34-5.04.71-1.71,1.14-2.8,1.31-3.25l.03-.06c.25-.5.59-.75,1.03-.75s.8.16,1.11.48c.3.32.36.73.17,1.23-.08.21-.18.42-.28.62-.64,2.28-.64,4.3,0,6.04.64,1.74,1.73,2.76,3.25,3.05s3.29-.6,5.28-2.68c.56-.66,1.07-1.38,1.53-2.15Z"/>
  <path class="cls-1" d="M78.38,44.01c.02.1,0,.21-.06.31s-.15.17-.25.19c-1.04.23-2.02.6-2.96,1.12-1.08.54-2.2,1.19-3.36,1.96-.08.04-.15.11-.19.22-.25.58-.5,1.09-.75,1.53-.06.1-.11.2-.16.28-.42.75-.89,1.46-1.42,2.13s-1.19,1.21-1.98,1.6c-.04.02-.07.03-.09.03-.91.23-1.54.04-1.87-.58-.33-.61-.18-1.27.47-1.98.85-.81,1.76-1.54,2.74-2.18.08-.04.14-.1.19-.19.6-1.35,1.08-2.73,1.43-4.14.35-1.41.52-2.64.5-3.67v-.03c.04-.73-.13-1.26-.51-1.6-.38-.34-.89-.23-1.51.33-1.31,1.39-2.51,3.48-3.61,6.27-1.1,2.79-2.11,5.84-3.02,9.14s-1.72,6.4-2.43,9.31c-.54,2.28-1.02,4.19-1.45,5.73-.43,1.54-.78,2.48-1.07,2.83-.21.19-.46.28-.75.28s-.53-.1-.72-.31c-.35-.48-.46-1.24-.33-2.27.14-1.04.31-2,.51-2.9.08-.37.16-.69.22-.93.48-2.01,1-4.03,1.56-6.04.46-1.66.9-3.32,1.34-4.98.56-2.3,1.14-4.66,1.74-7.07.48-1.89.93-3.74,1.37-5.54.1-.39.21-.81.31-1.25.29-1.18.59-2.36.9-3.52.17-.5.46-.77.87-.81.42-.04.77.08,1.07.36.3.28.37.68.2,1.2-2.84,8.05-5.17,16.26-6.98,24.63.44-1.49.86-2.98,1.28-4.45.77-2.7,1.58-5.39,2.44-8.06s1.85-5.31,2.97-7.91v-.03l.4-.81c.5-1.18,1.15-2.31,1.96-3.38s1.85-1.48,3.11-1.23c.02.02.05.03.09.03,1.35.66,2.11,1.73,2.27,3.19.17,1.46.01,2.99-.47,4.59-.06.23-.01.4.16.53.17.12.35.13.56.03.08-.04.17-.08.25-.12.23-.12.46-.24.69-.34,1.22-.69,2.49-1.27,3.8-1.74.1-.04.2-.04.3,0s.16.12.2.25Z"/>
  <path class="cls-1" d="M90.49,42.26c.1-.1.22-.14.34-.11s.21.1.26.22c.05.11.03.22-.08.33-.93.91-2.09,1.56-3.46,1.95s-2.61.13-3.71-.76c-.6-.71-.93-1.49-1-2.37-.02-.19-.11-.3-.28-.34-.17-.04-.3.02-.4.19-.39.75-.73,1.4-1,1.96-.02.06-.05.12-.09.19-.83,1.83-1.46,3.74-1.9,5.73-.04.19-.08.39-.12.62-.08.39-.2.77-.34,1.12-.15.35-.42.62-.81.81-.46.15-.87.07-1.23-.22-.36-.29-.5-.67-.42-1.15.5-3.01,1.12-6,1.87-8.97,0-.04.01-.07.03-.09.23-1.04.57-2.03,1.03-2.99.27-.48.62-.71,1.06-.69s.79.2,1.07.54.31.76.08,1.26c-.62,1.6-1.11,3.23-1.46,4.89.21-.52.42-1.04.62-1.56.44-1.14.9-2.27,1.4-3.39.06-.17.13-.33.22-.5.33-.73.74-1.43,1.21-2.1.48-.67,1.11-1.1,1.9-1.26.31-.04.59.02.83.19.24.17.39.4.45.72.04.35-.05.65-.28.9-1.16,1.27-1.86,2.72-2.09,4.36,0,.89.29,1.51.87,1.85.58.34,1.27.47,2.06.39.79-.08,1.48-.31,2.09-.69.5-.27.92-.61,1.28-1.03Z"/>
  <path class="cls-1" d="M103.79,43.7c.14.1.22.23.22.39s-.06.29-.19.39c-.85,1-1.9,2.07-3.16,3.21-1.26,1.14-2.6,2.1-4.03,2.88s-2.83,1.12-4.2,1.01c-1.54-.48-2.44-1.34-2.72-2.58s-.21-2.59.22-4.05.92-2.72,1.48-3.8c.27-.46.62-.69,1.04-.7.43-.01.78.15,1.06.47s.34.74.17,1.26c-.19.66-.42,1.34-.69,2.02-.23.6-.44,1.2-.62,1.81-.02.1-.04.22-.06.34-.37.98-.47,1.94-.28,2.9.31.62.81.97,1.49,1.03s1.33-.03,1.93-.28c2.2-.95,4.14-2.3,5.82-4.05.66-.66,1.28-1.38,1.84-2.15.08-.1.19-.17.33-.19.13-.02.25.01.36.09ZM95.25,36c-.5.52-.95.76-1.37.73-.42-.03-.67-.25-.76-.65s.09-.9.54-1.48c.5-.52.95-.76,1.37-.73.42.03.67.25.76.65s-.09.9-.54,1.48Z"/>
  <path class="cls-1" d="M120.88,43.85c.06.12.08.25.06.39-.02.13-.09.24-.22.33-2.16,1.49-4.1,3.25-5.82,5.26-.6.71-1.2,1.44-1.81,2.21-1.74,7.06-3.92,13.97-6.54,20.74,0,.04-.01.09-.03.16-.73,1.87-1.5,3.72-2.32,5.54-.82,1.83-1.77,3.59-2.85,5.29-.04.06-.08.12-.12.19-.33.48-.7.93-1.11,1.35s-.9.72-1.48.89c-.95.12-1.59-.2-1.9-.98s-.39-1.57-.25-2.38c.85-4.3,2.56-9.06,5.12-14.29s5.49-10.1,8.77-14.6c.69-2.82,1.28-5.67,1.77-8.53.06-.48.13-.95.22-1.43.33-1.68.43-3.34.28-4.98-.69,1.2-1.34,2.78-1.96,4.73-.48,1.37-.99,2.69-1.53,3.97-.54,1.28-1.17,2.33-1.88,3.15s-1.55,1.21-2.51,1.17c-1.56-.37-2.43-1.27-2.63-2.69-.2-1.42-.06-2.96.42-4.61s.94-2.99,1.4-4.03c.23-.44.54-.66.93-.67.39-.01.72.13.98.42.26.29.32.66.17,1.12-.02.04-.04.09-.06.16-.42,1.1-.81,2.41-1.18,3.92s-.36,2.78.03,3.8c.04.04.1.07.19.09l.03-.03c.62-.52,1.18-1.35,1.68-2.51s.99-2.41,1.46-3.78c.6-1.83,1.26-3.46,1.98-4.89s1.56-2.22,2.54-2.37c1.1.06,1.81.59,2.12,1.59s.4,2.16.28,3.49-.28,2.52-.47,3.58c-.08.5-.15.9-.19,1.21-.15.69-.28,1.37-.4,2.06-.04.27.04.46.25.56.21.1.42.06.62-.12.69-.75,1.36-1.43,2.02-2.06,1-.93,2.06-1.77,3.18-2.52.12-.08.26-.11.4-.09.14.02.26.09.34.22ZM104.91,72.16c1.54-4.36,2.93-8.77,4.17-13.23.04-.12.02-.23-.06-.31-.08-.08-.18-.12-.3-.12s-.21.05-.3.16c-4.61,7.24-7.99,14.73-10.15,22.45-.14.62-.25,1.24-.33,1.85-.07.61-.07,1.09.02,1.43.08.34.29.43.62.25.33-.18.82-.75,1.46-1.73,1-1.62,1.87-3.31,2.62-5.06s1.44-3.53,2.09-5.34c.06-.12.11-.24.16-.34Z"/>
  <path class="cls-1" d="M138.19,43.98c.06-.1.15-.15.26-.14.11.01.2.06.26.16s.06.2,0,.33c-.12.17-.25.34-.37.53-.64,1-1.41,2.06-2.3,3.18-.89,1.12-1.88,2.03-2.96,2.72-1.08.7-2.24.91-3.49.64-1-.48-1.73-1.21-2.21-2.21-.48-1-.8-2.09-.97-3.27-.04-.17-.14-.26-.3-.3s-.28.03-.36.17v.03c-.31.48-.61.99-.9,1.53-.56,1.06-1.18,2.02-1.85,2.88-.67.86-1.51,1.36-2.51,1.51-1.29-.12-1.96-.88-2.01-2.26-.05-1.38.29-2.97,1.01-4.78s1.61-3.4,2.66-4.8c1.05-1.39,2.02-2.16,2.91-2.3.46-.15.97-.09,1.54.16.57.25,1.02.61,1.34,1.07.32.47.34.96.05,1.48.39.23.57.63.53,1.21-.46,2.37-.51,4.43-.16,6.18.35,1.75,1.14,2.71,2.37,2.88,1.22.17,2.93-.92,5.11-3.27.87-1.04,1.65-2.15,2.34-3.33ZM121.01,48.74c.93-1.27,1.81-2.68,2.62-4.23.77-1.45,1.59-2.79,2.46-4.02.02-.04.04-.1.05-.19.01-.08.01-.16,0-.23-.01-.07-.05-.12-.12-.14-.07-.02-.19.01-.36.09-1.14.66-2.14,1.93-3,3.78-.86,1.86-1.41,3.5-1.63,4.94Z"/>
  <path class="cls-1" d="M210,.57c.14.04.3.15.47.33.17.18.28.36.36.54.07.19.05.32-.08.4-.06.02-.12.02-.19,0s-.11-.06-.16-.12c-.37-.58-.86-.85-1.46-.79-.6.05-1.22.26-1.85.62-.63.36-1.2.72-1.7,1.07-.12.1-.24.19-.34.25-.02,0-.03.01-.03.03-2.89,2.3-5.56,4.85-8.03,7.63-9.01,10.19-17.24,20.99-24.69,32.38-.52.85-.69,1.73-.5,2.63s.7,1.62,1.53,2.16c.46.29,1.01.55,1.65.78,2.97.79,5.99,1.13,9.08,1.01s6.13-.41,9.14-.89c.17-.02.29.03.37.14.08.11.11.24.08.37s-.14.22-.33.26c-2.41.31-4.82.52-7.22.62h-.16c-1.49.06-3.2.07-5.11.03-1.91-.04-3.75-.28-5.53-.72s-3.2-1.19-4.28-2.27c-.19-.25-.35-.5-.5-.75-.04-.08-.1-.13-.19-.14-.08-.01-.15.03-.19.11-1.56,2.47-3.08,4.96-4.58,7.47-.21.37-.5.59-.87.64s-.72-.03-1.03-.25-.46-.54-.44-.98c.12-1.87.8-4.36,2.02-7.47,1.22-3.11,2.67-6.51,4.33-10.18,1.66-3.65,3.2-7.25,4.62-10.79,1.42-3.54,2.41-6.69,2.96-9.47.55-2.77.33-4.83-.67-6.18l-.03-.03c-.89-.58-1.93-.79-3.1-.62-1.17.17-2.34.5-3.5,1.01-1.16.51-2.18,1.01-3.05,1.51l-.19.06c-4.44,2.64-8.7,5.97-12.77,10-4.07,4.03-7.2,8.39-9.4,13.08-1,2.28-1.22,4.33-.69,6.13.54,1.81,2.11,3.04,4.7,3.71.1.02.17.08.19.17.02.09,0,.18-.06.25s-.14.1-.25.08c-3.07-.75-4.86-2.2-5.36-4.36s-.05-4.71,1.35-7.64,3.41-5.95,6.01-9.05c2.61-3.09,5.46-5.94,8.56-8.53s6.11-4.63,9.03-6.12c2.92-1.48,5.39-2.09,7.43-1.82,2.03.27,3.28,1.73,3.74,4.39v.03c.06,2.62-.27,5.17-1,7.68-.73,2.5-1.57,4.97-2.52,7.4-.35.89-.69,1.79-1,2.68-1.02,2.51-2.06,5.02-3.11,7.54-.73,1.74-1.45,3.5-2.18,5.26-.02.08-.01.15.03.2.04.05.1.08.17.09.07.01.14-.03.2-.11,4.5-6.54,9.28-12.87,14.32-18.99.33-.37.75-.85,1.25-1.43,1.37-1.64,3.16-3.72,5.37-6.23s4.56-4.99,7.04-7.44c2.48-2.45,4.82-4.41,7.02-5.87,2.2-1.46,3.96-1.97,5.29-1.51Z"/>
  <path class="cls-1" d="M213.58,43.98c.06-.12.15-.18.26-.16.11.02.2.08.26.17s.06.2,0,.33c-.62,1.02-1.4,2-2.32,2.96-.92.95-1.96,1.65-3.1,2.09-1.14.44-2.36.39-3.64-.12-1.6-.89-2.68-2.18-3.24-3.86-.06-.17-.18-.25-.34-.26-.17-.01-.28.07-.34.23-.64,1.66-1.39,3.13-2.23,4.41s-1.92,1.99-3.22,2.13c-1.68-.27-2.6-1.2-2.76-2.79s.09-3.4.73-5.45,1.31-3.89,1.99-5.53c.25-.48.59-.73,1.03-.75s.8.13,1.11.45c.3.32.36.74.17,1.26-1.02,2.47-1.71,4.45-2.09,5.93s-.54,2.56-.51,3.24.13,1.04.3,1.11c.6-.27,1.33-1.23,2.18-2.88.85-1.65,1.63-3.33,2.34-5.04.71-1.71,1.14-2.8,1.31-3.25l.03-.06c.25-.5.59-.75,1.03-.75s.8.16,1.11.48c.3.32.36.73.17,1.23-.08.21-.18.42-.28.62-.64,2.28-.64,4.3,0,6.04.64,1.74,1.73,2.76,3.25,3.05s3.29-.6,5.28-2.68c.56-.66,1.07-1.38,1.53-2.15Z"/>
  <path class="cls-1" d="M238.18,44.01c.1-.17.23-.24.39-.22s.28.09.36.22c.08.12.08.27,0,.44-.91,1.47-1.98,2.83-3.21,4.08-1.02,1.06-2.06,1.89-3.11,2.51s-2.02.74-2.9.37-1.53-1.49-1.96-3.38c-.19-.98-.32-1.96-.4-2.96-.08-.73-.17-1.3-.25-1.71-.04-.17-.13-.29-.26-.37-.14-.08-.29-.09-.45-.03-.23.1-.44.24-.62.4-.08.06-.17.11-.25.16-1.23,1-2.27,2.17-3.15,3.52-.58.87-1.23,1.68-1.93,2.43-.23.21-.5.26-.81.16-.39-.19-.61-.49-.65-.9-.04-.42-.03-.82.03-1.21,0-.04.01-.08.03-.12.31-1.93.76-3.83,1.34-5.7.25-.89.49-1.77.72-2.65-.19-.21-.53.11-1.04.95-.51.84-1.09,1.97-1.73,3.38-.64,1.41-1.28,2.85-1.9,4.33-.62,1.41-1.17,2.63-1.63,3.64s-.79,1.62-.98,1.81c-.37.29-.8.38-1.29.26-.49-.11-.83-.41-1.01-.89-.14-.71-.16-1.41-.03-2.1s.3-1.39.53-2.07c.12-.42.24-.83.34-1.25.31-1.08.65-2.16,1.03-3.24.37-1.06.72-2.12,1.03-3.18.14-.5.23-1.01.25-1.53.06-.46.3-.79.7-1s.81-.12,1.23.25c.46.5.53,1.39.23,2.66-.3,1.28-.66,2.5-1.07,3.66-.21.62-.36,1.12-.47,1.49-.29.83-.58,1.74-.87,2.74.35-.69.83-1.7,1.43-3.05.85-1.87,1.77-3.78,2.76-5.75.99-1.96,1.84-3.31,2.57-4.03.77-.37,1.39-.34,1.85.09s.64,1.06.51,1.87c-.33,1.97-.88,3.87-1.65,5.7-.46,1.14-.86,2.31-1.21,3.52.56-.69,1.1-1.37,1.62-2.06.56-.73,1.12-1.43,1.68-2.12.02-.04.05-.08.09-.12.44-.6.95-1.14,1.54-1.62s1.29-.62,2.1-.44c1.06.46,1.68,1.22,1.87,2.29s.24,2.2.16,3.38c-.08,1.06-.05,1.99.09,2.8.33.91.89,1.24,1.68.98.79-.26,1.59-.75,2.41-1.48.82-.73,1.46-1.33,1.92-1.81.06-.06.11-.11.16-.16.85-.91,1.59-1.9,2.21-2.96ZM227.62,40.92l.09.03h-.03s-.01-.03-.03-.03h-.03Z"/>
  <path class="cls-1" d="M256.37,43.98c.06-.1.15-.15.26-.14.11.01.2.06.26.16s.06.2,0,.33c-.12.17-.25.34-.37.53-.64,1-1.41,2.06-2.3,3.18-.89,1.12-1.88,2.03-2.96,2.72-1.08.7-2.24.91-3.49.64-1-.48-1.73-1.21-2.21-2.21-.48-1-.8-2.09-.97-3.27-.04-.17-.14-.26-.3-.3s-.28.03-.36.17v.03c-.31.48-.61.99-.9,1.53-.56,1.06-1.18,2.02-1.85,2.88-.67.86-1.51,1.36-2.51,1.51-1.29-.12-1.96-.88-2.01-2.26-.05-1.38.29-2.97,1.01-4.78s1.61-3.4,2.66-4.8c1.05-1.39,2.02-2.16,2.91-2.3.46-.15.97-.09,1.54.16.57.25,1.02.61,1.34,1.07.32.47.34.96.05,1.48.39.23.57.63.53,1.21-.46,2.37-.51,4.43-.16,6.18.35,1.75,1.14,2.71,2.37,2.88,1.22.17,2.93-.92,5.11-3.27.87-1.04,1.65-2.15,2.34-3.33ZM239.18,48.74c.93-1.27,1.81-2.68,2.62-4.23.77-1.45,1.59-2.79,2.46-4.02.02-.04.04-.1.05-.19.01-.08.01-.16,0-.23-.01-.07-.05-.12-.12-.14-.07-.02-.19.01-.36.09-1.14.66-2.14,1.93-3,3.78-.86,1.86-1.41,3.5-1.63,4.94Z"/>
  <path class="cls-1" d="M269.1,42.26c.1-.1.22-.14.34-.11s.21.1.26.22c.05.11.03.22-.08.33-.93.91-2.09,1.56-3.46,1.95s-2.61.13-3.71-.76c-.6-.71-.93-1.49-1-2.37-.02-.19-.11-.3-.28-.34-.17-.04-.3.02-.4.19-.39.75-.73,1.4-1,1.96-.02.06-.05.12-.09.19-.83,1.83-1.46,3.74-1.9,5.73-.04.19-.08.39-.12.62-.08.39-.2.77-.34,1.12-.15.35-.42.62-.81.81-.46.15-.87.07-1.23-.22-.36-.29-.5-.67-.42-1.15.5-3.01,1.12-6,1.87-8.97,0-.04.01-.07.03-.09.23-1.04.57-2.03,1.03-2.99.27-.48.62-.71,1.06-.69s.79.2,1.07.54.31.76.08,1.26c-.62,1.6-1.11,3.23-1.46,4.89.21-.52.42-1.04.62-1.56.44-1.14.9-2.27,1.4-3.39.06-.17.13-.33.22-.5.33-.73.74-1.43,1.21-2.1.48-.67,1.11-1.1,1.9-1.26.31-.04.59.02.83.19.24.17.39.4.45.72.04.35-.05.65-.28.9-1.16,1.27-1.86,2.72-2.09,4.36,0,.89.29,1.51.87,1.85.58.34,1.27.47,2.06.39.79-.08,1.48-.31,2.09-.69.5-.27.92-.61,1.28-1.03Z"/>
  <path class="cls-1" d="M282.4,43.7c.14.1.22.23.22.39s-.06.29-.19.39c-.85,1-1.9,2.07-3.16,3.21-1.26,1.14-2.6,2.1-4.03,2.88s-2.83,1.12-4.2,1.01c-1.54-.48-2.44-1.34-2.72-2.58s-.21-2.59.22-4.05.92-2.72,1.48-3.8c.27-.46.62-.69,1.04-.7.43-.01.78.15,1.06.47s.34.74.17,1.26c-.19.66-.42,1.34-.69,2.02-.23.6-.44,1.2-.62,1.81-.02.1-.04.22-.06.34-.37.98-.47,1.94-.28,2.9.31.62.81.97,1.49,1.03s1.33-.03,1.93-.28c2.2-.95,4.14-2.3,5.82-4.05.66-.66,1.28-1.38,1.84-2.15.08-.1.19-.17.33-.19.13-.02.25.01.36.09ZM273.87,36c-.5.52-.95.76-1.37.73-.42-.03-.67-.25-.76-.65s.09-.9.54-1.48c.5-.52.95-.76,1.37-.73.42.03.67.25.76.65s-.09.9-.54,1.48Z"/>
</svg>