<svg xmlns="http://www.w3.org/2000/svg" viewBox="0 0 4352 655.05"><g id="Layer_1" data-name="Layer 1"><path d="M71.77,656.26A10.25,10.25,0,0,1,61.52,646V266.61H10.25A10.26,10.26,0,0,1,4,248.24L321.84,2.15a10.24,10.24,0,0,1,12.56,0L652.27,248.24A10.26,10.26,0,0,1,646,266.61H594.73V420.42a10.26,10.26,0,0,1-20.51,0V256.35a10.25,10.25,0,0,1,10.25-10.25H616L328.12,23.23,40.24,246.1H71.77A10.25,10.25,0,0,1,82,256.35V646A10.26,10.26,0,0,1,71.77,656.26Z" fill="#fff"/><path d="M584.46,266.61a10.26,10.26,0,0,1-6.23-2.12L328.12,72.78,78,264.49a10.26,10.26,0,0,1-12.48-16.28L321.88,51.73a10.26,10.26,0,0,1,12.48,0L590.71,248.21a10.26,10.26,0,0,1-6.25,18.4Z" fill="#fff"/><path d="M625.49,656.26H30.76a10.26,10.26,0,1,1,0-20.51H625.49a10.26,10.26,0,0,1,0,20.51Z" fill="#fff"/><path d="M205.08,615.24H153.81A51.33,51.33,0,0,1,102.54,564V492.19c0-39,20.94-67.35,54.65-73.93l.3-.05,34.33-5.65a5.28,5.28,0,0,0,3-1.39V388.76a10.26,10.26,0,0,1,20.51,0v22.61c0,12.15-10.25,20-20.37,21.45l-34,5.6c-23.75,4.7-37.93,24.79-37.93,53.77V564a30.8,30.8,0,0,0,30.77,30.76h51.27a10.26,10.26,0,0,1,0,20.51Z" fill="#fff"/><path d="M379.39,512.7a10.25,10.25,0,0,1-10.25-10.25V492.19c0-29-14.18-49.07-37.93-53.77L297,432.79c-9.93-1.44-20.18-9.28-20.18-21.42V388.76a10.26,10.26,0,0,1,20.51,0v22.4a4.93,4.93,0,0,0,2.81,1.36l34.52,5.68.3.05c33.71,6.59,54.66,34.92,54.66,73.94v10.26A10.25,10.25,0,0,1,379.39,512.7Z" fill="#fff"/><path d="M276.85,297.37a10.23,10.23,0,0,1-7.25-3l-4.32-4.32c-10.38,5.07-26.17,7.32-49.95,7.32h-41a10.26,10.26,0,0,1,0-20.51h41c30.24,0,40.67-4,44.11-7.34a10.25,10.25,0,0,1,14.41.09l10.25,10.25a10.26,10.26,0,0,1-7.25,17.51Z" fill="#fff"/><path d="M246.09,410.16a82.12,82.12,0,0,1-82-82v-41a82,82,0,0,1,164.06,0v41A82.12,82.12,0,0,1,246.09,410.16Zm0-184.57a61.59,61.59,0,0,0-61.52,61.52v41a61.53,61.53,0,0,0,123.05,0v-41A61.59,61.59,0,0,0,246.09,225.59Z" fill="#fff"/><path d="M246.09,461.43c-24.66,0-51.27-19.6-51.27-51.27a10.26,10.26,0,0,1,20.51,0c0,19,16,30.76,30.76,30.76s30.76-11.76,30.76-30.76a10.26,10.26,0,0,1,20.51,0C297.36,441.83,270.75,461.43,246.09,461.43Z" fill="#fff"/><path d="M584.47,615.24H266.6a30.8,30.8,0,0,1-30.76-30.76V564a10.25,10.25,0,0,1,10.25-10.25h112.8a10.26,10.26,0,0,1,0,20.51H256.35v10.25a10.26,10.26,0,0,0,10.25,10.25h106l58.86-137.34a10.26,10.26,0,0,1,9.43-6.21H646a10.25,10.25,0,0,1,9.42,14.29L593.9,609A10.25,10.25,0,0,1,584.47,615.24ZM394.94,594.73H577.71l52.73-123H447.68l-52.74,123Z" fill="#fff"/><path d="M205.08,553.72H174.31a10.25,10.25,0,0,1-10.25-10.26v-41a10.26,10.26,0,1,1,20.51,0v30.76h20.51a10.26,10.26,0,0,1,0,20.51Z" fill="#fff"/><path id="id-6izo4zJp26" d="M836.64,452.54H856.1v121H836.64Zm153.5,47.55q10.3,0,16.38,5.82t6.4,15.3h0v52.37H994.46V528.36q-.33-5.65-2.49-8.73c-1.44-2-3.83-3.19-7.15-3.41h0q-8.66,0-14,7.73a32,32,0,0,0-5.49,18h0v31.59H946.57V528.36a16.44,16.44,0,0,0-2.58-8.65c-1.5-2.11-4-3.27-7.4-3.49h0a15,15,0,0,0-10,3.66,24.12,24.12,0,0,0-6.73,9.64A33,33,0,0,0,917.47,542h0v31.59H898.84V503.25h16.8l1.49,12.3a28.53,28.53,0,0,1,10.81-11.47,30.39,30.39,0,0,1,15.63-4h0q8.49,0,14.22,3.74a17.65,17.65,0,0,1,7.57,10.73h0a31.4,31.4,0,0,1,11-10.65,27.39,27.39,0,0,1,13.8-3.82Zm107.93,0a34.59,34.59,0,0,1,17.79,4.66,32.16,32.16,0,0,1,12.48,13.3,43.09,43.09,0,0,1,4.49,20.12h0a38.8,38.8,0,0,1-4.91,19.78,32.68,32.68,0,0,1-13.64,13,42.49,42.49,0,0,1-19.7,4.49h0a33.26,33.26,0,0,1-13.47-2.83,29.13,29.13,0,0,1-10.65-7.64h0v42.39h-18.62V501.92H1068l1.66,10.47a42.09,42.09,0,0,1,12.72-9,37.15,37.15,0,0,1,15.72-3.33Zm-7.15,60.52a23.34,23.34,0,0,0,19.79-10.8,20.76,20.76,0,0,0,3.16-11.31h0q0-9.81-6.24-16.21a20.61,20.61,0,0,0-15.38-6.4h0a23,23,0,0,0-13.72,4,22.29,22.29,0,0,0-8.07,11.14h0v14.13a19.6,19.6,0,0,0,7.24,11.14,20.93,20.93,0,0,0,13.22,4.32Zm131.38-57.36h17.12v70.33H1220.8V563.44a38.94,38.94,0,0,1-10.31,8.23,29.82,29.82,0,0,1-15.14,3.74h0a38,38,0,0,1-18.12-4.24,31,31,0,0,1-12.64-12.55q-4.66-8.31-4.66-20.12h0a41,41,0,0,1,4.83-20.2,34.69,34.69,0,0,1,12.88-13.47,34.33,34.33,0,0,1,17.71-4.74h0q17.13,0,25.62,12.64h0Zm-21.79,56.86a19.87,19.87,0,0,0,20.29-15h0v-15.3a19.45,19.45,0,0,0-7.73-10.47,22.61,22.61,0,0,0-13.22-4h0a20.26,20.26,0,0,0-15,6.23q-6.15,6.24-6.16,15.88h0a22.66,22.66,0,0,0,11,19.62,20.6,20.6,0,0,0,10.81,3Zm136.2,7a35.37,35.37,0,0,1-11.39,6.07,42.81,42.81,0,0,1-13.55,2.24h0a45,45,0,0,1-20.54-4.49A32.12,32.12,0,0,1,1277.51,558a38.86,38.86,0,0,1-4.83-19.71h0a36.53,36.53,0,0,1,5.16-19.53,34.82,34.82,0,0,1,13.72-12.89,39.05,39.05,0,0,1,18.38-4.49h0q16.62,0,27.44,9h0l-9.32,12.14a30.22,30.22,0,0,0-7.4-4.24,23.44,23.44,0,0,0-9.06-1.75h0a19.08,19.08,0,0,0-14.39,6.24,21.74,21.74,0,0,0-5.9,15.54h0a21.1,21.1,0,0,0,6.24,15.55q6.23,6.24,15.88,6.23h0a21.28,21.28,0,0,0,14-4.65h0ZM1376,472.32h18.62v30.93h18.3v14.63h-18.3v55.7H1376v-55.7h-12.14V503.25H1376Zm74.67,101.26v-54h-12V503.08h12v-27.6q0-14.79,7.48-23.11t21.45-8.31h0a36,36,0,0,1,9,1.24,27.37,27.37,0,0,1,8.32,3.58h0L1489,462.35a9.79,9.79,0,0,0-7.48-3h0q-12.3,0-12.31,16.63h0v27.1h22v16.46h-22v54Zm123.06-70.33h18.63v70.33h-16.8L1574.36,561a27.77,27.77,0,0,1-10.81,11.38,31.32,31.32,0,0,1-16.3,4.24h0q-9.64,0-16-5.9a20.25,20.25,0,0,1-6.57-15.21h0V503.25h18.63v45.56q.49,11.64,11.47,11.8h0q8.14,0,13.56-7.48t5.4-18.79h0Zm57.71-59.36H1650V573.58H1631.4Zm119.23,8.65h81v18.62h-31.26V573.58h-19.29V471.16h-30.44Zm131.72,106.91q7.82,0,15.79-5.49h0l8.49,13.8a54.62,54.62,0,0,1-12.14,5.57,40.77,40.77,0,0,1-12.48,2.08h0q-12.13,0-21-4.82a33.56,33.56,0,0,1-13.64-13.3,39.22,39.22,0,0,1-4.74-19.46h0a35.43,35.43,0,0,1,5.32-19,38.64,38.64,0,0,1,14.47-13.72,40.49,40.49,0,0,1,20-5.07h0q14.3,0,23.78,8.4t12.64,23.69h0l-54.22,18.29a18.91,18.91,0,0,0,7.48,6.65,22.81,22.81,0,0,0,10.32,2.33Zm-1.5-44.73a18.53,18.53,0,0,0-14.39,6.15q-5.57,6.17-5.57,16h0a18.17,18.17,0,0,0,.17,2.82h0L1898,526.53a21,21,0,0,0-6.32-8.48q-4.15-3.33-10.81-3.33Zm126.06-11.47H2024v70.33h-18.62V563.44a38.94,38.94,0,0,1-10.31,8.23,29.82,29.82,0,0,1-15.14,3.74h0a38,38,0,0,1-18.12-4.24,31,31,0,0,1-12.64-12.55q-4.67-8.31-4.66-20.12h0a41,41,0,0,1,4.83-20.2,34.69,34.69,0,0,1,12.88-13.47,34.33,34.33,0,0,1,17.71-4.74h0q17.13,0,25.61,12.64h0Zm-21.79,56.86a19.87,19.87,0,0,0,20.29-15h0v-15.3a19.45,19.45,0,0,0-7.73-10.47,22.62,22.62,0,0,0-13.23-4h0a20.25,20.25,0,0,0-15,6.23q-6.15,6.24-6.16,15.88h0a22.66,22.66,0,0,0,11,19.62,20.6,20.6,0,0,0,10.81,3Zm136.2,7a35.37,35.37,0,0,1-11.39,6.07,42.81,42.81,0,0,1-13.55,2.24h0a45,45,0,0,1-20.54-4.49A32.12,32.12,0,0,1,2062.12,558a38.86,38.86,0,0,1-4.83-19.71h0a36.53,36.53,0,0,1,5.16-19.53,34.82,34.82,0,0,1,13.72-12.89,39,39,0,0,1,18.38-4.49h0q16.62,0,27.44,9h0l-9.32,12.14a30.22,30.22,0,0,0-7.4-4.24,23.44,23.44,0,0,0-9.06-1.75h0a19.06,19.06,0,0,0-14.39,6.24,21.74,21.74,0,0,0-5.9,15.54h0a21.1,21.1,0,0,0,6.24,15.55q6.23,6.24,15.88,6.23h0a21.28,21.28,0,0,0,14-4.65h0Zm78.33-66.84q9.81,0,16.38,5.9a20,20,0,0,1,6.73,15.21h0v52.21h-18.62V528a13.52,13.52,0,0,0-3.24-8.64q-2.91-3.17-8.73-3.33h0q-8.65,0-14.22,7.48t-5.57,18.79h0v31.26h-18.63V443.89H2172v71.33a29.87,29.87,0,0,1,11.06-10.89,32.52,32.52,0,0,1,16.55-4.07Zm95.95,59.19q7.83,0,15.8-5.49h0l8.48,13.8a54.21,54.21,0,0,1-12.14,5.57,40.66,40.66,0,0,1-12.47,2.08h0q-12.14,0-21-4.82a33.59,33.59,0,0,1-13.63-13.3,39.22,39.22,0,0,1-4.74-19.46h0a35.43,35.43,0,0,1,5.32-19,38.64,38.64,0,0,1,14.47-13.72,40.48,40.48,0,0,1,19.95-5.07h0q14.31,0,23.79,8.4T2332,532.18h0l-54.21,18.29a18.84,18.84,0,0,0,7.48,6.65,22.77,22.77,0,0,0,10.31,2.33Zm-1.49-44.73a18.53,18.53,0,0,0-14.39,6.15q-5.56,6.17-5.57,16h0a18.17,18.17,0,0,0,.17,2.82h0l36.92-13.13a21,21,0,0,0-6.32-8.48q-4.15-3.33-10.81-3.33Zm87.64,4.82a32.91,32.91,0,0,1,8-10.14,42.86,42.86,0,0,1,10.56-6.9,23.23,23.23,0,0,1,9.06-2.41h0l-.83,18.62a22.85,22.85,0,0,0-13.63,2.75,24.24,24.24,0,0,0-9.32,9.31,25.23,25.23,0,0,0-3.32,12.55h0v30.26h-18.63V503.25h16.8Zm130.38-67h19.46V555h59.7v18.62h-79.16ZM2660.3,559.45q7.82,0,15.8-5.49h0l8.48,13.8a54.41,54.41,0,0,1-12.14,5.57,40.66,40.66,0,0,1-12.47,2.08h0q-12.13,0-21-4.82a33.59,33.59,0,0,1-13.63-13.3,39.22,39.22,0,0,1-4.74-19.46h0a35.43,35.43,0,0,1,5.32-19,38.64,38.64,0,0,1,14.47-13.72,40.46,40.46,0,0,1,20-5.07h0q14.31,0,23.78,8.4t12.64,23.69h0l-54.21,18.29a18.84,18.84,0,0,0,7.48,6.65,22.77,22.77,0,0,0,10.31,2.33Zm-1.49-44.73a18.53,18.53,0,0,0-14.39,6.15q-5.57,6.17-5.57,16h0a18.17,18.17,0,0,0,.17,2.82h0l36.92-13.13a21.12,21.12,0,0,0-6.32-8.48q-4.17-3.33-10.81-3.33Zm126.05-11.47H2802v70.33h-18.62V563.44a38.94,38.94,0,0,1-10.31,8.23,29.82,29.82,0,0,1-15.14,3.74h0a38,38,0,0,1-18.12-4.24,30.92,30.92,0,0,1-12.64-12.55q-4.66-8.31-4.66-20.12h0a41.14,41.14,0,0,1,4.82-20.2,34.71,34.71,0,0,1,12.89-13.47,34.33,34.33,0,0,1,17.71-4.74h0q17.13,0,25.61,12.64h0Zm-21.78,56.86a19.87,19.87,0,0,0,20.29-15h0v-15.3a19.42,19.42,0,0,0-7.74-10.47,22.57,22.57,0,0,0-13.22-4h0a20.25,20.25,0,0,0-15,6.23q-6.16,6.24-6.16,15.88h0a22.66,22.66,0,0,0,11,19.62,20.58,20.58,0,0,0,10.81,3Zm96.12-40.57a33.06,33.06,0,0,1,8-10.14,42.86,42.86,0,0,1,10.56-6.9,23.27,23.27,0,0,1,9.07-2.41h0l-.84,18.62a22.85,22.85,0,0,0-13.63,2.75,24.24,24.24,0,0,0-9.32,9.31,25.23,25.23,0,0,0-3.32,12.55h0v30.26h-18.63V503.25h16.8Zm105.93-19.28q9.81,0,16.38,5.9a20,20,0,0,1,6.74,15.21h0v52.21h-18.63V528a13.52,13.52,0,0,0-3.24-8.64q-2.91-3.17-8.73-3.33h0q-8.64,0-14.22,7.4t-5.57,18.87h0v31.26h-18.63V503.25H2936l1.33,12.47a27.4,27.4,0,0,1,11.06-11.39,33.41,33.41,0,0,1,16.71-4.07Zm62,3h18.63v70.33h-18.63Zm-.83-25.11a9,9,0,0,1,3.33-7.06,11.07,11.07,0,0,1,7.48-2.91h0a10.6,10.6,0,0,1,7.24,2.91,9.14,9.14,0,0,1,3.24,7.06h0a8.93,8.93,0,0,1-3.24,7,10.79,10.79,0,0,1-7.24,2.82h0a11.27,11.27,0,0,1-7.48-2.82,8.83,8.83,0,0,1-3.33-7Zm104.27,22.12q9.81,0,16.38,5.9a20,20,0,0,1,6.74,15.21h0v52.21h-18.63V528a13.52,13.52,0,0,0-3.24-8.64q-2.91-3.17-8.73-3.33h0q-8.65,0-14.22,7.4t-5.57,18.87h0v31.26H3084.7V503.25h16.8l1.33,12.47a27.4,27.4,0,0,1,11.06-11.39,33.41,33.41,0,0,1,16.71-4.07Zm121.07,3h17.13v70.66a31.34,31.34,0,0,1-5.24,17.71,36,36,0,0,1-14.63,12.47,47.83,47.83,0,0,1-21.21,4.57h0q-11.47,0-19.12-3.57a67,67,0,0,1-15.47-10.39h0l11-12.8a46.29,46.29,0,0,0,10.81,7.73,27.49,27.49,0,0,0,12.47,2.74h0q10.31,0,16.46-5.07t6.32-13.72h0v-11.8a26.33,26.33,0,0,1-10.89,9.89,36.3,36.3,0,0,1-16.88,3.74h0a33.84,33.84,0,0,1-17.79-4.9,36,36,0,0,1-13-13.47,38.09,38.09,0,0,1-4.83-19h0a37.79,37.79,0,0,1,5.08-19.37A36.94,36.94,0,0,1,3205.36,505a34.83,34.83,0,0,1,17.87-4.91h0a40.61,40.61,0,0,1,16.05,3.08,25.47,25.47,0,0,1,10.89,8.06h0Zm-23.78,56.86a24.48,24.48,0,0,0,14.05-4,20.78,20.78,0,0,0,8.23-10.8h0V530a20.73,20.73,0,0,0-8.31-10.64,24.6,24.6,0,0,0-14-4h0a21.89,21.89,0,0,0-15.88,6.23,21.21,21.21,0,0,0-6.4,15.88h0a22.47,22.47,0,0,0,11,19.62,21.68,21.68,0,0,0,11.23,3Z" fill="#fff"/><path id="id-D6z1nYkh22" d="M836.64,143.2H970.32v37.73H922.08V341.56H883V180.93H836.64Zm247.15,74.92q16.71,0,27.89,10a33.3,33.3,0,0,1,11.46,25.34h0v88.13H1085.4V267.44q-.81-17.25-17.25-17.25h0q-12.93,0-20.75,12.13t-7.81,31.26h0v48h-37.74V128.91h36.93V242.38a46.62,46.62,0,0,1,17.92-17.79q11.46-6.47,27.09-6.47Zm136.91,94.6q11.33,0,23.45-7.82h0l16.71,28a102.86,102.86,0,0,1-20.49,8.63,71.45,71.45,0,0,1-20.48,3.23h0q-21,0-36.25-8a53.83,53.83,0,0,1-23-22.37q-7.81-14.42-7.82-33h0a59.21,59.21,0,0,1,9-31.81,64.85,64.85,0,0,1,24.66-23,70.55,70.55,0,0,1,34.23-8.49h0q25.33,0,41.64,14.82t21.16,42.32h0l-86.25,27.49q8.63,10,23.45,10Zm-3-65.22q-12.66,0-20.21,8.62T1190,279.3h0v2.43l51.75-17.52q-5.65-16.71-24-16.71Zm247.15-104.3q36.38,0,56.33,17.92T1541.15,210h0a81.2,81.2,0,0,1-6.87,33.28q-6.87,15.5-22.37,25.47t-40,10h-28v62.8h-39.08V143.2Zm6.74,97.56q11,0,17.78-5a29.21,29.21,0,0,0,9.71-11.72,32.17,32.17,0,0,0,3-12.94h0a37.66,37.66,0,0,0-6.2-20.34q-6.19-9.84-24-9.84h-28v59.83Zm157.12,72q11.33,0,23.45-7.82h0l16.71,28a103,103,0,0,1-20.48,8.63,71.57,71.57,0,0,1-20.49,3.23h0q-21,0-36.25-8a53.83,53.83,0,0,1-23-22.37q-7.82-14.42-7.82-33h0a59.21,59.21,0,0,1,9-31.81,64.85,64.85,0,0,1,24.66-23,70.55,70.55,0,0,1,34.23-8.49h0q25.34,0,41.64,14.82t21.16,42.32h0l-86.25,27.49q8.63,10,23.45,10Zm-3-65.22q-12.67,0-20.22,8.62T1598,279.3h0v2.43l51.74-17.52q-5.65-16.71-24-16.71Zm185.15-118.59h37.46V341.56h-37.73v-12.4q-20.48,15.63-43.66,15.63h0a55.71,55.71,0,0,1-29.38-7.81,54.11,54.11,0,0,1-20.34-22.37q-7.41-14.57-7.42-34.23h0q0-19.41,8-33.56a53.45,53.45,0,0,1,22-21.56q14-7.41,32.07-7.41h0a64.57,64.57,0,0,1,21.83,3.64,45.47,45.47,0,0,1,17.25,10.65h0ZM1779.4,313q11.32,0,18.87-4.45a33.66,33.66,0,0,0,12.39-13.34h0V266.36a26.89,26.89,0,0,0-11.59-13.74,36.82,36.82,0,0,0-19.67-5.12h0a30.25,30.25,0,0,0-22,9.16q-9.29,9.16-9.29,23.18h0a33.75,33.75,0,0,0,4.31,16.84,32,32,0,0,0,11.45,12,29.49,29.49,0,0,0,15.5,4.31Zm199.44-89.21h35V341.56h-37.74V327q-17,17.79-39.35,17.79h0q-26.13,0-42.44-15.63T1878,282.8h0q0-19.4,8-34.09a58.88,58.88,0,0,1,21.16-22.77,53.27,53.27,0,0,1,28.3-8.09h0q15.63,0,24.79,4.72a50.53,50.53,0,0,1,16.17,13.34h0Zm-31.26,90.29q19.67,0,28.56-17.79h0V267.44A27.41,27.41,0,0,0,1965,253.7a33.79,33.79,0,0,0-18.73-5.12h0a28.19,28.19,0,0,0-21.16,9.16q-8.76,9.17-8.76,23.18h0a33.85,33.85,0,0,0,4.31,16.84,32.11,32.11,0,0,0,11.46,12,29.49,29.49,0,0,0,15.5,4.31Zm202.13-90.29h34.77V341.56a51.52,51.52,0,0,1-9.57,30.32A64.46,64.46,0,0,1,2149,393.17a82.13,82.13,0,0,1-35.44,7.68h0a83.63,83.63,0,0,1-25.47-3.5,73.27,73.27,0,0,1-17.52-7.82,184,184,0,0,1-15.77-11.86h0l22.1-25.87a79.29,79.29,0,0,0,16,11.86q8,4.3,20.08,4.31h0q14.28,0,24-7.14t9.71-19.81h0V324.31q-5.4,9.17-16.58,14.82t-27.36,5.66h0a56.07,56.07,0,0,1-29.51-8.22,60.38,60.38,0,0,1-21.69-22.64,64.17,64.17,0,0,1-8.09-31.93h0a64.51,64.51,0,0,1,8.49-32.62,63,63,0,0,1,22.37-23.17,55.83,55.83,0,0,1,29.24-8.36h0A74.34,74.34,0,0,1,2129.5,222q11.31,4.17,17.25,10.91h0Zm-35.58,90.29q22.65,0,32.62-17.79h0V267.44a29.37,29.37,0,0,0-12.54-13.74,39,39,0,0,0-20.08-5.12h0a32,32,0,0,0-23.17,9.16q-9.43,9.17-9.44,23.18h0A32.29,32.29,0,0,0,2091,304.5a31.25,31.25,0,0,0,23.17,9.57Zm100-32.88a62.06,62.06,0,0,1,8.49-32.34,59.81,59.81,0,0,1,24-22.51q15.49-8.22,35.17-8.22h0q19.68,0,34.63,8.22a57.82,57.82,0,0,1,23,22.51q8.09,14.28,8.08,32.34h0a66,66,0,0,1-8.08,32.61,57.35,57.35,0,0,1-23,22.77q-15,8.22-35.17,8.22h0q-19.67,0-34.9-7.68a56.64,56.64,0,0,1-23.72-22q-8.49-14.29-8.49-34Zm38,.27q0,14,8.08,23.31a26,26,0,0,0,20.48,9.3h0q12.95,0,20.89-9.17t8-23.44h0q0-14.29-8-23.45t-20.89-9.16h0a26,26,0,0,0-20.48,9.29q-8.09,9.3-8.08,23.32Zm222.07-57.68H2509V341.56a51.52,51.52,0,0,1-9.57,30.32,64.46,64.46,0,0,1-25.87,21.29,82.1,82.1,0,0,1-35.44,7.68h0a83.72,83.72,0,0,1-25.47-3.5,73.27,73.27,0,0,1-17.52-7.82,182.54,182.54,0,0,1-15.76-11.86h0l22.1-25.87a79.25,79.25,0,0,0,16,11.86q8,4.3,20.08,4.31h0q14.28,0,24-7.14t9.7-19.81h0V324.31q-5.38,9.17-16.58,14.82t-27.35,5.66h0a56,56,0,0,1-29.51-8.22,60.33,60.33,0,0,1-21.7-22.64A64.16,64.16,0,0,1,2368,282h0a64.51,64.51,0,0,1,8.49-32.62,63,63,0,0,1,22.36-23.17,55.89,55.89,0,0,1,29.25-8.36h0A74.32,74.32,0,0,1,2454,222q11.33,4.17,17.25,10.91h0Zm-35.57,90.29q22.63,0,32.61-17.79h0V267.44a29.35,29.35,0,0,0-12.53-13.74,39,39,0,0,0-20.08-5.12h0a32,32,0,0,0-23.18,9.16q-9.43,9.17-9.43,23.18h0a32.28,32.28,0,0,0,9.43,23.58,31.27,31.27,0,0,0,23.18,9.57Zm197-90.29h34l-76,174.38h-36.39l28.3-62.8-54.44-111.58h42.31l31,69.53Zm298.62,101.34q-7.55,6.19-24,12.39a100.66,100.66,0,0,1-35.85,6.2h0q-31,0-53.9-13.47a91.29,91.29,0,0,1-35-36.25,104.76,104.76,0,0,1-12.13-50h0q0-29.91,12.13-53.36a89.61,89.61,0,0,1,34-36.52q21.83-13.06,50.4-13.07h0a110.58,110.58,0,0,1,33.42,4.85A116.81,116.81,0,0,1,2930.22,158h0l-15.36,36.92q-21.3-16.17-43.66-16.17h0a52,52,0,0,0-28.3,8.36,60.44,60.44,0,0,0-21,22.77,65.82,65.82,0,0,0-7.82,31.94h0q0,19.13,7.28,33.55a54.08,54.08,0,0,0,20.75,22.51q13.47,8.09,31.53,8.08h0a68.88,68.88,0,0,0,26.14-4.71q11.59-4.72,18.33-11.19h0ZM2958,281.19a62.06,62.06,0,0,1,8.49-32.34,59.74,59.74,0,0,1,24-22.51q15.49-8.22,35.17-8.22h0q19.66,0,34.63,8.22a57.86,57.86,0,0,1,23,22.51q8.09,14.28,8.09,32.34h0a66,66,0,0,1-8.09,32.61,57.39,57.39,0,0,1-23,22.77q-15,8.22-35.17,8.22h0q-19.68,0-34.9-7.68a56.58,56.58,0,0,1-23.72-22q-8.49-14.29-8.49-34Zm38,.27q0,14,8.09,23.31a26,26,0,0,0,20.48,9.3h0q12.93,0,20.89-9.17t7.95-23.44h0q0-14.29-7.95-23.45t-20.89-9.16h0a25.94,25.94,0,0,0-20.48,9.29q-8.09,9.3-8.09,23.32Zm280.29-63.61q17.25,0,27.63,9.7t10.91,25.61h0v88.4h-37.46V268.79q-.54-8.9-3-13.34t-9.44-5h0q-13.2,0-20.61,12.8t-7.41,30.05h0v48.25h-37.74V268.79q-.54-8.9-3.23-13.34t-10-5h0q-12.67,0-19.95,12.8t-7.27,29.52h0v48.78H3121V223.78h34.23l2.7,18.6q14.28-24.52,42.58-24.53h0q14.28,0,23.58,5.8a29.71,29.71,0,0,1,12.81,17.11h0a59.56,59.56,0,0,1,17.92-16.71,41.27,41.27,0,0,1,21.42-6.2Zm232.59,0q17.25,0,27.63,9.7t10.91,25.61h0v88.4h-37.46V268.79q-.54-8.9-3-13.34t-9.44-5h0q-13.2,0-20.61,12.8t-7.42,30.05h0v48.25h-37.73V268.79q-.54-8.9-3.23-13.34t-10-5h0q-12.67,0-19.95,12.8t-7.27,29.52h0v48.78h-37.74V223.78h34.23l2.7,18.6q14.28-24.52,42.58-24.53h0q14.28,0,23.58,5.8a29.65,29.65,0,0,1,12.8,17.11h0a59.71,59.71,0,0,1,17.93-16.71,41.27,41.27,0,0,1,21.42-6.2Zm158.21,5.93h37.73V341.56h-34.23l-2.69-18.87a46.28,46.28,0,0,1-17.39,17.92q-11.17,6.61-26.27,6.61h0q-16.17,0-27-10t-11.05-25.34h0V223.78H3624V297.9q.81,17.25,15.9,17.25h0q12.39,0,19.81-12.13t7.41-31.27h0Zm158.47-5.66q16.71,0,27.9,10a33.32,33.32,0,0,1,11.45,25.34h0v88.13h-37.73V267.44q-.81-17.25-17.25-17.25h0q-12.93,0-20.75,12.13t-7.82,31.26h0v48h-37.73V223.78h34.23l2.69,18.87a46.19,46.19,0,0,1,17.93-18.06q11.45-6.47,27.08-6.47Zm78.16,5.66h37.73V341.56H3903.7Zm-.81-41.77a17.34,17.34,0,0,1,6.34-13.61,21.27,21.27,0,0,1,14.41-5.53h0a20.49,20.49,0,0,1,14,5.53,17.53,17.53,0,0,1,6.2,13.61h0a17.12,17.12,0,0,1-6.2,13.47,20.77,20.77,0,0,1-14,5.39h0a21.57,21.57,0,0,1-14.41-5.39,16.94,16.94,0,0,1-6.34-13.47Zm88.4-10H4029v51.21h28.57v29.38H4029v88.94h-37.73V252.62H3973V223.24h18.32Zm183,51.75h34l-76,174.38h-36.39l28.3-62.8-54.44-111.58H4112l31,69.53Z" fill="#fff"/><path d="M4282.12,93.31a51,51,0,1,1-51,51,51.06,51.06,0,0,1,51-51m0-9.65a60.65,60.65,0,1,0,60.65,60.65,60.64,60.64,0,0,0-60.65-60.65Z" fill="#fff"/><path d="M4293.58,176.21l-14.71-26h-6.31v26h-13.38v-66.7h25a29.35,29.35,0,0,1,13.19,2.72,19.09,19.09,0,0,1,8.17,7.36A20.15,20.15,0,0,1,4308.3,130a19.89,19.89,0,0,1-3.82,11.89q-3.82,5.31-11.38,7.31l16,27.05Zm-21-36h11.18c3.63,0,6.34-.87,8.12-2.63a9.74,9.74,0,0,0,2.68-7.31,9.29,9.29,0,0,0-2.68-7.11q-2.67-2.53-8.12-2.54h-11.18Z" fill="#fff"/></g></svg>