<?xml version="1.0" encoding="UTF-8"?>
<svg id="Orgs" xmlns="http://www.w3.org/2000/svg" viewBox="0 0 2416.28 427.22">
  <defs>
    <style>
      .cls-1 {
        fill: #fff;
      }
    </style>
  </defs>
  <g>
    <path class="cls-1" d="M175.47,0c1.03.59,2.7.27,3.97.31,55.91,1.71,109.44,35.77,137.27,83.52,51.99,89.24,12.76,203.41-82.04,242.23-96.44,39.48-205.55-17.18-229.03-117.93C-18.39,105.02,56.52,5.71,161.74.31c1.17-.06,2.36.05,3.53.01l.74-.32h9.46ZM162.29,7.11C85.58,10.55,20.76,69.64,9.82,145.46c-15.42,106.81,74.31,198.28,181.33,184.99,71.32-8.86,129.17-65.32,139.87-136.3C346.44,91.85,265.31,2.49,162.29,7.11Z"/>
    <path class="cls-1" d="M0,387.55c2.5-.69,4.99-1.46,7.5-2.11,21.72-5.68,44.38-8,66.82-7.06,3.18.13,6.4.78,9.6.62v-19.23c53.49-9.45,109.07-10.46,162.76-1.78,3.58.58,7.54,1,10.88,2.24v18.77c3.1.14,6.22-.5,9.3-.62,20.53-.83,41.2,1,61.2,5.65,4.2.98,8.31,2.27,12.51,3.21v39.67c-8.64-3.08-17.48-5.72-26.49-7.53-21.01-4.24-42.74-4.76-63.94-1.57-4.57.69-9.08,1.79-13.63,2.39v-21.06c-4.56-.4-9.07-1.25-13.62-1.79-39.29-4.65-79.1-3.83-118.22,1.79v21.06c-4.55-.6-9.06-1.7-13.63-2.39-26.37-3.96-53.27-2.2-78.84,5.29-3.91,1.15-7.95,2.3-11.6,4.12h-.61v-39.67ZM253.29,363.45c-48.22-8.5-98.04-9.48-146.59-3.01-6.29.84-12.57,1.89-18.81,3.01v34.48c49.97-9.56,101.8-10.16,152.08-2.39,4.46.69,8.91,1.51,13.33,2.39v-34.48ZM4.58,390.6v30.52c25.25-8.46,52.63-11.38,79.19-8.54,5.06.54,10.03,1.56,15.04,2.36.29.05.99.25.99-.07-1.68-7.35-9.18-10.29-15.74-12.03l-.27-19.26-.37-.24c-17.48-1.6-35.06-1.06-52.4,1.54-8.93,1.34-17.75,3.36-26.45,5.75ZM336.61,390.6c-20.45-5.81-41.76-8.41-63.03-8.25-1.98.45-15.64.44-16.18,1.22l-.27,19.26c-6.62,1.79-14.17,4.71-15.73,12.19,31.62-5.99,64.73-4.21,95.21,6.11v-30.52Z"/>
    <path class="cls-1" d="M165.65,58.38c87.54-4.06,145.37,91.85,100.4,167.53-40.45,68.09-137.64,73.27-184.82,9.46-52.97-71.63-3.99-172.9,84.41-177ZM278.62,169.36c.44-37.28-19.61-72.46-50.99-91.98-38.52-23.96-88.21-21.24-123.84,6.72-26.03,20.42-41.61,51.94-41.54,85.26h8.54c.08,0,.2-.88.6-1.38,1.96-2.42,5.56-.54,5.8-.76-2.4-9.66,2.49-13.67,10.22-6.71,1.57-2.49,4.56-7.95,8.11-6.88,2.64.8,5.8,7.04,6.96,9.52.25.53.9,2.7,1.02,2.8.22.18.91-.07,1.49.5.45.43,1.27,2.92,1.66,2.92h11.75c-.17-4.18-1.04-8.33-.47-12.53.24-.39,2.15.03,2.67.1,5.22.79,10.18,3.05,14.28,6.32-.06-4.32-.07-8.73,1.41-12.84,8.23.68,17.32,2.86,23.76,8.27,1.63,1.37,2.86,3.15,4.43,4.57v-22.28c-3.31-.94-6.03-3.66-6.88-7l-.14-18.78c4.71-5.26,15.16-5.54,19.54.32l-.63,7.6c-.18,6.97,1.9,14.94-6.4,17.86v20.75c6.98-7.5,16.94-10.59,26.98-11.31,1.51,4.12,1.48,8.51,1.41,12.84,4.16-3.24,9.02-5.52,14.28-6.32.52-.08,2.43-.49,2.67-.1.53,4.2-.2,8.36-.47,12.53h14.95c-3.03-6.24-5.52-14.01-2.19-20.65.52-1.03,3.11-4.53,4.19-4.69,1.34-.19,2.56,1.25,3.8,1.53.64-4.07,2.71-8.36,6-10.93.8-.63,3.45-2.29,4.35-2.37,1.2-.1,3.62,4.76,4.49,5.65,2.17-.89,5.1-3.08,7.62-3.02.67.02,1.34,2.64,1.34,3.19v4.73c1.43-.17,5.9-1.58,6.95-.54.87.87-.04,5.14-.54,6.34h.92c-1.42,7.94-5.71,15.05-11.29,20.75h23.19ZM173.54,137.52c.92-.88,2.05-3.07,2.21-4.35.24-1.84.3-10.14-.12-11.73-.2-.76-1.04-1.96-1.84-2.14-1.54,0-3.52,6.67-5.04,5.98-1.25-.57-.32-3.53-.29-4.58.04-1.19.34-4.76-1.64-4.1-.85.29-2.13,4.24-2.95,5.3-1.17,1.53-3.11,2.17-4.53,3.41.17,4.68-1.52,9.66,2.85,12.92,3.15,2.35,8.51,1.98,11.34-.71ZM238.65,152.58c.46.49,2.52-2.65,2.89-3.05,2.58-2.82,5.44-5.4,8.56-7.61.33-.7-3.51-7.4-4.34-7.61-1.17-.3-4.21,2.54-4.98,3.47-1.55,1.86-4.18,7.43-3.95,9.76.1,1.02,2.22,3.53,1.83,5.04ZM257.56,144.04c.54-.63.36-6.12-.29-7.19-.62-.47-5.63,2.1-5.97,2.93-.73,1.79,1.41.88,2.15.88,2.16-.01,2.47,1.59,3.44,2.99.14.2.23.92.68.4ZM248.11,158.38c-.27-.3,3.45-4.7,3.91-5.4,1.21-1.86,3.19-5.32,3.09-7.52-.04-.81-.51-2.99-1.41-3.21-1.54-.38-6.8,4.11-8.03,5.29-2.96,2.83-5.4,6.3-7.78,9.62-.43-3.14-.78-6.53-2.77-9.13-2.16-2.81-3.34-2.79-5.26.18-5.72,8.83.92,20.04,6.01,27.49-3.61,25.18-13.77,49.53-25.12,72.1-.74,1.47-6.69,11.95-6.26,12.5,3.13-1.36,4.95-5.31,6.56-8.23,5.48-9.93,10.4-21.5,14.63-32.06,5.58-13.93,11.1-28.65,12.81-43.65,10.65-2.69,19.58-9.84,24.03-19.92.73-1.64,1.9-3.96,1.62-5.7-5.81,1.47-11.22,4.1-16.01,7.63ZM264.89,143.73c-.42-.42-5.5.77-6.03,1.29-.97.97-.61,4.38-.68,5.73.21.22,5.33-1.5,5.64-1.84.89-1,1.2-3.86,1.08-5.18ZM162.96,164.48c-5.71-8.12-16.06-11.5-25.63-12.2-.74,5.33-1.56,11.04.2,16.19l8.94,3.64c2.78-5.75,10.79-6.68,16.48-7.63ZM195.91,152.29c-7.32.48-15.79,2.83-21.49,7.62-.45.38-4.34,4.12-3.82,4.57,4.56.31,11.64,1.69,15.1,4.89.55.5,1.58,2.35,1.86,2.41.43.1,6.87-3.4,8.18-3.36.22-.1.35-.25.43-.48.28-.8.64-4.98.67-6.04.09-3.17-.51-6.49-.94-9.61ZM97.65,175.77c.35-1.49.8-3.11,1.48-4.48.46-.93,3.05-4.11,3.05-4.46,0-1.05-3.12-6.83-3.9-8-.92-1.37-3.28-5.27-4.65-2.8-1.83,3.3-1.96,9.39-2.08,13.12,2.51,1.76,4.21,4.29,6.11,6.62ZM84.83,173.33l1.8-11.09c-1.56-1.39-6.01-5.47-7.72-2.62-.97,1.62-.5,6.76.27,8.52.6,1.37,4.54,3.71,5.65,5.18ZM135.5,167.84c0-2.84-3.63-4.91-5.9-6.15-2.97-1.63-6.58-2.83-9.97-3-.51,9.38,1.98,23.9,12.37,27.16.45.14.5,0,.42-.41-1.06-5.25-1.18-8.36.19-13.62.39-1.52.92-4.61,2.9-3.97ZM213.62,158.68c-4.6.28-9.26,2.18-12.92,4.94-1.63,1.23-2.9,1.96-2.95,4.22.42.02.93-.09,1.32.05.89.31,2.12,6.01,2.3,7.16.55,3.67.49,7.22-.57,10.79,11.15-3.37,13.15-17.13,12.82-27.16ZM155.3,179.1c.15-.1,1.2-2.52,1.61-3.12,1.31-1.9,7.51-8.86,9.57-9.06,1.55-.15,7.19,5.21,8.37,6.57,1.43,1.67,2.48,3.6,3.82,5.33l6.5-5.64c-1.56-3.23-5.72-4.95-9.03-5.87-6.76-1.89-14.44-1.79-21.13.37-2.65.85-6.77,2.65-7.29,5.61,1.76.92,3.37,2.23,4.85,3.54.68.6,2.05,2.71,2.71,2.26ZM98.54,180.93c-1.56,1.04-1.78-2.84-2.26-3.94-1.47-3.35-5.79-6.51-8.54-8.84-1.57,3.05-1.11,7.13-.72,10.48.13,1.11,1.36,5.29.58,5.85-1.01.72-1.84-1.82-2.44-2.47-1.47-1.6-4.45-2.43-6.56-2.59-4.75-.35-4.34.3-2.35,3.88,5.4,9.71,20.67,21.33,27.78,6.62,3.21-6.64,3.71-15.29-.12-21.78-2.44,1.45-4.05,5.2-4.63,7.87-.19.88-.49,4.76-.73,4.91ZM166.52,168.19c-8.4,5.33-14.18,15.24-12.68,25.4,2.33,15.86,23.8,14.05,25-1.18.79-9.99-4.06-18.88-12.32-24.22ZM85.45,180.04c.18-.26-.26-3.5-.46-3.96-.7-1.57-7.41-7.11-9.28-7.5-6.4-1.35-2.62,6.66-.63,9.17,3.66.21,7.29-.05,10.37,2.29ZM157.16,203.54c-5.26-5.08-5.66-12.42-4.12-19.22.22-.97,1.28-2.86.93-3.65-.15-.33-2.87-2.92-3.38-3.36-4.28-3.72-10.07-6.72-15.7-7.63-1.71,5.71-2.46,11.77-.25,17.46,3.47,8.93,13.67,14.2,22.51,16.4ZM198.35,169.68c-7.25,1.18-13.83,5.39-18.77,10.68.59,2.61,1.71,5.1,1.96,7.81.5,5.39-.29,10.4-3.62,14.76,7.12-1.82,15.24-6.27,19.17-12.72s3.42-13.64,1.27-20.53ZM236.82,211.17c.77.77,4.01-2.23,4.58-2.89,2.07-2.39,2.76-6.88,6.72-6.13,1.5.28,2.98,1.42,3.59,2.83,1.55,3.6.98,9.5,2.53,13.34.79,1.27,2.02-.43,2.71-1.2,6.07-6.78,10.03-19.92,8.41-28.84-.94-5.19-3.51-12.94-9.01-5.93-2.6,3.32-1.64,5.43-2.91,8.38-1.85,4.31-9.05-3.71-9.61-3.05.27,4.43-2.33,7.25-4.02,10.78-1.85,3.84-3.26,8.43-3,12.72ZM114.13,189.81v5.34c0,4.61,4.1,10.67,7.71,13.35.97.72,4.91,2.91,5.93,2.92.63,0,2.71-2.77,3.45-3.46,3.79-3.54,8.3-6.1,13.13-7.93-1.81-1-3.67-2.26-5.2-3.66-1.99-1.83-3.22-4.01-5.1-5.88-6.6-1.03-13.26-1.15-19.92-.68ZM219.11,189.81c-6.66-.47-13.32-.34-19.92.68-2.93,3.72-5.97,7.36-10.29,9.55,4.84,1.79,9.34,4.41,13.13,7.93.7.65,2.93,3.46,3.45,3.45,1.76-.03,7.13-3.61,8.45-4.98,2.05-2.12,5.19-8.1,5.19-10.98v-5.65ZM154.72,205.06c.31-.41-4.15-1.82-4.57-1.98-1.65-.65-2.7-1.88-4.59-1.54-4.71.85-12.38,6.22-15.4,9.94-1.55,1.91-1.03,2.25.47,4.12,6.33,7.89,15.41,6.92,24.41,5.04-3.38-4.99-8.79-12.36-.31-15.56ZM178.22,220.63c9.08,1.91,18.24,2.84,24.54-5.21,1.44-1.85,1.84-2.09.33-3.94-3.77-4.63-10.81-9.14-16.71-10.01l-7.86,3.45c8.45,3.43,3.19,10.58-.31,15.71ZM158.92,205.13c-2.67.37-7.82,2.79-7.19,6.12.6,3.15,4.94,9.11,7.42,11.21,1.43,1.21,5.37,3.61,7.15,3.85,3.59.48,10.03-5.73,11.92-8.56,2.93-4.38,5.69-8.65-.51-11.41-3.78-1.68-3.82-.33-7.31.23-1.98.32-4.64.33-6.6-.05-1.59-.31-3.58-1.57-4.88-1.39ZM231.62,220.63c-.19-.13-.64.03-.74.32-5.67,13.56-12.88,26.39-19.4,39.52-.1,1.51,1.48,1.17,2.43.57,2.47-1.56,7.13-11.13,8.72-14.17,3.8-7.29,7.21-14.79,10.78-22.2.07-.43-1.6-3.92-1.79-4.05ZM99.11,226.2c-.84-.88-2.23-.1-2,1.53.2,1.39,1.68,4.49,2.32,5.93,3.28,7.41,8.06,14.23,12.86,20.7.76.89,2.28.54,2.38-.67.05-.58-3.21-4.58-3.84-5.5-3.42-4.99-6.72-10.25-9.27-15.76-.51-1.1-2.06-5.82-2.46-6.24ZM168.15,227.65c-1.11.38-1.94.38-3.05,0v30.06c0,2.15,1.77,6.14,3.1,7.88.65.85,4.99,5.5,5.7,3.36.75-2.27-2.38-3.81-3.56-5.5-.76-1.09-2.19-4.52-2.19-5.74v-30.06ZM131.83,237.11h5.04c.3,0,.79.96.16,1.38-.29.2-5.32.61-6.93,1.31-2.4,1.04-5.46,4.44-1.79,5.88.96.38,5.21.63,6.45.6,3.37-.06,8.63-.87,12.15-1.27,4.9-.57,10.22-4.46,8.53-9.98-1.31-4.29-5.25.16-7.42.72-5.66,1.48-3.95-6.1-7.77-5.94-2.86.12-7.67,4.47-8.42,7.3ZM183.4,267.93c4.34-9.77,7.39-20.32,7.33-31.13-8.26,6.33-12.24,21.23-7.96,30.7.16.36-.14.55.63.43ZM136.02,252.71c-2.23.55.3,3.1.83,3.95.88,1.42,1.96,3.21,2.58,4.75.37.93.6,2.81.81,3.16.7,1.19,2.24.25,2.32-1.06.12-1.85-2.88-7.18-4.05-8.8-.55-.75-1.4-2.26-2.47-2Z"/>
    <path class="cls-1" d="M76.6,67.74c7.27-2.29,14.07,6.52,9.15,12.66-2.59,3.23-6.55,6.12-9.3,9.31l-20.27-20.86c2.98-2.31,5.51-5.83,8.38-8.12,2.33-1.86,4.12-2.65,7.08-1.6,3.29,1.18,6.06,5.13,4.97,8.6ZM68.89,63.83c-.76.16-6.02,4.89-6.02,5.29l4.72,4.72c1.25-1.61,5.14-4.27,5.34-6.28.18-1.9-2.13-4.13-4.05-3.73ZM77.75,71.77c-2.25.34-4.92,4.16-6.62,5.63l5.06,5.28c.35.06,4.68-4.22,5.15-4.85,2.08-2.8-.7-6.48-3.59-6.05Z"/>
    <path class="cls-1" d="M46.38,180.96c.17,1.7.85,3.4.54,5.12l-16.41,11.96,18.31-2.74.61,4.27-28.65,4.55c-.23-.14-.88-4.24-.49-4.85l16.93-12.2-18.48,2.97c-.63-.12-.67-3.71-1.06-4.5l28.69-4.58Z"/>
    <path class="cls-1" d="M66.83,101.93l-2.35,4.27-20.84-.92,16.17,9.16-2.32,3.94-25.14-14.19,2.34-4.11,21.16,1.23-15.89-9.29c-.82-.54,1.51-4.07,1.73-4.12l25.15,14.02Z"/>
    <path class="cls-1" d="M175.47,18.92l.61,28.99h-5.19l-9.76-18,.58,17.81c-.32.97-3.62.32-4.55.5l-.61-28.99h4.88l9.76,18.61-.3-18.92h4.58Z"/>
    <path class="cls-1" d="M90.56,40.96c11.74-1.85,23.19,17.45,14.28,25.57-12.6,11.47-29.04-11.99-20.6-21.82,1.31-1.53,4.33-3.44,6.32-3.75ZM92.1,45.84c-2.29.23-4.77,2.4-5.1,4.69-.83,5.74,6.2,16.35,12.79,13.4,7.71-3.45-.67-18.79-7.7-18.09Z"/>
    <path class="cls-1" d="M292.28,94.98c4.21-.53,8.07.33,10.75,3.74,11.86,15.11-21.02,31.65-26.25,13.74-2.59-8.86,7.73-16.5,15.5-17.48ZM293.51,99.87c-5.18.48-12.89,5.24-11.77,11.29,1.65,8.91,20.33,1.54,18.71-6.51-.66-3.3-3.73-5.08-6.95-4.78Z"/>
    <path class="cls-1" d="M46.08,175.77l-28.98-1.24c.49-4.14-.5-10.29,1.39-13.99,3.34-6.55,16.94-6.25,22.61-3.44,7.79,3.86,4.75,11.64,4.98,18.67ZM22.28,165.55c-.16,1.38.12,3.01,0,4.42l18.72.62c.71-.17.59-4.81.48-5.63-.51-3.75-4.95-4.52-8.06-4.75-4.45-.34-10.48-.28-11.13,5.34Z"/>
    <path class="cls-1" d="M148.31,312.79c1.08.15,4.39-.76,5.15-.26.43.28,0,2.92,2.35,3.3,4.37.7,5.22-3.98,5.63-7.3-5.07,4.51-12.22.21-12.81-5.95-1.35-14.02,17.96-16.26,18.93-.32.27,4.44-.67,11.79-3.73,15.22-4.89,5.48-15.71,3.69-15.52-4.68ZM157.39,295.77c-4.47.4-4.81,10.88.54,10.63s4.72-11.1-.54-10.63Z"/>
    <path class="cls-1" d="M210.82,284.79c7.93-.29,12.95,14.18,12.56,20.52-.52,8.46-10.4,11.37-15.69,4.71-5.16-6.51-9.96-24.76,3.12-25.23ZM209.88,289.66c-3.59.7-1.93,5.77-1.29,8.17.73,2.75,4.03,14.46,8.55,10.39,1.83-1.65.04-7.02-.62-9.16-.83-2.71-3.04-10.1-6.64-9.4Z"/>
    <path class="cls-1" d="M292.2,180.35c-.4-.12-.43-.69-.47-1.05-.35-2.97-.11-8.18,0-11.32.07-1.93.44-3.99.5-5.94l28.82.61-.35,17.2c-.4,1.21-3.72-.17-4.84.2v-12.82h-5.95s-.46.43-.46.46v11.44h-4.88v-11.9l-7.63-.31-.3,13.43c-1.16-.22-3.45.3-4.43,0Z"/>
    <path class="cls-1" d="M279.02,76.99c-2.25,1.9,1.79,8.33,2.05,11.05.71,7.59-8.22,13.28-14.49,8.38-3.62-2.83-5.64-7.18-3.75-11.67.36-.87,2.63-4.55,3.59-4.05.23.12,2.67,2.64,2.72,2.83.28,1.1-3.33,3.23-1.08,7.15,1.22,2.13,3.99,3.3,6.15,1.79,3.27-2.29-.74-7.26-1.24-10.36-1.6-9.96,10.51-14.62,15.79-5.41,2.39,4.18,1.61,8.44-2.34,11.2-.33-.97-2.71-2.62-2.88-3.27-.18-.7,1.39-2.08,1.48-3.33.19-2.53-3.59-6.33-6-4.3Z"/>
    <path class="cls-1" d="M154.11,48.52c-1.08-.29-4.15,1.14-4.88.78-.89-.44-2.37-4.6-3.2-5.36-.43-.39-.66-.32-1.18-.28-2.56.17-5.75,1.61-8.41,1.84l-.47,6.7-5.05,1.2,3.04-30.38c1.02.02,4.5-1.37,5.04-.76l15.11,26.25ZM143.12,39.06l-5.49-9.46-.61,10.68,6.1-1.22Z"/>
    <path class="cls-1" d="M234.06,65.91c-.56-.47-4.39-1.97-4.52-2.18-.55-.89.87-5.63.73-6.97-.24-.38-7.43-3.86-8.04-3.92-1.56-.16-3.9,4.42-5.12,4.54-1.01.1-3.33-1.66-4.42-2l21.2-21.81c.85.43,4.4,1.71,4.42,2.56l-4.26,29.78ZM231.32,51.57l1.52-10.68-7.31,7.78,5.79,2.89Z"/>
    <path class="cls-1" d="M56.15,121.15l-1.57,4.84-6.93.08c-.54,2.5-2.22,5.46-2.66,7.88-.08.45-.28.76.01,1.23.43.69,4.76,2.83,5,3.57.41,1.21-1.24,3.6-1.18,4.98l-24.58-17.7c-.28-.45,1.01-4.25,1.54-4.88h30.36ZM42.42,125.73h-10.68l8.69,6.11,1.99-6.11Z"/>
    <path class="cls-1" d="M185.55,314.62l10.68-1.22c-.36,1.06,1.04,4.76-.2,5.15l-18.42,2.18c-.35-3.18.96-5.93,2.62-8.52,1.89-2.95,7.79-8.62,8.29-11.54.65-3.83-1.91-6.79-5.63-4.72-2.2,1.22-1.44,4.16-1.61,4.34-.19.2-4.62-.11-5.49.3-1.28-13.84,22.68-13.08,17.84,1.82-1.49,4.59-5.8,7.22-7.73,10.89-.23.43-.43.82-.35,1.33Z"/>
    <path class="cls-1" d="M307.61,137.33c5.04-1.65,4.47-8.8-.84-9.7-3.86-.65-14.29,1.91-15.01,6.51-.78,4.96,3.1,6.29,7.3,5.93-.23,1.28-.04,3.55-.29,4.68-.18.79-3.65.26-4.36.12-2.94-.56-5.45-2.08-6.79-4.81-6.11-12.47,13.17-20.36,22.72-16.32,5.67,2.4,7.81,10.1,3.96,14.94-.61.77-3.43,3.32-4.27,2.77-.43-.28-1.97-3.46-2.43-4.13Z"/>
    <path class="cls-1" d="M216.06,34.48h-4.88c.18-6.44-6.59-8.33-10.02-2.84-2.03,3.26-4.04,11.23-1.44,14.45,3.24,4,7.61,1.04,9.17-2.76,3.27,2.26,5.21,2.07,2.23,5.9-2.78,3.57-6.7,4.74-11.02,3.19-10.35-3.72-7.01-21.23-.06-26.78s17.22-.2,16.01,8.84Z"/>
    <path class="cls-1" d="M315.24,212.39c.21.3-1.43,5.12-1.82,5.34l-12.52,1.37,8.71,8.86.09.39-1.79,4.79c-.36.27-1.15-.67-1.37-.91-3.86-4.17-7.52-8.55-11.45-12.65-1.33-.9-11.41-3.86-11.51-4.58l1.64-4.16,11.56,4.01,18.45-2.46Z"/>
    <path class="cls-1" d="M312.23,205.64c-.47-.73,1.09-5.73.88-6.98l-23.49-3.97.6-4.88,23.8,4.28,1.22-7.02c.88.26,4.07.41,4.59.75.78.51-2.78,16.34-2.91,18.49-.24.38-4.57-.46-4.69-.66Z"/>
    <path class="cls-1" d="M121.16,57.68l-8.71-21.97c-.14-.27-.26-.3-.55-.27-1.15.11-5.17,2.58-6.13,2.43-.42-1.11-2.42-4.1-1.19-4.85l16.87-6.77,1.7,4.59c-.42.7-4.8,1.8-5.79,2.46-.26.17-.51.29-.44.67l8.76,21.74-4.53,1.98Z"/>
    <path class="cls-1" d="M252.68,73.56c.28.42-2.49,3.58-2.89,4.26l-13.25-9.94,16.95-22.99c.28-.07,3.49,2.17,3.65,2.42.15.23.16.39.02.62l-13.91,18.76,9.44,6.87Z"/>
    <path class="cls-1" d="M139.12,288.11l-7.6,27.74c-.19.19-4.95-1.19-5.19-1.38-.81-.62,5.08-17.32,5.19-19.68-2.5.84-4.98,1.57-7.63,1.83-.17-.2.92-4.27,1.2-4.67.19-.28,5.13-1.38,6.33-1.99.74-.37,1.91-1.18,2.55-1.72.4-.34,1-1.39,1.09-1.4.62-.05,3.11,1.27,4.06,1.27Z"/>
    <path class="cls-1" d="M319.19,148.33c-.1,1.01,1.21,4.48.12,4.82l-28.17,3.7-.61-4.86,28.66-3.66Z"/>
    <polygon class="cls-1" points="51.26 204.77 52.49 209.34 24.72 217.89 23.51 213.01 51.26 204.77"/>
    <path class="cls-1" d="M48.51,146.49c.25.26-.51,4.85-.75,4.87l-28.49-5.37c.5-.94.31-4.38,1.34-4.43l27.91,4.93Z"/>
    <polygon class="cls-1" points="189.82 20.45 186.46 49.13 181.62 48.48 184.95 19.85 189.82 20.45"/>
    <path class="cls-1" d="M121.46,365.58c-.3,2.55,3.4,20.22,2.71,21.03-.13.16-2.58.47-2.71.33l-2.44-16.78-3.42,17.18c-.33.75-2.52,1.25-2.96.33l-7.96-15.38,2.16,16.6c-.09.33-2.56.66-2.76.47l-2.72-21.01,4.2-.61,8.12,16.75,3.86-18.11c.19-.62,3.78-.96,3.92-.81Z"/>
    <path class="cls-1" d="M140.99,378.09l-11.31,1.06c-.56.32.51,2.48.8,2.89,1.36,1.96,4.28,2.53,6.23,1.08.88-.66,1.28-2.47,1.84-2.76.44-.23,1.79.41,2.44.17-1.62,8.01-13.3,7.41-14.31-1.1-1.44-12.16,13.91-12.88,14.31-1.34ZM137.94,376.26c-.68-5.8-8.74-5.21-8.54.61l8.54-.61Z"/>
    <path class="cls-1" d="M146.18,363.44l.31,7.33c3.45-3.17,9.41-2.88,10.07,2.59.34,2.84.21,5.99.3,8.85.08,2.36.97,2.4-2.44,2.29-.56-3.61.11-7.83-.74-11.32-.71-2.91-4.89-2.54-6.28-.44-1.59,2.4.25,11.51-.3,12.06h-2.75s-.91-20.6-.91-20.6c.19-1.24,1.81-.65,2.75-.76Z"/>
    <path class="cls-1" d="M221.53,365.91l-.89,7.3c2.05-1.85,6.06-1.84,8.09,0,3.14,2.83-.3,11.1.15,14.96-.72-.09-2.43.35-2.71-.5-.29-2.84,2.3-10.59.44-12.64-1.43-1.58-4.64-1.03-5.81.65-1.35,1.94-1.5,10.8-2.03,11.24-.26.22-2.31-.02-2.42-.47l2.45-20.85,2.72.33Z"/>
    <polygon class="cls-1" points="182.49 362.83 181.88 381.76 192.26 382.06 192.26 384.81 178.83 384.2 179.75 362.83 182.49 362.83"/>
    <path class="cls-1" d="M214.84,375.65c-3.32.72-2.31-1.34-3.95-2.61-2.2-1.69-5.04-.43-6.05,1.91-1.66,3.85-.91,9.99,4.6,8.87,2.33-.48,2.13-2.85,2.69-3.26.24-.18,2.6,0,2.29,1.52-.47,2.32-3.55,4.24-5.83,4.28-6.97.12-8.85-7.75-5.96-13s12.17-4.13,12.22,2.3Z"/>
    <path class="cls-1" d="M168.72,368.98c.2.32-.47,2.62-.58,2.71-.15.12-1.82-1.37-3.51,0-2.69,2.18-.57,12.03-1.06,12.52h-2.75c.54-2.41-1.1-13.95-.17-15.28.36-.51,1.69-.23,2.31-.29l.15,2.14c1.27-2.31,3.18-3.19,5.61-1.79Z"/>
    <path class="cls-1" d="M198.67,369.55l-.92,15.56-2.74-.31.96-14.75c.28-.85,1.96-.41,2.71-.5Z"/>
    <path class="cls-1" d="M199.28,363.75c-.42.58-.19,2.94-.3,3.05s-2.27-.08-2.75,0c-.11-.11.21-2.93.32-3.04.17-.16,2.22.08,2.73-.01Z"/>
  </g>
  <g>
    <path class="cls-1" d="M470.89,85.65h-24.12v-20.98h71.32v20.98h-24.12v125.86h-23.08v-125.86Z"/>
    <path class="cls-1" d="M529.21,64.67h23.08v59.79h24.75v-59.79h23.08v146.84h-23.08v-66.08h-24.75v66.08h-23.08V64.67Z"/>
    <path class="cls-1" d="M617.31,64.67h62.93v20.98h-39.86v38.81h31.68v20.98h-31.68v45.1h39.86v20.98h-62.93V64.67Z"/>
    <path class="cls-1" d="M727.02,64.67h23.08v146.84h-23.08V64.67Z"/>
    <path class="cls-1" d="M767.29,64.67h28.95l22.45,87.9h.42v-87.9h20.56v146.84h-23.7l-27.69-107.19h-.42v107.19h-20.56V64.67Z"/>
    <path class="cls-1" d="M856.86,64.67h35.24c11.47,0,20.07,3.08,25.8,9.23,5.73,6.16,8.6,15.18,8.6,27.06v74.26c0,11.89-2.87,20.91-8.6,27.06-5.74,6.16-14.34,9.23-25.8,9.23h-35.24V64.67ZM891.69,190.54c3.78,0,6.68-1.12,8.71-3.36,2.03-2.24,3.04-5.87,3.04-10.91v-76.36c0-5.03-1.02-8.67-3.04-10.91-2.03-2.24-4.93-3.36-8.71-3.36h-11.75v104.89h11.75Z"/>
    <path class="cls-1" d="M942.03,64.67h23.08v146.84h-23.08V64.67Z"/>
    <path class="cls-1" d="M1000.14,64.67h31.26l23.91,146.84h-23.07l-4.2-29.16v.42h-26.22l-4.2,28.74h-21.4l23.91-146.84ZM1025.31,162.85l-10.28-72.58h-.42l-10.07,72.58h20.77Z"/>
    <path class="cls-1" d="M1066.42,64.67h28.95l22.45,87.9h.42v-87.9h20.56v146.84h-23.7l-27.69-107.19h-.42v107.19h-20.56V64.67Z"/>
    <path class="cls-1" d="M1189.55,64.67h34.82c11.89,0,20.56,2.76,26.01,8.29,5.45,5.53,8.18,14.02,8.18,25.49v5.87c0,7.55-1.23,13.71-3.67,18.46-2.45,4.76-6.19,8.18-11.22,10.28v.42c11.47,3.92,17.2,14.13,17.2,30.63v12.59c0,11.33-2.97,19.96-8.92,25.91s-14.65,8.92-26.12,8.92h-36.29V64.67ZM1221.65,124.46c4.62,0,8.08-1.19,10.38-3.57,2.31-2.38,3.46-6.36,3.46-11.96v-8.18c0-5.31-.94-9.16-2.83-11.54-1.89-2.38-4.86-3.57-8.92-3.57h-11.12v38.81h9.02ZM1225.84,190.54c4.05,0,7.06-1.08,9.02-3.25,1.96-2.17,2.94-5.91,2.94-11.22v-12.8c0-6.71-1.15-11.36-3.46-13.95-2.31-2.59-6.12-3.88-11.43-3.88h-10.28v45.1h13.22Z"/>
    <path class="cls-1" d="M1281.64,203.96c-6.01-6.43-9.02-15.52-9.02-27.27v-77.2c0-11.75,3.01-20.84,9.02-27.27,6.01-6.43,14.68-9.65,26.01-9.65s20,3.22,26.01,9.65c6.01,6.43,9.02,15.52,9.02,27.27v77.2c0,11.75-3.01,20.84-9.02,27.27-6.01,6.43-14.68,9.65-26.01,9.65s-20-3.22-26.01-9.65ZM1319.61,178.16v-80.13c0-9.65-3.99-14.47-11.96-14.47s-11.96,4.82-11.96,14.47v80.13c0,9.65,3.99,14.47,11.96,14.47s11.96-4.83,11.96-14.47Z"/>
    <path class="cls-1" d="M1375.41,85.65h-24.12v-20.98h71.32v20.98h-24.12v125.86h-23.08v-125.86Z"/>
    <path class="cls-1" d="M1441.91,64.67h31.26l23.91,146.84h-23.07l-4.2-29.16v.42h-26.22l-4.2,28.74h-21.4l23.91-146.84ZM1467.08,162.85l-10.28-72.58h-.42l-10.07,72.58h20.77Z"/>
    <path class="cls-1" d="M1508.19,64.67h28.95l22.45,87.9h.42v-87.9h20.56v146.84h-23.7l-27.69-107.19h-.42v107.19h-20.56V64.67Z"/>
    <path class="cls-1" d="M1597.76,64.67h23.08v146.84h-23.08V64.67Z"/>
    <path class="cls-1" d="M1645.27,204.17c-5.8-6.29-8.71-15.17-8.71-26.64v-78.87c0-11.47,2.9-20.35,8.71-26.64,5.8-6.29,14.23-9.44,25.28-9.44s19.47,3.15,25.28,9.44c5.8,6.29,8.71,15.18,8.71,26.64v15.52h-21.82v-16.99c0-9.09-3.85-13.64-11.54-13.64s-11.54,4.55-11.54,13.64v82.02c0,8.95,3.84,13.43,11.54,13.43s11.54-4.47,11.54-13.43v-22.45h21.82v20.77c0,11.47-2.9,20.35-8.71,26.64-5.8,6.29-14.23,9.44-25.28,9.44s-19.48-3.15-25.28-9.44Z"/>
    <path class="cls-1" d="M1736.21,64.67h31.26l23.91,146.84h-23.07l-4.2-29.16v.42h-26.22l-4.2,28.74h-21.4l23.91-146.84ZM1761.38,162.85l-10.28-72.58h-.42l-10.07,72.58h20.77Z"/>
    <path class="cls-1" d="M1802.49,64.67h23.08v125.86h37.97v20.98h-61.04V64.67Z"/>
    <path class="cls-1" d="M1912.83,204.07c-5.74-6.36-8.6-15.49-8.6-27.38v-8.39h21.82v10.07c0,9.51,3.99,14.26,11.96,14.26,3.91,0,6.89-1.15,8.92-3.46,2.03-2.31,3.04-6.05,3.04-11.22,0-6.15-1.4-11.57-4.2-16.26-2.8-4.68-7.97-10.31-15.52-16.89-9.51-8.39-16.15-15.98-19.93-22.76-3.78-6.78-5.66-14.44-5.66-22.97,0-11.61,2.94-20.59,8.81-26.96,5.87-6.36,14.4-9.54,25.59-9.54s19.4,3.18,25.07,9.54c5.66,6.37,8.5,15.49,8.5,27.38v6.08h-21.82v-7.55c0-5.03-.98-8.71-2.94-11.01-1.96-2.31-4.82-3.46-8.6-3.46-7.69,0-11.54,4.69-11.54,14.05,0,5.32,1.43,10.28,4.3,14.89,2.86,4.61,8.08,10.21,15.63,16.78,9.65,8.39,16.29,16.01,19.93,22.87,3.64,6.85,5.45,14.89,5.45,24.12,0,12.03-2.97,21.26-8.92,27.69-5.95,6.43-14.58,9.65-25.91,9.65s-19.65-3.18-25.38-9.54Z"/>
    <path class="cls-1" d="M1993.59,203.96c-6.01-6.43-9.02-15.52-9.02-27.27v-77.2c0-11.75,3.01-20.84,9.02-27.27,6.01-6.43,14.68-9.65,26.01-9.65s20,3.22,26.01,9.65c6.01,6.43,9.02,15.52,9.02,27.27v77.2c0,11.75-3.01,20.84-9.02,27.27-6.01,6.43-14.68,9.65-26.01,9.65s-20-3.22-26.01-9.65ZM2031.56,178.16v-80.13c0-9.65-3.99-14.47-11.96-14.47s-11.96,4.82-11.96,14.47v80.13c0,9.65,3.99,14.47,11.96,14.47s11.96-4.83,11.96-14.47Z"/>
    <path class="cls-1" d="M2077.4,204.17c-5.8-6.29-8.71-15.17-8.71-26.64v-78.87c0-11.47,2.9-20.35,8.71-26.64,5.8-6.29,14.23-9.44,25.28-9.44s19.47,3.15,25.28,9.44c5.8,6.29,8.71,15.18,8.71,26.64v15.52h-21.82v-16.99c0-9.09-3.85-13.64-11.54-13.64s-11.54,4.55-11.54,13.64v82.02c0,8.95,3.84,13.43,11.54,13.43s11.54-4.47,11.54-13.43v-22.45h21.82v20.77c0,11.47-2.9,20.35-8.71,26.64-5.8,6.29-14.23,9.44-25.28,9.44s-19.48-3.15-25.28-9.44Z"/>
    <path class="cls-1" d="M2150.5,64.67h23.08v146.84h-23.08V64.67Z"/>
    <path class="cls-1" d="M2190.77,64.67h62.93v20.98h-39.86v38.81h31.68v20.98h-31.68v45.1h39.86v20.98h-62.93V64.67Z"/>
    <path class="cls-1" d="M2284.96,85.65h-24.12v-20.98h71.32v20.98h-24.12v125.86h-23.08v-125.86Z"/>
    <path class="cls-1" d="M2365.3,149l-27.9-84.33h24.54l15.73,53.91h.42l15.73-53.91h22.45l-27.9,84.33v62.51h-23.08v-62.51Z"/>
  </g>
  <g>
    <path class="cls-1" d="M1192.45,315.08v-62.4h42.1v7.36h-33.84v19.32h29.28v7.36h-29.28v28.35h-8.26Z"/>
    <path class="cls-1" d="M1241.44,292.48c0-8.37,2.33-14.57,6.98-18.6,3.89-3.35,8.63-5.02,14.22-5.02,6.21,0,11.29,2.04,15.24,6.11,3.94,4.07,5.92,9.7,5.92,16.88,0,5.82-.87,10.39-2.62,13.73s-4.29,5.92-7.62,7.77c-3.33,1.84-6.97,2.77-10.92,2.77-6.33,0-11.44-2.03-15.34-6.09-3.9-4.06-5.85-9.9-5.85-17.54ZM1249.32,292.48c0,5.79,1.26,10.12,3.79,13,2.53,2.88,5.7,4.32,9.53,4.32s6.97-1.45,9.49-4.34c2.53-2.89,3.79-7.31,3.79-13.24,0-5.59-1.27-9.83-3.81-12.71s-5.7-4.32-9.47-4.32-7.01,1.43-9.53,4.3c-2.53,2.87-3.79,7.19-3.79,12.98Z"/>
    <path class="cls-1" d="M1322.4,315.08v-6.64c-3.52,5.11-8.3,7.66-14.34,7.66-2.67,0-5.16-.51-7.47-1.53-2.31-1.02-4.03-2.31-5.15-3.85-1.12-1.55-1.91-3.44-2.36-5.68-.31-1.5-.47-3.89-.47-7.15v-28.01h7.66v25.07c0,4,.16,6.7.47,8.09.48,2.02,1.5,3.6,3.06,4.75,1.56,1.15,3.49,1.72,5.79,1.72s4.45-.59,6.47-1.77c2.01-1.18,3.44-2.78,4.28-4.81.84-2.03,1.26-4.97,1.26-8.83v-24.22h7.66v45.2h-6.85Z"/>
    <path class="cls-1" d="M1341.25,315.08v-45.2h6.9v6.43c3.32-4.97,8.12-7.45,14.39-7.45,2.72,0,5.23.49,7.51,1.47,2.28.98,3.99,2.26,5.13,3.85,1.13,1.59,1.93,3.48,2.38,5.66.28,1.42.43,3.9.43,7.45v27.79h-7.66v-27.5c0-3.12-.3-5.46-.89-7-.6-1.55-1.65-2.78-3.17-3.7-1.52-.92-3.3-1.38-5.34-1.38-3.26,0-6.08,1.04-8.45,3.11-2.37,2.07-3.55,6-3.55,11.79v24.69h-7.66Z"/>
    <path class="cls-1" d="M1419.06,315.08v-5.7c-2.87,4.48-7.08,6.73-12.64,6.73-3.6,0-6.92-.99-9.94-2.98-3.02-1.99-5.36-4.76-7.02-8.32-1.66-3.56-2.49-7.65-2.49-12.28s.75-8.6,2.26-12.28c1.5-3.67,3.76-6.49,6.77-8.45,3.01-1.96,6.37-2.94,10.09-2.94,2.72,0,5.15.57,7.28,1.72,2.13,1.15,3.86,2.65,5.19,4.49v-22.39h7.62v62.4h-7.11ZM1394.84,292.53c0,5.79,1.22,10.12,3.66,12.98,2.44,2.87,5.32,4.3,8.64,4.3s6.19-1.37,8.53-4.11c2.34-2.74,3.51-6.92,3.51-12.53,0-6.19-1.19-10.73-3.58-13.62-2.38-2.89-5.32-4.34-8.81-4.34s-6.25,1.39-8.53,4.17c-2.28,2.78-3.43,7.17-3.43,13.15Z"/>
    <path class="cls-1" d="M1469.16,300.53l7.92.98c-1.25,4.63-3.56,8.21-6.94,10.77-3.38,2.55-7.69,3.83-12.94,3.83-6.61,0-11.85-2.04-15.73-6.11-3.87-4.07-5.81-9.78-5.81-17.13s1.96-13.51,5.87-17.71c3.92-4.2,9-6.3,15.24-6.3s10.98,2.06,14.81,6.17c3.83,4.12,5.75,9.9,5.75,17.37,0,.45-.01,1.13-.04,2.04h-33.71c.28,4.97,1.69,8.77,4.21,11.41,2.53,2.64,5.67,3.96,9.45,3.96,2.81,0,5.21-.74,7.19-2.21,1.99-1.48,3.56-3.83,4.72-7.07ZM1444,288.14h25.24c-.34-3.8-1.31-6.65-2.89-8.55-2.44-2.95-5.6-4.43-9.49-4.43-3.52,0-6.48,1.18-8.87,3.53s-3.72,5.5-3.98,9.45Z"/>
    <path class="cls-1" d="M1516.02,315.08v-5.7c-2.87,4.48-7.08,6.73-12.64,6.73-3.6,0-6.92-.99-9.94-2.98-3.02-1.99-5.36-4.76-7.02-8.32-1.66-3.56-2.49-7.65-2.49-12.28s.75-8.6,2.26-12.28c1.5-3.67,3.76-6.49,6.77-8.45,3.01-1.96,6.37-2.94,10.09-2.94,2.72,0,5.15.57,7.28,1.72,2.13,1.15,3.86,2.65,5.19,4.49v-22.39h7.62v62.4h-7.11ZM1491.8,292.53c0,5.79,1.22,10.12,3.66,12.98,2.44,2.87,5.32,4.3,8.64,4.3s6.19-1.37,8.53-4.11c2.34-2.74,3.51-6.92,3.51-12.53,0-6.19-1.19-10.73-3.58-13.62-2.38-2.89-5.32-4.34-8.81-4.34s-6.25,1.39-8.53,4.17c-2.28,2.78-3.43,7.17-3.43,13.15Z"/>
    <path class="cls-1" d="M1556.54,292.48c0-8.37,2.33-14.57,6.98-18.6,3.89-3.35,8.63-5.02,14.22-5.02,6.21,0,11.29,2.04,15.24,6.11,3.94,4.07,5.92,9.7,5.92,16.88,0,5.82-.87,10.39-2.62,13.73s-4.29,5.92-7.62,7.77c-3.33,1.84-6.97,2.77-10.92,2.77-6.33,0-11.44-2.03-15.34-6.09-3.9-4.06-5.85-9.9-5.85-17.54ZM1564.41,292.48c0,5.79,1.26,10.12,3.79,13,2.53,2.88,5.7,4.32,9.53,4.32s6.97-1.45,9.49-4.34c2.53-2.89,3.79-7.31,3.79-13.24,0-5.59-1.27-9.83-3.81-12.71s-5.7-4.32-9.47-4.32-7.01,1.43-9.53,4.3c-2.53,2.87-3.79,7.19-3.79,12.98Z"/>
    <path class="cls-1" d="M1607.87,315.08v-45.2h6.9v6.43c3.32-4.97,8.12-7.45,14.39-7.45,2.72,0,5.23.49,7.51,1.47,2.28.98,3.99,2.26,5.13,3.85,1.13,1.59,1.93,3.48,2.38,5.66.28,1.42.43,3.9.43,7.45v27.79h-7.66v-27.5c0-3.12-.3-5.46-.89-7-.6-1.55-1.65-2.78-3.17-3.7-1.52-.92-3.3-1.38-5.34-1.38-3.26,0-6.08,1.04-8.45,3.11-2.37,2.07-3.55,6-3.55,11.79v24.69h-7.66Z"/>
    <path class="cls-1" d="M1678.74,295.04l7.79-.68c.37,3.12,1.23,5.68,2.57,7.68,1.35,2,3.44,3.62,6.28,4.85,2.84,1.23,6.03,1.85,9.58,1.85,3.15,0,5.93-.47,8.34-1.41,2.41-.94,4.21-2.22,5.38-3.85,1.18-1.63,1.77-3.41,1.77-5.34s-.57-3.67-1.7-5.13c-1.14-1.46-3.01-2.69-5.62-3.68-1.67-.65-5.38-1.67-11.11-3.04-5.73-1.38-9.75-2.67-12.05-3.89-2.98-1.56-5.2-3.5-6.66-5.81-1.46-2.31-2.19-4.9-2.19-7.77,0-3.15.89-6.09,2.68-8.83s4.4-4.82,7.83-6.24c3.43-1.42,7.25-2.13,11.45-2.13,4.62,0,8.7.74,12.24,2.23,3.53,1.49,6.25,3.68,8.15,6.58,1.9,2.89,2.92,6.17,3.06,9.83l-7.92.6c-.43-3.94-1.87-6.92-4.32-8.94-2.45-2.01-6.08-3.02-10.88-3.02s-8.63.92-10.92,2.75c-2.28,1.83-3.43,4.04-3.43,6.62,0,2.24.81,4.09,2.43,5.53,1.59,1.45,5.74,2.93,12.45,4.45,6.71,1.52,11.31,2.84,13.81,3.98,3.63,1.67,6.31,3.8,8.04,6.36,1.73,2.57,2.6,5.53,2.6,8.88s-.95,6.45-2.85,9.38c-1.9,2.94-4.63,5.22-8.19,6.85-3.56,1.63-7.57,2.45-12.02,2.45-5.65,0-10.38-.82-14.19-2.47-3.82-1.64-6.81-4.12-8.98-7.43-2.17-3.31-3.31-7.04-3.43-11.22Z"/>
    <path class="cls-1" d="M1769.65,300.53l7.92.98c-1.25,4.63-3.56,8.21-6.94,10.77-3.38,2.55-7.69,3.83-12.94,3.83-6.61,0-11.85-2.04-15.73-6.11-3.87-4.07-5.81-9.78-5.81-17.13s1.96-13.51,5.87-17.71c3.92-4.2,9-6.3,15.24-6.3s10.98,2.06,14.81,6.17c3.83,4.12,5.75,9.9,5.75,17.37,0,.45-.01,1.13-.04,2.04h-33.71c.28,4.97,1.69,8.77,4.21,11.41,2.53,2.64,5.67,3.96,9.45,3.96,2.81,0,5.21-.74,7.19-2.21,1.99-1.48,3.56-3.83,4.72-7.07ZM1744.5,288.14h25.24c-.34-3.8-1.31-6.65-2.89-8.55-2.44-2.95-5.6-4.43-9.49-4.43-3.52,0-6.48,1.18-8.87,3.53s-3.72,5.5-3.98,9.45Z"/>
    <path class="cls-1" d="M1787.19,332.41v-62.53h6.98v5.87c1.65-2.3,3.5-4.02,5.58-5.17,2.07-1.15,4.58-1.72,7.53-1.72,3.86,0,7.26.99,10.22,2.98,2.95,1.99,5.18,4.79,6.68,8.41,1.5,3.62,2.26,7.58,2.26,11.9,0,4.63-.83,8.79-2.49,12.49-1.66,3.7-4.07,6.54-7.24,8.51-3.16,1.97-6.49,2.96-9.98,2.96-2.55,0-4.85-.54-6.87-1.62-2.03-1.08-3.7-2.44-5-4.09v22.01h-7.66ZM1794.13,292.74c0,5.82,1.18,10.12,3.53,12.9,2.35,2.78,5.21,4.17,8.56,4.17s6.32-1.44,8.75-4.32c2.43-2.88,3.64-7.34,3.64-13.39s-1.19-10.07-3.55-12.94c-2.37-2.87-5.2-4.3-8.49-4.3s-6.15,1.53-8.66,4.58c-2.51,3.05-3.77,7.49-3.77,13.3Z"/>
    <path class="cls-1" d="M1852.4,308.23l1.11,6.77c-2.16.45-4.09.68-5.79.68-2.78,0-4.94-.44-6.47-1.32s-2.61-2.04-3.23-3.47c-.62-1.43-.94-4.45-.94-9.04v-26.01h-5.62v-5.96h5.62v-11.19l7.62-4.6v15.79h7.7v5.96h-7.7v26.43c0,2.18.13,3.59.4,4.21.27.62.71,1.12,1.32,1.49.61.37,1.48.55,2.62.55.85,0,1.97-.1,3.36-.3Z"/>
    <path class="cls-1" d="M1890.83,300.53l7.92.98c-1.25,4.63-3.56,8.21-6.94,10.77-3.38,2.55-7.69,3.83-12.94,3.83-6.61,0-11.85-2.04-15.73-6.11-3.87-4.07-5.81-9.78-5.81-17.13s1.96-13.51,5.87-17.71c3.92-4.2,9-6.3,15.24-6.3s10.98,2.06,14.81,6.17c3.83,4.12,5.75,9.9,5.75,17.37,0,.45-.01,1.13-.04,2.04h-33.71c.28,4.97,1.69,8.77,4.21,11.41,2.53,2.64,5.67,3.96,9.45,3.96,2.81,0,5.21-.74,7.19-2.21,1.99-1.48,3.56-3.83,4.72-7.07ZM1865.68,288.14h25.24c-.34-3.8-1.31-6.65-2.89-8.55-2.44-2.95-5.6-4.43-9.49-4.43-3.52,0-6.48,1.18-8.87,3.53s-3.72,5.5-3.98,9.45Z"/>
    <path class="cls-1" d="M1908.37,315.08v-45.2h6.85v6.34c1.42-2.21,3.31-3.99,5.66-5.34,2.35-1.35,5.04-2.02,8.04-2.02,3.35,0,6.09.7,8.24,2.08,2.14,1.39,3.65,3.33,4.53,5.83,3.58-5.28,8.23-7.92,13.96-7.92,4.48,0,7.93,1.24,10.34,3.72,2.41,2.48,3.62,6.31,3.62,11.47v31.03h-7.62v-28.48c0-3.06-.25-5.27-.74-6.62-.5-1.35-1.4-2.43-2.7-3.26s-2.84-1.23-4.6-1.23c-3.18,0-5.82,1.06-7.92,3.17-2.1,2.11-3.15,5.5-3.15,10.15v26.26h-7.66v-29.37c0-3.41-.62-5.96-1.87-7.66-1.25-1.7-3.29-2.55-6.13-2.55-2.16,0-4.15.57-5.98,1.7-1.83,1.14-3.16,2.79-3.98,4.98-.82,2.18-1.23,5.33-1.23,9.45v23.45h-7.66Z"/>
    <path class="cls-1" d="M1988.05,315.08h-7.11v-62.4h7.66v22.26c3.23-4.06,7.36-6.09,12.39-6.09,2.78,0,5.41.56,7.9,1.68,2.48,1.12,4.53,2.7,6.13,4.72,1.6,2.03,2.86,4.48,3.77,7.34.91,2.87,1.36,5.93,1.36,9.19,0,7.75-1.92,13.73-5.75,17.96-3.83,4.23-8.43,6.34-13.79,6.34s-9.52-2.23-12.56-6.68v5.66ZM1987.96,292.14c0,5.42.74,9.34,2.21,11.75,2.41,3.94,5.67,5.92,9.79,5.92,3.35,0,6.24-1.45,8.68-4.36,2.44-2.91,3.66-7.24,3.66-13s-1.17-10.26-3.51-13.07c-2.34-2.81-5.17-4.21-8.49-4.21s-6.24,1.45-8.68,4.36c-2.44,2.91-3.66,7.12-3.66,12.62Z"/>
    <path class="cls-1" d="M2060.4,300.53l7.92.98c-1.25,4.63-3.56,8.21-6.94,10.77-3.38,2.55-7.69,3.83-12.94,3.83-6.61,0-11.85-2.04-15.73-6.11-3.87-4.07-5.81-9.78-5.81-17.13s1.96-13.51,5.87-17.71c3.92-4.2,9-6.3,15.24-6.3s10.98,2.06,14.81,6.17c3.83,4.12,5.75,9.9,5.75,17.37,0,.45-.01,1.13-.04,2.04h-33.71c.28,4.97,1.69,8.77,4.21,11.41,2.53,2.64,5.67,3.96,9.45,3.96,2.81,0,5.21-.74,7.19-2.21,1.99-1.48,3.56-3.83,4.72-7.07ZM2035.25,288.14h25.24c-.34-3.8-1.31-6.65-2.89-8.55-2.44-2.95-5.6-4.43-9.49-4.43-3.52,0-6.48,1.18-8.87,3.53s-3.72,5.5-3.98,9.45Z"/>
    <path class="cls-1" d="M2077.85,315.08v-45.2h6.9v6.85c1.76-3.21,3.38-5.32,4.87-6.34s3.13-1.53,4.92-1.53c2.58,0,5.21.82,7.87,2.47l-2.64,7.11c-1.87-1.11-3.75-1.66-5.62-1.66-1.67,0-3.18.5-4.51,1.51-1.33,1.01-2.28,2.4-2.85,4.19-.85,2.72-1.28,5.7-1.28,8.94v23.67h-7.66Z"/>
    <path class="cls-1" d="M2168.81,267.97l-7.62.6c-.68-3.01-1.65-5.19-2.89-6.55-2.07-2.18-4.63-3.28-7.66-3.28-2.44,0-4.58.68-6.43,2.04-2.41,1.76-4.31,4.33-5.7,7.7-1.39,3.38-2.11,8.19-2.17,14.43,1.84-2.81,4.1-4.9,6.77-6.26,2.67-1.36,5.46-2.04,8.38-2.04,5.11,0,9.46,1.88,13.05,5.64,3.59,3.76,5.38,8.62,5.38,14.58,0,3.92-.84,7.56-2.53,10.92-1.69,3.36-4.01,5.94-6.96,7.73-2.95,1.79-6.3,2.68-10.04,2.68-6.38,0-11.59-2.35-15.62-7.04-4.03-4.7-6.04-12.44-6.04-23.22,0-12.06,2.23-20.83,6.68-26.3,3.89-4.77,9.12-7.15,15.71-7.15,4.91,0,8.93,1.38,12.07,4.13,3.14,2.75,5.02,6.56,5.64,11.41ZM2137.53,294.87c0,2.64.56,5.17,1.68,7.58,1.12,2.41,2.69,4.25,4.7,5.51,2.01,1.26,4.13,1.89,6.34,1.89,3.23,0,6.02-1.3,8.34-3.92,2.33-2.61,3.49-6.16,3.49-10.64s-1.15-7.71-3.45-10.19c-2.3-2.48-5.19-3.72-8.68-3.72s-6.4,1.24-8.81,3.72c-2.41,2.48-3.62,5.74-3.62,9.77Z"/>
    <path class="cls-1" d="M2181.67,315.08v-8.73h8.73v8.73c0,3.21-.57,5.79-1.7,7.77-1.14,1.97-2.94,3.5-5.41,4.58l-2.13-3.28c1.62-.71,2.81-1.75,3.58-3.13.77-1.38,1.19-3.36,1.28-5.94h-4.34Z"/>
    <path class="cls-1" d="M2254.83,315.08h-7.66v-48.82c-1.84,1.76-4.26,3.52-7.26,5.28-2.99,1.76-5.68,3.08-8.07,3.96v-7.41c4.28-2.01,8.03-4.45,11.24-7.32,3.21-2.87,5.48-5.65,6.81-8.34h4.94v62.65Z"/>
    <path class="cls-1" d="M2275.6,300.65l7.36-.68c.62,3.46,1.82,5.97,3.58,7.53,1.76,1.56,4.01,2.34,6.77,2.34,2.35,0,4.42-.54,6.19-1.62,1.77-1.08,3.23-2.52,4.36-4.32,1.13-1.8,2.09-4.24,2.85-7.3s1.15-6.19,1.15-9.36c0-.34-.01-.85-.04-1.53-1.53,2.44-3.63,4.42-6.28,5.94-2.65,1.52-5.53,2.28-8.62,2.28-5.16,0-9.53-1.87-13.11-5.62-3.58-3.75-5.36-8.68-5.36-14.81s1.87-11.42,5.6-15.28c3.73-3.86,8.41-5.79,14.02-5.79,4.06,0,7.77,1.09,11.13,3.28,3.36,2.19,5.92,5.3,7.66,9.34,1.75,4.04,2.62,9.9,2.62,17.56s-.87,14.32-2.6,19.05c-1.73,4.72-4.31,8.32-7.73,10.79-3.42,2.47-7.43,3.7-12.02,3.7-4.88,0-8.87-1.35-11.96-4.06-3.09-2.71-4.95-6.52-5.58-11.43ZM2306.97,273.12c0-4.4-1.17-7.89-3.51-10.47-2.34-2.58-5.16-3.87-8.45-3.87s-6.37,1.39-8.9,4.17c-2.53,2.78-3.79,6.38-3.79,10.81,0,3.97,1.2,7.2,3.6,9.68,2.4,2.48,5.36,3.72,8.87,3.72s6.46-1.24,8.75-3.72c2.28-2.48,3.43-5.92,3.43-10.32Z"/>
    <path class="cls-1" d="M2363.2,307.72v7.36h-41.24c-.06-1.84.24-3.62.89-5.32,1.05-2.81,2.73-5.58,5.04-8.3,2.31-2.72,5.65-5.87,10.02-9.45,6.78-5.56,11.36-9.97,13.75-13.22,2.38-3.25,3.58-6.32,3.58-9.22s-1.08-5.6-3.26-7.68c-2.17-2.08-5-3.13-8.49-3.13-3.69,0-6.64,1.11-8.85,3.32-2.21,2.21-3.33,5.28-3.36,9.19l-7.87-.81c.54-5.87,2.57-10.35,6.09-13.43,3.52-3.08,8.24-4.62,14.17-4.62s10.73,1.66,14.22,4.98c3.49,3.32,5.24,7.43,5.24,12.34,0,2.5-.51,4.95-1.53,7.36-1.02,2.41-2.72,4.95-5.09,7.62-2.37,2.67-6.31,6.33-11.81,10.98-4.6,3.86-7.55,6.48-8.85,7.85-1.31,1.38-2.38,2.76-3.23,4.15h30.6Z"/>
    <path class="cls-1" d="M2371.41,284.31c0-7.38.76-13.32,2.28-17.81,1.52-4.5,3.77-7.97,6.77-10.41,2.99-2.44,6.76-3.66,11.3-3.66,3.35,0,6.28.67,8.81,2.02,2.52,1.35,4.61,3.29,6.26,5.83,1.65,2.54,2.94,5.63,3.87,9.28.94,3.65,1.4,8.56,1.4,14.75,0,7.32-.75,13.23-2.26,17.73-1.5,4.5-3.75,7.97-6.75,10.43-2.99,2.46-6.77,3.68-11.34,3.68-6.02,0-10.74-2.16-14.17-6.47-4.11-5.19-6.17-13.65-6.17-25.37ZM2379.29,284.31c0,10.24,1.2,17.06,3.6,20.45,2.4,3.39,5.36,5.09,8.87,5.09s6.48-1.7,8.87-5.11c2.4-3.41,3.6-10.22,3.6-20.43s-1.2-17.1-3.6-20.47c-2.4-3.38-5.38-5.06-8.96-5.06s-6.33,1.49-8.43,4.47c-2.64,3.8-3.96,10.83-3.96,21.07Z"/>
  </g>
</svg>