<svg id="Layer_1" data-name="Layer 1" xmlns="http://www.w3.org/2000/svg" xmlns:xlink="http://www.w3.org/1999/xlink" viewBox="0 0 295.87 40.67"><defs><clipPath id="clip-path"><path d="M-325.38-1027.49V-185.6H269.89v-841.89ZM232.48-270.66h-504V-839.49h504Z" fill="none" clip-rule="evenodd"/></clipPath><clipPath id="clip-path-2"><path d="M291.57-1027.49V-185.6H886.85v-841.89Zm557.86,773h-504V-858.41h504Z" fill="none" clip-rule="evenodd"/></clipPath></defs><g clip-path="url(#clip-path)"><path d="M218.29,673.43a98.86,98.86,0,0,1-57.38-18.28L-312.15,327.83C-456,228.27-535.25,77.22-535.25-97.61V-787.42c0-54.63,44.54-99.1,99.24-99.1,218.51,0,423-73.3,591.42-211.91a99.81,99.81,0,0,1,63-22.53,98.91,98.91,0,0,1,64.32,23.78,926,926,0,0,0,275.9,156.42A928.1,928.1,0,0,0,872.8-886.52a99.23,99.23,0,0,1,99.1,99.1V-97.61c0,174.89-79.25,325.94-223.16,425.44l-474.11,328A98.81,98.81,0,0,1,218.29,673.43Z" fill="none" stroke="#eeece8" stroke-miterlimit="10" stroke-width="0.25" fill-rule="evenodd"/><path d="M-429.3-879.71c216.27,0,418.67-72.55,585.35-209.73a98.8,98.8,0,0,1,62.37-22.3,98,98,0,0,1,22.25,2.56,97.86,97.86,0,0,1,41.41,21A916.76,916.76,0,0,0,555.15-933.39a918.7,918.7,0,0,0,310.93,53.68,97.47,97.47,0,0,1,53.76,16.09,98.1,98.1,0,0,1,44.32,82V-98.9c0,173.09-78.44,322.59-220.87,421.06L274,646.77A97.91,97.91,0,0,1,233.6,663l-.11,0a98.24,98.24,0,0,1-72-16.91l-468.2-324c-142.36-98.54-220.81-248-220.81-421.06V-781.62a98.05,98.05,0,0,1,43.72-81.56A97.67,97.67,0,0,1-429.3-879.71Z" fill="none" stroke="#eeebe7" stroke-miterlimit="10" stroke-width="0.27" fill-rule="evenodd"/><path d="M-422.58-872.9c214,0,414.32-71.79,579.28-207.54a97.69,97.69,0,0,1,61.71-22.08,97.09,97.09,0,0,1,22,2.53,96.7,96.7,0,0,1,41,20.75A907,907,0,0,0,551.66-926,908.89,908.89,0,0,0,859.37-872.9,96.44,96.44,0,0,1,912.56-857a97.09,97.09,0,0,1,43.86,81.15V-100.2c0,171.3-77.63,319.24-218.58,416.7L273.46,637.74a96.86,96.86,0,0,1-40,16.06l-.11,0a97.15,97.15,0,0,1-71.24-16.74L-301.25,316.5C-442.14,219-519.76,71-519.76-100.2V-775.83a97.06,97.06,0,0,1,43.25-80.71A96.67,96.67,0,0,1-422.58-872.9Z" fill="none" stroke="#edeae6" stroke-miterlimit="10" stroke-width="0.29" fill-rule="evenodd"/><path d="M-415.87-866.09c211.78,0,410-71,573.21-205.36a96.73,96.73,0,0,1,61.07-21.85,95.62,95.62,0,0,1,21.78,2.51,95.63,95.63,0,0,1,40.56,20.52A897.32,897.32,0,0,0,548.16-918.66a899.45,899.45,0,0,0,304.49,52.57,95.43,95.43,0,0,1,52.64,15.76A96.1,96.1,0,0,1,948.68-770v668.54c0,169.5-76.82,315.89-216.29,412.32L272.88,628.7a95.84,95.84,0,0,1-39.6,15.9l-.11,0a97,97,0,0,1-14.89,1.15,95.81,95.81,0,0,1-55.61-17.72L-295.8,310.83C-435.21,214.33-512,67.94-512-101.49V-770a96,96,0,0,1,42.79-79.86A95.62,95.62,0,0,1-415.87-866.09Z" fill="none" stroke="#edeae5" stroke-miterlimit="10" stroke-width="0.3" fill-rule="evenodd"/><path d="M-409.16-859.28c209.54,0,405.65-70.28,567.14-203.18a95.71,95.71,0,0,1,60.42-21.62A94.73,94.73,0,0,1,240-1081.6a94.59,94.59,0,0,1,40.13,20.3,888,888,0,0,0,264.58,150,890.27,890.27,0,0,0,301.28,52A94.32,94.32,0,0,1,898-843.68a95.07,95.07,0,0,1,42.92,79.45v661.44c0,167.7-76,312.54-214,408L272.29,619.67a94.82,94.82,0,0,1-39.18,15.72l-.1,0A95.23,95.23,0,0,1,163.26,619L-290.35,305.16c-137.93-95.47-213.93-240.31-213.93-408V-764.23a95.05,95.05,0,0,1,42.33-79A94.61,94.61,0,0,1-409.16-859.28Z" fill="none" stroke="#ece9e5" stroke-miterlimit="10" stroke-width="0.32" fill-rule="evenodd"/><path d="M-402.44-852.47c207.29,0,401.3-69.53,561.06-201a94.68,94.68,0,0,1,59.77-21.39,93.77,93.77,0,0,1,21.32,2.45,93.67,93.67,0,0,1,39.7,20.08,878.51,878.51,0,0,0,261.76,148.4,880.49,880.49,0,0,0,298.05,51.46A93.3,93.3,0,0,1,890.73-837a94.09,94.09,0,0,1,42.46,78.61v654.35c0,165.9-75.19,309.19-211.7,403.57L271.71,610.63A93.8,93.8,0,0,1,233,626.19l-.11,0a94.28,94.28,0,0,1-69-16.23L-284.9,299.49C-421.35,205-496.53,61.76-496.53-104.08V-758.43a94,94,0,0,1,41.87-78.18A93.53,93.53,0,0,1-402.44-852.47Z" fill="none" stroke="#ece8e4" stroke-miterlimit="10" stroke-width="0.34" fill-rule="evenodd"/><path d="M-395.73-845.66c205.05,0,397-68.77,555-198.82a93.74,93.74,0,0,1,59.13-21.16,93,93,0,0,1,21.09,2.42,92.54,92.54,0,0,1,39.26,19.86,869,869,0,0,0,258.93,146.8,871,871,0,0,0,294.83,50.9,92.31,92.31,0,0,1,51,15.27,93.07,93.07,0,0,1,42,77.75v647.26c0,164.11-74.37,305.84-209.41,399.2L271.13,601.6A92.78,92.78,0,0,1,232.78,617l-.1,0a93.22,93.22,0,0,1-68.24-16L-279.45,293.82c-135-93.42-209.34-235.15-209.34-399.2V-752.64A93,93,0,0,1-447.38-830,92.55,92.55,0,0,1-395.73-845.66Z" fill="none" stroke="#ebe8e3" stroke-miterlimit="10" stroke-width="0.36" fill-rule="evenodd"/><path d="M-389-838.85c202.8,0,392.61-68,548.91-196.64a92.78,92.78,0,0,1,58.48-20.93,92.12,92.12,0,0,1,20.86,2.39,91.5,91.5,0,0,1,38.83,19.64,859.49,859.49,0,0,0,256.11,145.2,861.48,861.48,0,0,0,291.61,50.34,91.29,91.29,0,0,1,50.39,15.11,92,92,0,0,1,41.52,76.9v640.17c0,162.3-73.55,302.48-207.1,394.82L270.54,592.57a91.73,91.73,0,0,1-37.92,15.21h-.1A92.19,92.19,0,0,1,165,591.92L-274,288.15c-133.49-92.4-207-232.58-207-394.82V-746.84a92,92,0,0,1,40.95-76.49A91.55,91.55,0,0,1-389-838.85Z" fill="none" stroke="#eae7e2" stroke-miterlimit="10" stroke-width="0.38" fill-rule="evenodd"/><path d="M-382.3-832C-181.73-832,6-899.3,160.54-1026.5a91.77,91.77,0,0,1,57.83-20.7,91.23,91.23,0,0,1,20.63,2.36,90.62,90.62,0,0,1,38.41,19.42,850.12,850.12,0,0,0,253.27,143.6A852,852,0,0,0,819.07-832a90.21,90.21,0,0,1,49.83,14.94A91,91,0,0,1,910-741V-108c0,160.5-72.74,299.13-204.81,390.44L270,583.53a90.56,90.56,0,0,1-37.5,15l-.1,0a91.1,91.1,0,0,1-66.75-15.7L-268.55,282.48c-132-91.37-204.75-230-204.75-390.44V-741a91,91,0,0,1,40.49-75.64A90.43,90.43,0,0,1-382.3-832Z" fill="none" stroke="#eae7e2" stroke-miterlimit="10" stroke-width="0.4" fill-rule="evenodd"/><path d="M-375.58-825.22c198.32,0,383.92-66.52,536.77-192.29A90.69,90.69,0,0,1,218.36-1038a89.7,89.7,0,0,1,20.4,2.33,89.52,89.52,0,0,1,38,19.2,840.38,840.38,0,0,0,250.45,142,842.28,842.28,0,0,0,285.17,49.24,89.23,89.23,0,0,1,49.27,14.77,90,90,0,0,1,40.59,75.2v626c0,158.71-71.93,295.78-202.52,386.07L269.37,574.5a89.69,89.69,0,0,1-37.08,14.87h-.1a90,90,0,0,1-66-15.53l-429.3-297C-393.64,186.46-465.56,49.39-465.56-109.26v-626a90,90,0,0,1,40-74.79A89.43,89.43,0,0,1-375.58-825.22Z" fill="none" stroke="#e9e6e1" stroke-miterlimit="10" stroke-width="0.41" fill-rule="evenodd"/><path d="M-368.87-818.41c196.08,0,379.58-65.76,530.7-190.1a89.62,89.62,0,0,1,56.53-20.25,88.85,88.85,0,0,1,20.16,2.3,88.48,88.48,0,0,1,37.55,19A831.06,831.06,0,0,0,523.69-867.09a833.08,833.08,0,0,0,281.95,48.68,88.14,88.14,0,0,1,48.71,14.61,89,89,0,0,1,40.12,74.35v618.9c0,156.91-71.11,292.43-200.22,381.7L268.79,565.46a88.52,88.52,0,0,1-36.66,14.7l-.1,0a89.12,89.12,0,0,1-65.25-15.36L-257.65,271.15C-386.71,181.82-457.82,46.3-457.82-110.55v-618.9a89,89,0,0,1,39.57-73.95A88.42,88.42,0,0,1-368.87-818.41Z" fill="none" stroke="#e9e5e0" stroke-miterlimit="10" stroke-width="0.43" fill-rule="evenodd"/><path d="M-362.15-811.6c193.83,0,375.23-65,524.62-187.92a88.61,88.61,0,0,1,55.88-20,88,88,0,0,1,19.93,2.27,87.5,87.5,0,0,1,37.12,18.76A821.92,821.92,0,0,0,520.2-859.72,823.56,823.56,0,0,0,798.93-811.6a87.06,87.06,0,0,1,48.14,14.45,88,88,0,0,1,39.66,73.5v611.8c0,155.11-70.29,289.08-197.93,377.33L268.21,556.43A87.67,87.67,0,0,1,232,571h-.1a88.06,88.06,0,0,1-64.5-15.18L-252.2,265.48C-379.78,177.17-450.08,43.21-450.08-111.85v-611.8A88,88,0,0,1-411-796.76,87.31,87.31,0,0,1-362.15-811.6Z" fill="none" stroke="#e8e5df" stroke-miterlimit="10" stroke-width="0.45" fill-rule="evenodd"/><path d="M-355.44-804.79c191.59,0,370.89-64.25,518.55-185.74a87.65,87.65,0,0,1,55.23-19.79,87.16,87.16,0,0,1,19.71,2.24,86.41,86.41,0,0,1,36.69,18.54,812.08,812.08,0,0,0,242,137.18,813.84,813.84,0,0,0,275.51,47.57,86.12,86.12,0,0,1,47.59,14.28A87,87,0,0,1,879-717.86v604.72c0,153.31-69.48,285.73-195.64,373L267.62,547.4a86.46,86.46,0,0,1-35.82,14.35l-.09,0a87.13,87.13,0,0,1-63.75-15L-246.76,259.81c-126.09-87.28-195.57-219.7-195.57-372.95V-717.86a86.94,86.94,0,0,1,38.65-72.25A86.24,86.24,0,0,1-355.44-804.79Z" fill="none" stroke="#e8e4df" stroke-miterlimit="10" stroke-width="0.47" fill-rule="evenodd"/><path d="M-348.73-798c189.35,0,366.55-63.5,512.48-183.56a86.71,86.71,0,0,1,54.59-19.56,86.24,86.24,0,0,1,19.47,2.21,85.37,85.37,0,0,1,36.26,18.32A802.54,802.54,0,0,0,513.2-845a804.39,804.39,0,0,0,272.29,47,85,85,0,0,1,47,14.12,86,86,0,0,1,38.72,71.8v597.62c0,151.52-68.66,282.38-193.34,368.58L267,538.36a85.44,85.44,0,0,1-35.4,14.19h-.1a86.08,86.08,0,0,1-63-14.84L-241.31,254.14C-365.92,167.88-434.59,37-434.59-114.44V-712.06a86,86,0,0,1,38.19-71.41A85.2,85.2,0,0,1-348.73-798Z" fill="none" stroke="#e7e4de" stroke-miterlimit="10" stroke-width="0.49" fill-rule="evenodd"/><path d="M-342-791.17c187.1,0,362.2-62.74,506.4-181.38a85.67,85.67,0,0,1,53.94-19.33,84.23,84.23,0,0,1,19.24,2.19A84.32,84.32,0,0,1,273.4-971.6a793.06,793.06,0,0,0,236.31,134,794.91,794.91,0,0,0,269.07,46.45,83.94,83.94,0,0,1,46.46,14,85,85,0,0,1,38.26,71v590.53c0,149.72-67.85,279-191,364.2l-406,280.86a84.56,84.56,0,0,1-35,14l-.09,0a85.7,85.7,0,0,1-13.14,1,84.78,84.78,0,0,1-49.11-15.67l-405-280.22c-123.14-85.23-191-214.54-191-364.2V-706.26a85,85,0,0,1,37.73-70.57A84.23,84.23,0,0,1-342-791.17Z" fill="none" stroke="#e7e3dd" stroke-miterlimit="10" stroke-width="0.51" fill-rule="evenodd"/><path d="M-335.3-784.36c184.86,0,357.86-62,500.34-179.2a84.61,84.61,0,0,1,53.28-19.1,83.34,83.34,0,0,1,19,2.16,83.17,83.17,0,0,1,35.4,17.87A783.86,783.86,0,0,0,506.21-830.25a785.42,785.42,0,0,0,265.85,45.89A83,83,0,0,1,818-770.57a84,84,0,0,1,37.79,70.1V-117c0,147.92-67,275.68-188.75,359.83L265.87,520.29a83.39,83.39,0,0,1-34.56,13.85h-.09a84.09,84.09,0,0,1-61.5-14.5L-230.41,242.8C-352.07,158.59-419.1,30.84-419.1-117V-700.47a84,84,0,0,1,37.27-69.72A83.17,83.17,0,0,1-335.3-784.36Z" fill="none" stroke="#e6e2dc" stroke-miterlimit="10" stroke-width="0.52" fill-rule="evenodd"/><path d="M-328.58-777.55c182.61,0,353.51-61.23,494.26-177a83.59,83.59,0,0,1,52.64-18.87,82.36,82.36,0,0,1,18.77,2.13,82.13,82.13,0,0,1,35,17.65A774,774,0,0,0,502.72-822.89a775.91,775.91,0,0,0,262.63,45.34,82,82,0,0,1,45.34,13.63A83,83,0,0,1,848-694.67v576.35C848,27.8,781.79,154,661.56,237.13L265.29,511.26a82.39,82.39,0,0,1-34.14,13.67l-.09,0a83,83,0,0,1-60.76-14.33L-225,237.13C-345.14,154-411.36,27.75-411.36-118.32V-694.67a83,83,0,0,1,36.81-68.88A82.17,82.17,0,0,1-328.58-777.55Z" fill="none" stroke="#e5e2dc" stroke-miterlimit="10" stroke-width="0.54" fill-rule="evenodd"/><path d="M-321.87-770.73c180.37,0,349.17-60.49,488.19-174.85a82.63,82.63,0,0,1,52-18.64,81.53,81.53,0,0,1,18.54,2.1,81.19,81.19,0,0,1,34.55,17.43A764.41,764.41,0,0,0,499.22-815.52a766.43,766.43,0,0,0,259.41,44.79,80.88,80.88,0,0,1,44.78,13.46,82,82,0,0,1,36.86,68.4v569.25c0,144.33-65.4,269-184.16,351.08L264.71,502.22A81.36,81.36,0,0,1,231,515.73h-.09a81.95,81.95,0,0,1-60-14.15l-390.4-270.13C-338.21,149.3-403.62,24.65-403.62-119.62V-688.87a81.93,81.93,0,0,1,36.35-68A81.11,81.11,0,0,1-321.87-770.73Z" fill="none" stroke="#e5e1db" stroke-miterlimit="10" stroke-width="0.56" fill-rule="evenodd"/><path d="M-315.15-763.92C-137-763.92,29.67-823.65,167-936.58A81.58,81.58,0,0,1,218.3-955a80.72,80.72,0,0,1,18.32,2.07,80.17,80.17,0,0,1,34.11,17.21,755.27,755.27,0,0,0,225,127.57,757,757,0,0,0,256.19,44.23,80,80,0,0,1,44.22,13.29,81,81,0,0,1,36.39,67.56v562.16c0,142.52-64.59,265.62-181.87,346.71L264.12,493.19a80.16,80.16,0,0,1-33.3,13.33l-.09,0a81,81,0,0,1-59.25-14L-214.06,225.8C-331.28,144.66-395.87,21.56-395.87-120.91V-683.07A80.91,80.91,0,0,1-360-750.26,80.05,80.05,0,0,1-315.15-763.92Z" fill="none" stroke="#e4e0da" stroke-miterlimit="10" stroke-width="0.58" fill-rule="evenodd"/><path d="M-308.44-757.11c175.88,0,340.48-59,476-170.48a80.61,80.61,0,0,1,50.7-18.19,79.81,79.81,0,0,1,18.08,2,79.13,79.13,0,0,1,33.68,17,745.48,745.48,0,0,0,222.17,126,747.27,747.27,0,0,0,253,43.68A78.86,78.86,0,0,1,788.86-744a80,80,0,0,1,35.92,66.7v555.07c0,140.73-63.77,262.28-179.57,342.34l-381.67,264a79.45,79.45,0,0,1-32.88,13.16h-.09a80,80,0,0,1-58.51-13.81L-208.61,220.13C-324.35,140-388.13,18.47-388.13-122.21V-677.28a79.93,79.93,0,0,1,35.43-66.34A79.07,79.07,0,0,1-308.44-757.11Z" fill="none" stroke="#e4e0d9" stroke-miterlimit="10" stroke-width="0.6" fill-rule="evenodd"/><path d="M-301.72-750.3c173.63,0,336.13-58.22,470-168.3a79.6,79.6,0,0,1,50-18,78.92,78.92,0,0,1,17.85,2,78.1,78.1,0,0,1,33.25,16.77A736.07,736.07,0,0,0,488.73-793.42,737.78,737.78,0,0,0,738.48-750.3a77.76,77.76,0,0,1,43.1,13A78.92,78.92,0,0,1,817-671.48v548c0,138.93-63,258.92-177.28,338L263,475.12a78.17,78.17,0,0,1-32.46,13l-.08,0a79.72,79.72,0,0,1-12.19.92,78.74,78.74,0,0,1-45.57-14.56l-375.81-260c-114.27-79.09-177.23-199.08-177.23-338v-548a78.92,78.92,0,0,1,35-65.5A78.07,78.07,0,0,1-301.72-750.3Z" fill="none" stroke="#e3dfd9" stroke-miterlimit="10" stroke-width="0.61" fill-rule="evenodd"/><path d="M-295-743.49c171.39,0,331.79-57.46,463.9-166.12a78.52,78.52,0,0,1,49.39-17.73,78,78,0,0,1,17.62,2,77.06,77.06,0,0,1,32.83,16.56A726.82,726.82,0,0,0,485.24-786a728.26,728.26,0,0,0,246.53,42.56,76.81,76.81,0,0,1,42.54,12.8,77.93,77.93,0,0,1,35,65v540.89c0,137.13-62.15,255.56-175,333.58l-372,257.3a77.27,77.27,0,0,1-32,12.82h-.09a78,78,0,0,1-57-13.47l-371-256.66C-310.5,130.72-372.64,12.28-372.64-124.79V-665.68a77.88,77.88,0,0,1,34.51-64.65A76.91,76.91,0,0,1-295-743.49Z" fill="none" stroke="#e3dfd8" stroke-miterlimit="10" stroke-width="0.63" fill-rule="evenodd"/><path d="M-288.3-736.68c169.15,0,327.45-56.71,457.83-163.94a77.57,77.57,0,0,1,48.75-17.5,77.05,77.05,0,0,1,17.38,2,75.86,75.86,0,0,1,32.4,16.34A717.28,717.28,0,0,0,481.74-778.68a719.06,719.06,0,0,0,243.31,42A75.72,75.72,0,0,1,767-724a76.91,76.91,0,0,1,34.53,64.15v533.8c0,135.33-61.34,252.22-172.69,329.21L261.79,457.05a76.08,76.08,0,0,1-31.63,12.65h-.08a75.6,75.6,0,0,1-11.87.9,76.69,76.69,0,0,1-44.38-14.19l-366.09-253.3C-303.57,126.08-364.9,9.19-364.9-126.09v-533.8a76.88,76.88,0,0,1,34-63.8A75.93,75.93,0,0,1-288.3-736.68Z" fill="none" stroke="#e2ded7" stroke-miterlimit="10" stroke-width="0.65" fill-rule="evenodd"/><path d="M-281.58-729.87c166.9,0,323.1-56,451.75-161.76a76.56,76.56,0,0,1,48.1-17.27A76.16,76.16,0,0,1,235.42-907a74.87,74.87,0,0,1,32,16.12A707.54,707.54,0,0,0,478.25-771.32a709.29,709.29,0,0,0,240.09,41.45,74.64,74.64,0,0,1,41.41,12.48,75.88,75.88,0,0,1,34.06,63.3v526.71c0,133.53-60.51,248.86-170.39,324.83L261.2,448A75,75,0,0,1,230,460.5h-.08a76.06,76.06,0,0,1-55.51-13.12L-186.81,197.45c-109.83-76-170.35-191.35-170.35-324.83V-654.09a75.89,75.89,0,0,1,33.59-63A74.93,74.93,0,0,1-281.58-729.87Z" fill="none" stroke="#e1ddd7" stroke-miterlimit="10" stroke-width="0.67" fill-rule="evenodd"/><path d="M-274.87-723.06c164.66,0,318.76-55.2,445.68-159.58a75.53,75.53,0,0,1,47.45-17,74.86,74.86,0,0,1,16.93,1.9,73.84,73.84,0,0,1,31.53,15.89,698.25,698.25,0,0,0,208,117.94,699.85,699.85,0,0,0,236.87,40.89,73.7,73.7,0,0,1,40.86,12.32,74.89,74.89,0,0,1,33.59,62.45v519.61c0,131.74-59.7,245.52-168.1,320.46L260.62,439a74.17,74.17,0,0,1-30.78,12.3h-.09a73.93,73.93,0,0,1-11.55.88A74.75,74.75,0,0,1,175,438.36L-181.36,191.78c-108.35-75-168-188.77-168-320.46V-648.29a74.87,74.87,0,0,1,33.13-62.12A73.87,73.87,0,0,1-274.87-723.06Z" fill="none" stroke="#e1ddd6" stroke-miterlimit="10" stroke-width="0.69" fill-rule="evenodd"/><path d="M-268.15-716.24c162.41,0,314.41-54.45,439.6-157.41a74.52,74.52,0,0,1,46.81-16.81A73.38,73.38,0,0,1,235-888.59a72.69,72.69,0,0,1,31.1,15.67A688.86,688.86,0,0,0,471.26-756.58,690.28,690.28,0,0,0,704.9-716.24a72.67,72.67,0,0,1,40.3,12.14,73.88,73.88,0,0,1,33.13,61.6V-130c0,129.93-58.89,242.16-165.81,316.08L260,430a73.14,73.14,0,0,1-30.37,12.14h-.08a73.85,73.85,0,0,1-54-12.78l-351.5-243.21C-282.78,112.14-341.67-.08-341.67-130V-642.5A73.87,73.87,0,0,1-309-703.77,72.88,72.88,0,0,1-268.15-716.24Z" fill="none" stroke="#e0dcd5" stroke-miterlimit="10" stroke-width="0.71" fill-rule="evenodd"/><path d="M-261.44-709.43c160.17,0,310.07-53.7,433.53-155.22a73.56,73.56,0,0,1,46.16-16.59,72.42,72.42,0,0,1,16.46,1.84,71.75,71.75,0,0,1,30.68,15.45A679,679,0,0,0,467.76-749.22a680.61,680.61,0,0,0,230.43,39.79,71.59,71.59,0,0,1,39.73,12,72.86,72.86,0,0,1,32.66,60.75v505.43c0,128.14-58.07,238.82-163.51,311.72L259.45,420.92a72,72,0,0,1-29.94,12h-.08a72.82,72.82,0,0,1-53.26-12.6L-170.46,180.45C-275.86,107.5-333.93-3.18-333.93-131.27V-636.7a72.84,72.84,0,0,1,32.21-60.42A71.73,71.73,0,0,1-261.44-709.43Z" fill="none" stroke="#e0dcd4" stroke-miterlimit="10" stroke-width="0.72" fill-rule="evenodd"/><path d="M-254.72-702.62c157.92,0,305.72-52.94,427.46-153A72.5,72.5,0,0,1,218.24-872a71.6,71.6,0,0,1,16.23,1.81A70.71,70.71,0,0,1,264.72-855,669.61,669.61,0,0,0,464.26-741.85a671.17,671.17,0,0,0,227.21,39.23,70.56,70.56,0,0,1,39.18,11.82,71.85,71.85,0,0,1,32.19,59.9v498.34c0,126.34-57.26,235.46-161.22,307.34L258.87,411.88a71,71,0,0,1-29.52,11.8h-.08a71.93,71.93,0,0,1-52.51-12.43L-165,174.78c-103.91-71.93-161.17-181-161.17-307.34V-630.9a71.85,71.85,0,0,1,31.75-59.58A70.73,70.73,0,0,1-254.72-702.62Z" fill="none" stroke="#dfdbd4" stroke-miterlimit="10" stroke-width="0.74" fill-rule="evenodd"/><path d="M-248-695.81c155.68,0,301.38-52.19,421.39-150.86a71.49,71.49,0,0,1,44.86-16.13,70.62,70.62,0,0,1,16,1.78,69.67,69.67,0,0,1,29.82,15A660.56,660.56,0,0,0,460.77-734.48a661.64,661.64,0,0,0,224,38.67,69.55,69.55,0,0,1,38.61,11.65,70.88,70.88,0,0,1,31.73,59v491.25c0,124.55-56.45,232.11-158.93,303L258.29,402.85a69.91,69.91,0,0,1-29.11,11.62h-.08a70.81,70.81,0,0,1-51.75-12.26L-159.57,169.11C-262,98.21-318.44-9.36-318.44-133.86V-625.11a70.84,70.84,0,0,1,31.29-58.73A69.69,69.69,0,0,1-248-695.81Z" fill="none" stroke="#dfdad3" stroke-miterlimit="10" stroke-width="0.76" fill-rule="evenodd"/><path d="M-241.3-689c153.44,0,297-51.43,415.32-148.68a70.48,70.48,0,0,1,44.21-15.9A69.73,69.73,0,0,1,234-851.83,68.64,68.64,0,0,1,263.38-837,651,651,0,0,0,457.27-727.11,652.45,652.45,0,0,0,678-689a68.48,68.48,0,0,1,38.05,11.49,69.83,69.83,0,0,1,31.26,58.2v484.16c0,122.74-55.62,228.76-156.62,298.59l-333,230.37A68.93,68.93,0,0,1,229,405.27h-.08a69.94,69.94,0,0,1-51-12.09l-332-229.75C-255.07,93.56-310.7-12.45-310.7-135.15V-619.31a69.85,69.85,0,0,1,30.83-57.89A68.68,68.68,0,0,1-241.3-689Z" fill="none" stroke="#dedad2" stroke-miterlimit="10" stroke-width="0.78" fill-rule="evenodd"/><path d="M-234.58-682.19c151.19,0,292.69-50.68,409.24-146.5a69.45,69.45,0,0,1,43.56-15.67,68.93,68.93,0,0,1,15.54,1.72,67.62,67.62,0,0,1,28.95,14.57A641.29,641.29,0,0,0,453.78-719.75a642.64,642.64,0,0,0,217.55,37.56,67.43,67.43,0,0,1,37.49,11.33,68.84,68.84,0,0,1,30.79,57.35v477.06c0,121-54.81,225.41-154.33,294.22l-328.16,227a67.86,67.86,0,0,1-28.27,11.28h-.07a67.94,67.94,0,0,1-10.6.79,68.72,68.72,0,0,1-39.66-12.7L-148.67,157.77C-248.14,88.92-303-15.54-303-136.45V-613.51a68.82,68.82,0,0,1,30.37-57A67.61,67.61,0,0,1-234.58-682.19Z" fill="none" stroke="#ded9d2" stroke-miterlimit="10" stroke-width="0.8" fill-rule="evenodd"/><path d="M-227.87-675.38c149,0,288.35-49.92,403.17-144.32a68.48,68.48,0,0,1,42.92-15.44,68.08,68.08,0,0,1,15.3,1.69,66.56,66.56,0,0,1,28.53,14.35A631.82,631.82,0,0,0,450.28-712.38a633.24,633.24,0,0,0,214.33,37,66.43,66.43,0,0,1,36.93,11.16,67.84,67.84,0,0,1,30.33,56.51v470c0,119.15-54,222.06-152,289.84L256.53,375.75a66.77,66.77,0,0,1-27.84,11.1l-.07,0a68.48,68.48,0,0,1-10.45.77,67.64,67.64,0,0,1-39.06-12.52l-322.33-223c-98-67.83-152-170.74-152-289.84v-470a67.8,67.8,0,0,1,29.91-56.2A66.55,66.55,0,0,1-227.87-675.38Z" fill="none" stroke="#ddd9d1" stroke-miterlimit="10" stroke-width="0.82" fill-rule="evenodd"/><path d="M-221.15-668.57c146.7,0,284-49.17,397.09-142.14a67.53,67.53,0,0,1,42.27-15.21,67.19,67.19,0,0,1,15.07,1.66,65.53,65.53,0,0,1,28.1,14.13A622.43,622.43,0,0,0,446.79-705a623.66,623.66,0,0,0,211.1,36.44,65.4,65.4,0,0,1,36.38,11,66.83,66.83,0,0,1,29.85,55.65V-139c0,117.35-53.18,218.7-149.74,285.46L256,366.71a65.7,65.7,0,0,1-27.42,10.94h-.08a66.7,66.7,0,0,1-48.76-11.57L-137.77,146.43C-234.29,79.63-287.47-21.73-287.47-139V-601.92A66.8,66.8,0,0,1-258-657.27,65.55,65.55,0,0,1-221.15-668.57Z" fill="none" stroke="#ddd8d0" stroke-miterlimit="10" stroke-width="0.83" fill-rule="evenodd"/><path d="M-214.44-661.75c144.46,0,279.66-48.42,391-140a66.47,66.47,0,0,1,41.61-15A66.24,66.24,0,0,1,233-815.07a64.55,64.55,0,0,1,27.67,13.91A612.77,612.77,0,0,0,443.29-697.65a614,614,0,0,0,207.89,35.9A64.39,64.39,0,0,1,687-650.92a65.81,65.81,0,0,1,29.39,54.8v455.79C716.38-24.78,664,75,568.93,140.76L255.37,357.68a64.63,64.63,0,0,1-27,10.76l-.07,0a65.81,65.81,0,0,1-48-11.4l-312.6-216.3C-227.36,75-279.73-24.82-279.73-140.33V-596.12a65.81,65.81,0,0,1,29-54.51A64.56,64.56,0,0,1-214.44-661.75Z" fill="none" stroke="#dcd7cf" stroke-miterlimit="10" stroke-width="0.85" fill-rule="evenodd"/><path d="M-207.72-654.94c142.21,0,275.31-47.67,385-137.78a65.42,65.42,0,0,1,41-14.76,64.25,64.25,0,0,1,14.6,1.61A63.44,63.44,0,0,1,260-792.19,603.36,603.36,0,0,0,439.79-690.28a604.56,604.56,0,0,0,204.67,35.34,63.37,63.37,0,0,1,35.25,10.66,64.81,64.81,0,0,1,28.93,54v448.7c0,113.75-51.56,212-145.16,276.72L254.78,348.64a63.65,63.65,0,0,1-26.58,10.6h-.07A64.72,64.72,0,0,1,180.87,348L-126.87,135.1C-220.43,70.34-272-27.91-272-141.62v-448.7A64.79,64.79,0,0,1-243.45-644,63.51,63.51,0,0,1-207.72-654.94Z" fill="none" stroke="#dcd7cf" stroke-miterlimit="10" stroke-width="0.87" fill-rule="evenodd"/><path d="M-201-648.13c140,0,271-46.91,378.88-135.6a64.39,64.39,0,0,1,40.32-14.53,63.29,63.29,0,0,1,14.37,1.58,62.38,62.38,0,0,1,26.82,13.46A593.79,593.79,0,0,0,436.3-682.91a595.28,595.28,0,0,0,201.45,34.78,62.35,62.35,0,0,1,34.69,10.5,63.8,63.8,0,0,1,28.45,53.1v441.61c0,112-50.73,208.65-142.86,272.35L254.2,339.61A62.6,62.6,0,0,1,228,350l-.07,0A63.83,63.83,0,0,1,181.46,339L-121.42,129.43C-213.5,65.69-264.24-31-264.24-142.92V-584.53a63.77,63.77,0,0,1,28.07-52.81A62.43,62.43,0,0,1-201-648.13Z" fill="none" stroke="#dbd6ce" stroke-miterlimit="10" stroke-width="0.89" fill-rule="evenodd"/><path d="M-194.29-641.32c137.72,0,266.62-46.16,372.8-133.42A63.43,63.43,0,0,1,218.18-789a62.55,62.55,0,0,1,14.15,1.55,61.31,61.31,0,0,1,26.38,13.24A584.37,584.37,0,0,0,432.8-675.54,585.84,585.84,0,0,0,631-641.32,61.28,61.28,0,0,1,665.16-631a62.79,62.79,0,0,1,28,52.25v434.52c0,110.15-49.92,205.3-140.56,268l-299,206.81a61.57,61.57,0,0,1-25.75,10.26h-.07A62.77,62.77,0,0,1,182,330l-298-206.2c-90.6-62.71-140.53-157.86-140.53-268V-578.73a62.76,62.76,0,0,1,27.61-52A61.45,61.45,0,0,1-194.29-641.32Z" fill="none" stroke="#dad6cd" stroke-miterlimit="10" stroke-width="0.91" fill-rule="evenodd"/><path d="M-187.58-634.51c135.48,0,262.28-45.4,366.73-131.24a62.41,62.41,0,0,1,39-14.07,61.58,61.58,0,0,1,13.91,1.52,60.33,60.33,0,0,1,26,13,574.76,574.76,0,0,0,171.27,97.1,576,576,0,0,0,195,33.67,60.24,60.24,0,0,1,33.56,10.17,61.78,61.78,0,0,1,27.53,51.41v427.42c0,108.36-49.11,202-138.27,263.6L253,321.54a60.42,60.42,0,0,1-25.32,10.08h-.07a61.72,61.72,0,0,1-45-10.7L-110.52,118.09C-199.64,56.4-248.75-37.19-248.75-145.51V-572.93a61.77,61.77,0,0,1,27.14-51.13A60.45,60.45,0,0,1-187.58-634.51Z" fill="none" stroke="#dad5cd" stroke-miterlimit="10" stroke-width="0.92" fill-rule="evenodd"/><path d="M-180.87-627.7c133.24,0,257.94-44.65,360.66-129.06a61.4,61.4,0,0,1,38.38-13.84,60.75,60.75,0,0,1,13.68,1.49,59.29,59.29,0,0,1,25.52,12.8,565.44,565.44,0,0,0,168.44,95.5A566.59,566.59,0,0,0,617.6-627.7a59.23,59.23,0,0,1,33,10,60.78,60.78,0,0,1,27.06,50.55V-146.8c0,106.56-48.3,198.6-136,259.22L252.45,312.51a59.51,59.51,0,0,1-24.91,9.91h-.06a60.79,60.79,0,0,1-44.26-10.54L-105.07,112.42C-192.72,51.76-241-40.28-241-146.8V-567.14a60.76,60.76,0,0,1,26.69-50.28A59.36,59.36,0,0,1-180.87-627.7Z" fill="none" stroke="#d9d5cc" stroke-miterlimit="10" stroke-width="0.94" fill-rule="evenodd"/><path d="M-174.15-620.89c131,0,253.59-43.89,354.59-126.88a60.4,60.4,0,0,1,37.72-13.61,59.8,59.8,0,0,1,13.45,1.46,58.2,58.2,0,0,1,25.09,12.58,556,556,0,0,0,165.62,93.9,557.09,557.09,0,0,0,188.56,32.55A58.14,58.14,0,0,1,643.33-611a59.76,59.76,0,0,1,26.59,49.7V-148.1c0,104.77-47.48,195.25-133.68,254.85L251.87,303.47a58.52,58.52,0,0,1-24.49,9.74h-.06a59.56,59.56,0,0,1-43.52-10.36L-99.62,106.75C-185.79,47.11-233.27-43.37-233.27-148.1V-561.34A59.72,59.72,0,0,1-207-610.77,58.32,58.32,0,0,1-174.15-620.89Z" fill="none" stroke="#d9d4cb" stroke-miterlimit="10" stroke-width="0.96" fill-rule="evenodd"/><path d="M-167.44-614.08c128.75,0,249.25-43.14,348.52-124.7a59.37,59.37,0,0,1,37.08-13.38,58.89,58.89,0,0,1,13.21,1.43A57.31,57.31,0,0,1,256-738.37a546.12,546.12,0,0,0,162.78,92.29,547.38,547.38,0,0,0,185.35,32,57,57,0,0,1,31.88,9.69,58.72,58.72,0,0,1,26.13,48.85v406.15c0,103-46.67,191.9-131.39,250.47L251.28,294.44A57.47,57.47,0,0,1,227.22,304h-.07a58.64,58.64,0,0,1-42.76-10.19L-94.17,101.08C-178.86,42.47-225.52-46.47-225.52-149.39V-555.54a58.73,58.73,0,0,1,25.76-48.59A57.23,57.23,0,0,1-167.44-614.08Z" fill="none" stroke="#d8d3cb" stroke-miterlimit="10" stroke-width="0.98" fill-rule="evenodd"/><path d="M-160.72-607.26c126.5,0,244.9-42.39,342.44-122.53a58.42,58.42,0,0,1,36.43-13.15,57.42,57.42,0,0,1,13,1.4,56.16,56.16,0,0,1,24.24,12.14,536.51,536.51,0,0,0,160,90.69,538.09,538.09,0,0,0,182.12,31.45,56.11,56.11,0,0,1,31.33,9.51,57.76,57.76,0,0,1,25.66,48v399.05c0,101.17-45.85,188.55-129.1,246.1L250.7,285.4a56.3,56.3,0,0,1-23.65,9.4H227a56.71,56.71,0,0,1-8.86.65A57.64,57.64,0,0,1,185,284.79L-88.72,95.41c-83.21-57.59-129.06-145-129.06-246.1V-549.75a57.71,57.71,0,0,1,25.31-47.74A56.19,56.19,0,0,1-160.72-607.26Z" fill="none" stroke="#d8d3ca" stroke-miterlimit="10" stroke-width="1" fill-rule="evenodd"/><path d="M-154-600.45c124.26,0,240.56-41.64,336.37-120.34a57.34,57.34,0,0,1,35.78-12.93,56.68,56.68,0,0,1,12.76,1.37,55.15,55.15,0,0,1,23.8,11.92,527.31,527.31,0,0,0,157.13,89.09,528.62,528.62,0,0,0,178.91,30.89,55.09,55.09,0,0,1,30.76,9.35,56.72,56.72,0,0,1,25.19,47.15v392c0,99.37-45,185.19-126.8,241.73L250.11,276.37a55.35,55.35,0,0,1-23.22,9.23h-.06a57.22,57.22,0,0,1-8.7.63,56.63,56.63,0,0,1-32.57-10.48l-268.84-186C-165,33.18-210-52.65-210-152v-392a56.72,56.72,0,0,1,24.85-46.9A55.19,55.19,0,0,1-154-600.45Z" fill="none" stroke="#d7d2c9" stroke-miterlimit="10" stroke-width="1.02" fill-rule="evenodd"/><path d="M-147.29-593.64c122,0,236.21-40.88,330.29-118.16a56.33,56.33,0,0,1,35.14-12.7,55.71,55.71,0,0,1,12.52,1.34A54.22,54.22,0,0,1,254-711.46,517.9,517.9,0,0,0,408.33-624,519.18,519.18,0,0,0,584-593.64a54,54,0,0,1,30.2,9.19A55.72,55.72,0,0,1,639-538.15v384.88c0,97.56-44.22,181.84-124.51,237.35L249.53,267.34a54.25,54.25,0,0,1-22.8,9.05h-.06a55.63,55.63,0,0,1-40.52-9.67l-264-182.65C-158.08,28.53-202.29-55.74-202.29-153.27V-538.15a55.72,55.72,0,0,1,24.38-46.06A54.19,54.19,0,0,1-147.29-593.64Z" fill="none" stroke="#d7d2c9" stroke-miterlimit="10" stroke-width="1.03" fill-rule="evenodd"/><path d="M-140.58-586.83c119.77,0,231.88-40.13,324.22-116a55.32,55.32,0,0,1,34.49-12.47A54.88,54.88,0,0,1,230.42-714a53,53,0,0,1,22.94,11.48,508.17,508.17,0,0,0,151.48,85.88A509.45,509.45,0,0,0,577.3-586.83a53.05,53.05,0,0,1,29.65,9,54.73,54.73,0,0,1,24.26,45.46v377.78c0,95.77-43.41,178.49-122.21,233L249,258.3a53.4,53.4,0,0,1-22.39,8.89h-.06a54.68,54.68,0,0,1-39.76-9.51L-72.38,78.41c-78.77-54.52-122.17-137.24-122.17-233V-532.35a54.67,54.67,0,0,1,23.93-45.21A53.08,53.08,0,0,1-140.58-586.83Z" fill="none" stroke="#d6d1c8" stroke-miterlimit="10" stroke-width="1.05" fill-rule="evenodd"/><path d="M-133.86-580c117.52,0,227.53-39.37,318.15-113.8a54.3,54.3,0,0,1,33.83-12.24,53.36,53.36,0,0,1,12.06,1.29,52,52,0,0,1,22.52,11.25,498.8,498.8,0,0,0,148.64,84.28A500,500,0,0,0,570.59-580a52,52,0,0,1,29.08,8.86,53.69,53.69,0,0,1,23.79,44.6v370.7c0,94-42.59,175.14-119.91,228.6L248.36,249.27a52.25,52.25,0,0,1-22,8.71h-.06a53.65,53.65,0,0,1-39-9.33L-66.93,72.74c-77.29-53.5-119.88-134.67-119.88-228.6v-370.7a53.68,53.68,0,0,1,23.47-44.36A52.08,52.08,0,0,1-133.86-580Z" fill="none" stroke="#d6d1c7" stroke-miterlimit="10" stroke-width="1.07" fill-rule="evenodd"/><path d="M-127.15-573.21c115.28,0,223.19-38.62,312.08-111.62a53.36,53.36,0,0,1,33.19-12,52.45,52.45,0,0,1,11.82,1.26,51,51,0,0,1,22.09,11,489.53,489.53,0,0,0,145.82,82.68,490.44,490.44,0,0,0,166,28.66,50.88,50.88,0,0,1,28.52,8.7,52.67,52.67,0,0,1,23.33,43.75v363.6C615.72-65,574,14.63,498.1,67.07L247.78,240.23a51.17,51.17,0,0,1-21.55,8.55h0a52.75,52.75,0,0,1-38.27-9.16L-61.48,67.07C-137.29,14.6-179.07-65-179.07-157.16v-363.6a52.68,52.68,0,0,1,23-43.52A51,51,0,0,1-127.15-573.21Z" fill="none" stroke="#d5d0c7" stroke-miterlimit="10" stroke-width="1.09" fill-rule="evenodd"/><path d="M-120.44-566.4c113,0,218.85-37.86,306-109.44a52.32,52.32,0,0,1,32.54-11.78,51.5,51.5,0,0,1,11.59,1.23,49.88,49.88,0,0,1,21.66,10.81,480,480,0,0,0,143,81.08,481,481,0,0,0,162.81,28.1,49.93,49.93,0,0,1,28,8.53A51.72,51.72,0,0,1,608-515v356.51C608-68.08,567,10,492.65,61.4L247.2,231.2a50.17,50.17,0,0,1-21.13,8.37H226a50.59,50.59,0,0,1-7.9.57,51.6,51.6,0,0,1-29.61-9.56L-56,61.4C-130.36,10-171.32-68.11-171.32-158.45V-515a51.69,51.69,0,0,1,22.54-42.68A50.07,50.07,0,0,1-120.44-566.4Z" fill="none" stroke="#d5d0c6" stroke-miterlimit="10" stroke-width="1.11" fill-rule="evenodd"/><path d="M-113.72-559.59c110.79,0,214.5-37.11,299.93-107.26A51.31,51.31,0,0,1,218.1-678.4a50.83,50.83,0,0,1,11.37,1.2,48.91,48.91,0,0,1,21.22,10.59,470.47,470.47,0,0,0,140.17,79.47,471.47,471.47,0,0,0,159.58,27.55,48.86,48.86,0,0,1,27.4,8.37,50.67,50.67,0,0,1,22.39,42.05v349.42c0,88.58-40.14,165.09-113,215.48L246.61,222.16a49,49,0,0,1-20.7,8.21h-.06a50.57,50.57,0,0,1-36.77-8.82L-50.58,55.73c-72.85-50.42-113-126.93-113-215.48V-509.17A50.66,50.66,0,0,1-141.49-551,49,49,0,0,1-113.72-559.59Z" fill="none" stroke="#d4cfc5" stroke-miterlimit="10" stroke-width="1.13" fill-rule="evenodd"/><path d="M-107-552.77c108.55,0,210.16-36.36,293.86-105.09a50.3,50.3,0,0,1,31.24-11.32A49.88,49.88,0,0,1,229.23-668,48,48,0,0,1,250-657.64a460.88,460.88,0,0,0,137.33,77.87,462.06,462.06,0,0,0,156.37,27,47.75,47.75,0,0,1,26.83,8.2,49.65,49.65,0,0,1,21.93,41.2V-161c0,86.78-39.33,161.73-110.74,211.1L246,213.13a48.13,48.13,0,0,1-20.29,8h-.05a49.06,49.06,0,0,1-7.59.54,49.69,49.69,0,0,1-28.43-9.18L-45.13,50.06C-116.51.66-155.84-74.29-155.84-161V-503.37a49.65,49.65,0,0,1,21.63-41A47.93,47.93,0,0,1-107-552.77Z" fill="none" stroke="#d4cec5" stroke-miterlimit="10" stroke-width="1.14" fill-rule="evenodd"/><path d="M-100.29-546C6-546,105.52-581.57,187.49-648.86a49.29,49.29,0,0,1,30.6-11.1,49,49,0,0,1,10.9,1.14,46.88,46.88,0,0,1,20.37,10.15,451.59,451.59,0,0,0,134.5,76.27A452.57,452.57,0,0,0,537-546a46.78,46.78,0,0,1,26.28,8,48.68,48.68,0,0,1,21.46,40.36v335.23c0,85-38.52,158.39-108.45,206.74L245.45,204.1A47.22,47.22,0,0,1,225.58,212h-.05a49.61,49.61,0,0,1-7.43.52,48.57,48.57,0,0,1-27.84-9L-39.68,44.4C-109.58-4-148.09-77.39-148.09-162.34V-497.57a48.65,48.65,0,0,1,21.16-40.14A47,47,0,0,1-100.29-546Z" fill="none" stroke="#d3cec4" stroke-miterlimit="10" stroke-width="1.16" fill-rule="evenodd"/><path d="M-93.58-539.15c104.06,0,201.47-34.85,281.72-100.72a48.23,48.23,0,0,1,29.94-10.87,48.08,48.08,0,0,1,10.67,1.11,45.7,45.7,0,0,1,19.94,9.94A441.93,441.93,0,0,0,380.37-565a442.79,442.79,0,0,0,149.92,25.89A45.79,45.79,0,0,1,556-531.28a47.66,47.66,0,0,1,21,39.5v328.15c0,83.18-37.7,155-106.14,202.36l-226,156.33a45.91,45.91,0,0,1-19.44,7.69h-.06a47.51,47.51,0,0,1-34.51-8.3L-34.23,38.73C-102.65-8.63-140.35-80.48-140.35-163.63V-491.78a47.62,47.62,0,0,1,20.71-39.29A45.89,45.89,0,0,1-93.58-539.15Z" fill="none" stroke="#d3cdc3" stroke-miterlimit="10" stroke-width="1.18" fill-rule="evenodd"/><path d="M-86.86-532.34c101.81,0,197.12-34.1,275.64-98.54a47.26,47.26,0,0,1,29.29-10.64,47.2,47.2,0,0,1,10.44,1.08A44.72,44.72,0,0,1,248-630.72a432.73,432.73,0,0,0,128.85,73.05,433.37,433.37,0,0,0,146.71,25.33,44.72,44.72,0,0,1,25.15,7.71A46.63,46.63,0,0,1,569.26-486v321.05c0,81.39-36.88,151.69-103.85,198L244.28,186a45,45,0,0,1-19,7.52h-.05a45.43,45.43,0,0,1-7.11.5,46.67,46.67,0,0,1-26.66-8.62L-28.78,33.06c-66.94-46.33-103.83-116.63-103.83-198V-486a46.64,46.64,0,0,1,20.25-38.45A44.92,44.92,0,0,1-86.86-532.34Z" fill="none" stroke="#d2cdc3" stroke-miterlimit="10" stroke-width="1.2" fill-rule="evenodd"/><path d="M-80.15-525.53c99.57,0,192.78-33.34,269.57-96.36a46.25,46.25,0,0,1,28.65-10.41,45.64,45.64,0,0,1,10.2,1,43.68,43.68,0,0,1,19.08,9.5,423.24,423.24,0,0,0,126,71.45,423.82,423.82,0,0,0,143.48,24.77,43.77,43.77,0,0,1,24.6,7.54,45.65,45.65,0,0,1,20.06,37.81v314c0,79.59-36.07,148.33-101.56,193.61L243.69,177a43.79,43.79,0,0,1-18.6,7.35H225a45.59,45.59,0,0,1-33-7.95l-215.35-149c-65.46-45.31-101.53-114-101.53-193.61v-314a45.61,45.61,0,0,1,19.78-37.6A43.84,43.84,0,0,1-80.15-525.53Z" fill="none" stroke="#d2ccc2" stroke-miterlimit="10" stroke-width="1.22" fill-rule="evenodd"/><path d="M-73.43-518.72c97.32,0,188.43-32.59,263.49-94.18a45.24,45.24,0,0,1,28-10.18,44.91,44.91,0,0,1,10,1,42.7,42.7,0,0,1,18.65,9.28,413.53,413.53,0,0,0,123.19,69.85,414.64,414.64,0,0,0,140.27,24.21,42.67,42.67,0,0,1,24,7.38,44.63,44.63,0,0,1,19.59,37v306.87c0,77.78-35.25,145-99.26,189.23L243.11,168a43,43,0,0,1-18.18,7.18h-.05a43.9,43.9,0,0,1-6.8.47,44.55,44.55,0,0,1-25.47-8.25L-17.88,21.72c-64-44.28-99.24-111.47-99.24-189.23V-474.39a44.59,44.59,0,0,1,19.33-36.75A42.69,42.69,0,0,1-73.43-518.72Z" fill="none" stroke="#d1ccc1" stroke-miterlimit="10" stroke-width="1.23" fill-rule="evenodd"/><path d="M-66.72-511.91c95.08,0,184.09-31.83,257.42-92a44.29,44.29,0,0,1,27.35-10,43.5,43.5,0,0,1,9.75,1A41.49,41.49,0,0,1,246-603.81a404,404,0,0,0,120.37,68.24,404.82,404.82,0,0,0,137,23.66,41.58,41.58,0,0,1,23.47,7.22A43.61,43.61,0,0,1,546-468.59v299.78c0,76-34.44,141.63-97,184.86L242.53,158.93a42,42,0,0,1-17.77,7h0a43,43,0,0,1-6.63.46,43.65,43.65,0,0,1-24.89-8.07L-12.43,16.05c-62.51-43.26-96.95-108.9-96.95-184.86V-468.59A43.6,43.6,0,0,1-90.51-504.5,41.7,41.7,0,0,1-66.72-511.91Z" fill="none" stroke="#d1cbc1" stroke-miterlimit="10" stroke-width="1.25" fill-rule="evenodd"/><path d="M-60-505.1c92.84,0,179.75-31.08,251.35-89.82a43.27,43.27,0,0,1,26.71-9.72,42,42,0,0,1,9.51,1,40.45,40.45,0,0,1,17.79,8.83A394.6,394.6,0,0,0,362.89-528.2a395.44,395.44,0,0,0,133.83,23.1A40.56,40.56,0,0,1,519.63-498a42.58,42.58,0,0,1,18.66,35.25V-170.1c0,74.19-33.63,138.27-94.68,180.48L241.94,149.89a40.84,40.84,0,0,1-17.34,6.84h0a42.35,42.35,0,0,1-30.77-7.43L-7,10.38C-68-31.85-101.63-95.94-101.63-170.1V-462.79a42.61,42.61,0,0,1,18.4-35.07A40.7,40.7,0,0,1-60-505.1Z" fill="none" stroke="#d0cbc0" stroke-miterlimit="10" stroke-width="1.27" fill-rule="evenodd"/><path d="M-53.29-498.29c90.59,0,175.4-30.32,245.27-87.64A42.24,42.24,0,0,1,218-595.42a41.06,41.06,0,0,1,9.28.94,39.47,39.47,0,0,1,17.36,8.61,385.18,385.18,0,0,0,114.71,65A386,386,0,0,0,490-498.29a39.54,39.54,0,0,1,22.35,6.89A41.61,41.61,0,0,1,530.55-457V-171.4c0,72.4-32.82,134.93-92.39,176.11L241.36,140.86a39.78,39.78,0,0,1-16.93,6.66h0a41.42,41.42,0,0,1-30-7.27L-1.54,4.71C-61.08-36.5-93.89-99-93.89-171.4V-457a41.61,41.61,0,0,1,17.94-34.23A39.7,39.7,0,0,1-53.29-498.29Z" fill="none" stroke="#d0cabf" stroke-miterlimit="10" stroke-width="1.29" fill-rule="evenodd"/><path d="M-46.58-491.47c88.35,0,171.06-29.58,239.21-85.46A41.13,41.13,0,0,1,218-586.2a40.18,40.18,0,0,1,9.05.91A38.47,38.47,0,0,1,244-576.9,375.28,375.28,0,0,0,355.9-513.47a376.18,376.18,0,0,0,127.38,22,38.49,38.49,0,0,1,21.79,6.72A40.59,40.59,0,0,1,522.8-451.2v278.51c0,70.59-32,131.57-90.08,171.74L240.78,131.82a38.76,38.76,0,0,1-16.51,6.5h0a39.57,39.57,0,0,1-6.17.42A40.62,40.62,0,0,1,195,131.23L3.91-.95C-54.15-41.14-86.15-102.12-86.15-172.69V-451.2a40.55,40.55,0,0,1,17.49-33.37A38.59,38.59,0,0,1-46.58-491.47Z" fill="none" stroke="#cfc9bf" stroke-miterlimit="10" stroke-width="1.31" fill-rule="evenodd"/><path d="M-39.86-484.66c86.1,0,166.71-28.82,233.13-83.28A40.18,40.18,0,0,1,218-577a39.26,39.26,0,0,1,8.81.88,37.49,37.49,0,0,1,16.51,8.17,366.08,366.08,0,0,0,109,61.83,366.76,366.76,0,0,0,124.17,21.44,37.44,37.44,0,0,1,21.23,6.56c10.39,6.83,17.26,19.37,17.26,32.7V-174c0,68.8-31.18,128.23-87.79,167.37L240.19,122.79a37.8,37.8,0,0,1-16.08,6.32h-.05a39.48,39.48,0,0,1-28.52-6.92L9.36-6.62C-47.22-45.79-78.4-105.22-78.4-174V-445.4a39.57,39.57,0,0,1,17-32.53A37.59,37.59,0,0,1-39.86-484.66Z" fill="none" stroke="#cfc9be" stroke-miterlimit="10" stroke-width="1.33" fill-rule="evenodd"/><path d="M-33.15-477.85c83.86,0,162.37-28.06,227.06-81.1A39.23,39.23,0,0,1,218-567.76a38.47,38.47,0,0,1,8.59.85A36.37,36.37,0,0,1,242.68-559a356.47,356.47,0,0,0,106.23,60.23,357.42,357.42,0,0,0,120.94,20.88,36.5,36.5,0,0,1,20.67,6.39c10.11,6.65,16.8,18.88,16.8,31.86v264.32c0,67-30.37,124.87-85.5,163l-182.21,126a36.72,36.72,0,0,1-15.67,6.16h0a37.79,37.79,0,0,1-5.84.39,38.59,38.59,0,0,1-21.93-7.14L14.81-12.29c-55.1-38.14-85.47-96-85.47-163V-439.6A38.57,38.57,0,0,1-54.1-471.29,36.6,36.6,0,0,1-33.15-477.85Z" fill="none" stroke="#cec8bd" stroke-miterlimit="10" stroke-width="1.34" fill-rule="evenodd"/><path d="M-26.43-471c81.61,0,158-27.31,221-78.92A38.2,38.2,0,0,1,218-558.54a37.58,37.58,0,0,1,8.36.82A35.28,35.28,0,0,1,242-550a347.06,347.06,0,0,0,103.4,58.63A348,348,0,0,0,463.14-471a35.42,35.42,0,0,1,20.1,6.23c9.83,6.47,16.33,18.39,16.33,31v257.23C499.57-111.38,470-55,416.37-18L239,104.72a35.67,35.67,0,0,1-15.25,6h0a37.09,37.09,0,0,1-5.69.37,37.6,37.6,0,0,1-21.34-7L20.26-18C-33.37-55.08-62.92-111.4-62.92-176.58V-433.81a37.58,37.58,0,0,1,16.11-30.84A35.55,35.55,0,0,1-26.43-471Z" fill="none" stroke="#cec8bd" stroke-miterlimit="10" stroke-width="1.36" fill-rule="evenodd"/><path d="M-19.72-464.23c79.37,0,153.68-26.55,214.91-76.74A37.2,37.2,0,0,1,218-549.32a36.67,36.67,0,0,1,8.12.79A34.4,34.4,0,0,1,241.34-541a337.54,337.54,0,0,0,100.58,57,338.21,338.21,0,0,0,114.5,19.77A34.39,34.39,0,0,1,476-458.16c9.54,6.28,15.86,17.9,15.86,30.15v250.14c0,63.4-28.74,118.17-80.91,154.24L238.44,95.69a34.67,34.67,0,0,1-14.82,5.81h0a36.47,36.47,0,0,1-26.28-6.4L25.71-23.63c-52.15-36.09-80.88-90.86-80.88-154.24V-428c0-12.15,6.22-23.69,15.64-30A34.45,34.45,0,0,1-19.72-464.23Z" fill="none" stroke="#cdc7bc" stroke-miterlimit="10" stroke-width="1.38" fill-rule="evenodd"/><path d="M-13-457.42c77.12,0,149.33-25.8,208.83-74.56A36.17,36.17,0,0,1,218-540.1a35.79,35.79,0,0,1,7.89.76A33.41,33.41,0,0,1,240.68-532a327.83,327.83,0,0,0,97.74,55.42,328.78,328.78,0,0,0,111.29,19.21,33.38,33.38,0,0,1,19,5.9c9.27,6.1,15.4,17.42,15.4,29.31v243c0,61.61-27.93,114.82-78.62,149.87l-167.61,116a33.5,33.5,0,0,1-14.41,5.64h0a35.31,35.31,0,0,1-25.52-6.24L31.16-29.3c-50.67-35.07-78.59-88.28-78.59-149.87v-243c0-11.79,6-23,15.18-29.15A33.48,33.48,0,0,1-13-457.42Z" fill="none" stroke="#cdc7bb" stroke-miterlimit="10" stroke-width="1.4" fill-rule="evenodd"/><path d="M-6.29-450.61c74.88,0,145-25,202.77-72.38A35.17,35.17,0,0,1,218-530.88a34.86,34.86,0,0,1,7.66.73A32.27,32.27,0,0,1,240-523.08a318.68,318.68,0,0,0,94.92,53.82A319.24,319.24,0,0,0,443-450.61a32.31,32.31,0,0,1,18.42,5.74c9,5.91,14.93,16.92,14.93,28.45v236C476.34-120.65,449.24-69,400-35L237.27,77.62a32.54,32.54,0,0,1-14,5.46h0A34.28,34.28,0,0,1,198.47,77L36.61-35c-49.19-34-76.3-85.71-76.3-145.49v-236c0-11.43,5.86-22.37,14.73-28.3A32.42,32.42,0,0,1-6.29-450.61Z" fill="none" stroke="#ccc6bb" stroke-miterlimit="10" stroke-width="1.42" fill-rule="evenodd"/><path d="M.42-443.8c72.64,0,140.65-24.29,196.7-70.2A34.23,34.23,0,0,1,218-521.66a33.41,33.41,0,0,1,7.42.71,31.16,31.16,0,0,1,13.93,6.84,309.24,309.24,0,0,0,92.09,52.21,309.56,309.56,0,0,0,104.84,18.1,31.28,31.28,0,0,1,17.87,5.58c8.7,5.72,14.46,16.43,14.46,27.6v228.86c0,58-26.29,108.12-74,141.12L236.69,68.58a31.46,31.46,0,0,1-13.57,5.3h0a33.39,33.39,0,0,1-24-5.89L42.06-40.64c-47.71-33-74-83.13-74-141.11V-410.62c0-11.08,5.68-21.71,14.27-27.46A31.41,31.41,0,0,1,.42-443.8Z" fill="none" stroke="#ccc6ba" stroke-miterlimit="10" stroke-width="1.43" fill-rule="evenodd"/><path d="M7.14-437c70.39,0,136.3-23.54,190.62-68A33.15,33.15,0,0,1,218-512.44a32.62,32.62,0,0,1,7.2.68,30.1,30.1,0,0,1,13.49,6.62,299.7,299.7,0,0,0,89.26,50.61A300.39,300.39,0,0,0,429.56-437a30.27,30.27,0,0,1,17.3,5.4c8.42,5.55,14,15.95,14,26.76V-183c0,56.21-25.48,104.77-71.73,136.75l-153,105.85A30.41,30.41,0,0,1,223,64.67h0A31.93,31.93,0,0,1,218,65a32.61,32.61,0,0,1-18.38-6L47.51-46.3C1.28-78.3-24.2-126.86-24.2-183V-404.82c0-10.72,5.49-21.05,13.8-26.62A30.43,30.43,0,0,1,7.14-437Z" fill="none" stroke="#cbc5b9" stroke-miterlimit="10" stroke-width="1.45" fill-rule="evenodd"/><path d="M13.85-430.17C82-430.17,145.81-453,198.4-496A32.14,32.14,0,0,1,218-503.22a31.74,31.74,0,0,1,7,.65,29.06,29.06,0,0,1,13.06,6.4,290.21,290.21,0,0,0,86.44,49,290.8,290.8,0,0,0,98.4,17,29.18,29.18,0,0,1,16.74,5.24c8.15,5.36,13.53,15.45,13.53,25.91v214.68c0,54.41-24.66,101.41-69.43,132.37L235.52,50.52a29.46,29.46,0,0,1-12.72,4.95h0a31,31,0,0,1-4.73.3,31.58,31.58,0,0,1-17.79-5.84L53-52c-44.76-31-69.42-78-69.42-132.37V-399c0-10.36,5.31-20.39,13.35-25.76A29.3,29.3,0,0,1,13.85-430.17Z" fill="none" stroke="#cbc5b9" stroke-miterlimit="10" stroke-width="1.47" fill-rule="evenodd"/><path d="M20.57-423.36c65.9,0,127.61-22,178.47-63.66A31.11,31.11,0,0,1,218-494a30.78,30.78,0,0,1,6.73.62,28.17,28.17,0,0,1,12.64,6.18,280.62,280.62,0,0,0,83.6,47.41,281.38,281.38,0,0,0,95.19,16.43,28.16,28.16,0,0,1,16.18,5.08c7.86,5.17,13.06,15,13.06,25v207.59c0,52.62-23.85,98.06-67.14,128L234.94,41.48a28.25,28.25,0,0,1-12.31,4.78h0a30.21,30.21,0,0,1-4.58.28,30.57,30.57,0,0,1-17.2-5.65L58.41-57.64C15.13-87.59-8.72-133-8.72-185.64V-393.23c0-10,5.13-19.73,12.89-24.92A28.23,28.23,0,0,1,20.57-423.36Z" fill="none" stroke="#cac4b8" stroke-miterlimit="10" stroke-width="1.49" fill-rule="evenodd"/><path d="M27.28-416.55A269.27,269.27,0,0,0,199.68-478,30.17,30.17,0,0,1,218-484.78a30,30,0,0,1,6.5.59,27.09,27.09,0,0,1,12.21,6,271.11,271.11,0,0,0,80.78,45.8,271.64,271.64,0,0,0,92,15.88A27.21,27.21,0,0,1,425-411.64c7.58,5,12.6,14.48,12.6,24.21v200.5c0,50.81-23,94.71-64.85,123.62L234.36,32.45a27.46,27.46,0,0,1-11.89,4.61h0a28.22,28.22,0,0,1-4.42.27,29.59,29.59,0,0,1-16.61-5.46L63.86-63.31C22.06-92.24-1-136.14-1-186.93v-200.5c0-9.65,4.94-19.07,12.42-24.08A27.25,27.25,0,0,1,27.28-416.55Z" fill="none" stroke="#cac4b8" stroke-miterlimit="10" stroke-width="1.51" fill-rule="evenodd"/><path d="M34-409.74A259.83,259.83,0,0,0,200.33-469,29.11,29.11,0,0,1,218-475.56a29,29,0,0,1,6.27.56A26,26,0,0,1,236-469.26,261.69,261.69,0,0,0,314-425.06a262.16,262.16,0,0,0,88.74,15.32A26.15,26.15,0,0,1,417.75-405c7.3,4.8,12.13,14,12.13,23.36v193.4c0,49-22.21,91.36-62.55,119.25L233.77,23.41a26.26,26.26,0,0,1-11.46,4.44h0a28.54,28.54,0,0,1-4.25.25,28.56,28.56,0,0,1-16-5.28L69.31-69C29-96.88,6.77-139.23,6.77-188.23v-193.4c0-9.29,4.76-18.42,12-23.24A26.23,26.23,0,0,1,34-409.74Z" fill="none" stroke="#c9c3b7" stroke-miterlimit="10" stroke-width="1.53" fill-rule="evenodd"/><path d="M40.71-402.93A250.42,250.42,0,0,0,201-460a28.08,28.08,0,0,1,17-6.29,28.14,28.14,0,0,1,6,.53,25,25,0,0,1,11.35,5.52,252.21,252.21,0,0,0,75.13,42.6A252.63,252.63,0,0,0,396-402.93a25.13,25.13,0,0,1,14.5,4.59c7,4.62,11.66,13.49,11.66,22.5v186.32c0,47.22-21.4,88-60.26,114.87l-128.69,89a25.3,25.3,0,0,1-11.05,4.27h0a26.56,26.56,0,0,1-4.1.25,27.64,27.64,0,0,1-15.43-5.1L74.76-74.65c-38.84-26.88-60.25-67.67-60.25-114.87V-375.84c0-8.93,4.58-17.75,11.51-22.38A25.13,25.13,0,0,1,40.71-402.93Z" fill="none" stroke="#c9c2b6" stroke-miterlimit="10" stroke-width="1.54" fill-rule="evenodd"/><path d="M47.43-396.12a240.94,240.94,0,0,0,154.18-54.94,27.14,27.14,0,0,1,16.33-6.06,26.78,26.78,0,0,1,5.81.5,24.09,24.09,0,0,1,10.92,5.3,242.59,242.59,0,0,0,72.29,41,242.91,242.91,0,0,0,82.3,14.21,24,24,0,0,1,13.94,4.43c6.74,4.43,11.2,13,11.2,21.65v179.22c0,45.42-20.59,84.66-58,110.5L232.61,5.34A24.19,24.19,0,0,1,222,9.44h0a25.82,25.82,0,0,1-3.94.23,26.58,26.58,0,0,1-14.84-4.91L80.2-80.32c-37.35-25.85-57.94-65.09-57.94-110.5V-370c0-8.58,4.39-17.09,11-21.54A24.13,24.13,0,0,1,47.43-396.12Z" fill="none" stroke="#c8c2b6" stroke-miterlimit="10" stroke-width="1.56" fill-rule="evenodd"/><path d="M54.14-389.31a231.52,231.52,0,0,0,148.11-52.76,26.11,26.11,0,0,1,15.68-5.83,25.3,25.3,0,0,1,5.58.47A23,23,0,0,1,234-442.35,233.05,233.05,0,0,0,303.46-403a233.77,233.77,0,0,0,79.09,13.65A23,23,0,0,1,395.92-385c6.46,4.25,10.73,12.52,10.73,20.81v172.13c0,43.62-19.77,81.31-55.66,106.12L232-3.69A23.18,23.18,0,0,1,221.81.24h0A25.06,25.06,0,0,1,218,.46a25.55,25.55,0,0,1-14.24-4.73L85.65-86C49.77-110.82,30-148.5,30-192.11V-364.24c0-8.22,4.21-16.44,10.58-20.7A23.13,23.13,0,0,1,54.14-389.31Z" fill="none" stroke="#c8c1b5" stroke-miterlimit="10" stroke-width="1.58" fill-rule="evenodd"/></g><g clip-path="url(#clip-path-2)"><path d="M835.25,673.43a98.81,98.81,0,0,1-57.38-18.28L304.81,327.83C161,228.27,81.7,77.22,81.7-97.61V-787.42c0-54.63,44.54-99.1,99.24-99.1,218.52,0,423-73.3,591.42-211.91a99.83,99.83,0,0,1,63-22.53,98.91,98.91,0,0,1,64.32,23.78,926.08,926.08,0,0,0,275.9,156.42,928.14,928.14,0,0,0,314.15,54.24,99.24,99.24,0,0,1,99.11,99.1V-97.61c0,174.89-79.26,325.94-223.17,425.44l-474.11,328A98.77,98.77,0,0,1,835.25,673.43Z" fill="none" stroke="#eeece8" stroke-miterlimit="10" stroke-width="0.25" fill-rule="evenodd"/><path d="M187.65-879.71c216.28,0,418.68-72.55,585.36-209.73a98.75,98.75,0,0,1,62.36-22.3,98,98,0,0,1,22.25,2.56,97.86,97.86,0,0,1,41.41,21A916.76,916.76,0,0,0,1172.1-933.39,918.71,918.71,0,0,0,1483-879.71a97.44,97.44,0,0,1,53.75,16.09,98.08,98.08,0,0,1,44.32,82V-98.9c0,173.09-78.44,322.59-220.87,421.06L891,646.77A98,98,0,0,1,850.56,663l-.11,0a98.27,98.27,0,0,1-72-16.91l-468.2-324C167.89,223.62,89.45,74.13,89.45-98.9V-781.62a98.07,98.07,0,0,1,43.71-81.56A97.67,97.67,0,0,1,187.65-879.71Z" fill="none" stroke="#eeebe7" stroke-miterlimit="10" stroke-width="0.27" fill-rule="evenodd"/><path d="M194.37-872.9c214,0,414.33-71.79,579.28-207.54a97.69,97.69,0,0,1,61.71-22.08,97.09,97.09,0,0,1,22,2.53,96.8,96.8,0,0,1,41,20.75A906.86,906.86,0,0,0,1168.61-926a908.93,908.93,0,0,0,307.71,53.13,96.5,96.5,0,0,1,53.2,15.92,97.11,97.11,0,0,1,43.85,81.15V-100.2c0,171.3-77.63,319.24-218.58,416.7L890.41,637.74a96.86,96.86,0,0,1-40,16.06l-.11,0A97.15,97.15,0,0,1,779,637.08L315.7,316.5C174.82,219,97.19,71,97.19-100.2V-775.83a97.08,97.08,0,0,1,43.25-80.71A96.69,96.69,0,0,1,194.37-872.9Z" fill="none" stroke="#edeae6" stroke-miterlimit="10" stroke-width="0.29" fill-rule="evenodd"/><path d="M201.08-866.09c211.79,0,410-71,573.21-205.36a96.75,96.75,0,0,1,61.07-21.85,95.56,95.56,0,0,1,21.78,2.51,95.57,95.57,0,0,1,40.56,20.52,897.57,897.57,0,0,0,267.41,151.61,899.45,899.45,0,0,0,304.49,52.57,95.4,95.4,0,0,1,52.64,15.76,96.1,96.1,0,0,1,43.39,80.3v668.54c0,169.5-76.82,315.89-216.29,412.32L889.83,628.7a95.79,95.79,0,0,1-39.6,15.9l-.11,0a96.94,96.94,0,0,1-14.88,1.15,95.78,95.78,0,0,1-55.61-17.72L321.15,310.83c-139.4-96.5-216.22-242.89-216.22-412.32V-770a96.06,96.06,0,0,1,42.79-79.86A95.62,95.62,0,0,1,201.08-866.09Z" fill="none" stroke="#edeae5" stroke-miterlimit="10" stroke-width="0.3" fill-rule="evenodd"/><path d="M207.8-859.28c209.54,0,405.64-70.28,567.13-203.18a95.74,95.74,0,0,1,60.42-21.62,94.88,94.88,0,0,1,21.56,2.48A94.61,94.61,0,0,1,897-1061.3a888,888,0,0,0,264.59,150,890.21,890.21,0,0,0,301.27,52,94.32,94.32,0,0,1,52.07,15.6,95.07,95.07,0,0,1,42.92,79.45v661.44c0,167.7-76,312.54-214,408L889.25,619.67a94.91,94.91,0,0,1-39.19,15.72l-.1,0A95.23,95.23,0,0,1,780.21,619L326.6,305.16c-137.93-95.47-213.92-240.31-213.92-408V-764.23a95.05,95.05,0,0,1,42.33-79A94.56,94.56,0,0,1,207.8-859.28Z" fill="none" stroke="#ece9e5" stroke-miterlimit="10" stroke-width="0.32" fill-rule="evenodd"/><path d="M214.51-852.47c207.3,0,401.3-69.53,561.06-201a94.7,94.7,0,0,1,59.77-21.39,93.92,93.92,0,0,1,21.33,2.45,93.63,93.63,0,0,1,39.69,20.08,878.51,878.51,0,0,0,261.76,148.4,880.53,880.53,0,0,0,298.05,51.46A93.36,93.36,0,0,1,1507.69-837a94.08,94.08,0,0,1,42.45,78.61v654.35c0,165.9-75.18,309.19-211.69,403.57L888.66,610.63a93.8,93.8,0,0,1-38.76,15.56l-.1,0a94.3,94.3,0,0,1-69-16.23L332.05,299.49C195.6,205,120.42,61.76,120.42-104.08V-758.43a94,94,0,0,1,41.87-78.18A93.58,93.58,0,0,1,214.51-852.47Z" fill="none" stroke="#ece8e4" stroke-miterlimit="10" stroke-width="0.34" fill-rule="evenodd"/><path d="M221.23-845.66c205.05,0,396.95-68.77,555-198.82a93.76,93.76,0,0,1,59.13-21.16,93,93,0,0,1,21.09,2.42,92.63,92.63,0,0,1,39.27,19.86,868.85,868.85,0,0,0,258.93,146.8,871,871,0,0,0,294.83,50.9,92.28,92.28,0,0,1,51,15.27,93.07,93.07,0,0,1,42,77.75v647.26c0,164.11-74.37,305.84-209.4,399.2L888.08,601.6A92.69,92.69,0,0,1,849.74,617l-.11,0a93.22,93.22,0,0,1-68.24-16L337.5,293.82c-135-93.42-209.34-235.15-209.34-399.2V-752.64A93,93,0,0,1,169.57-830,92.58,92.58,0,0,1,221.23-845.66Z" fill="none" stroke="#ebe8e3" stroke-miterlimit="10" stroke-width="0.36" fill-rule="evenodd"/><path d="M227.94-838.85c202.81,0,392.61-68,548.92-196.64a92.73,92.73,0,0,1,58.47-20.93,92.05,92.05,0,0,1,20.86,2.39A91.6,91.6,0,0,1,895-1034.39a859.31,859.31,0,0,0,256.1,145.2,861.52,861.52,0,0,0,291.61,50.34,91.26,91.26,0,0,1,50.39,15.11,92.05,92.05,0,0,1,41.53,76.9v640.17c0,162.3-73.56,302.48-207.11,394.82L887.49,592.57a91.73,91.73,0,0,1-37.92,15.21h-.1A92.17,92.17,0,0,1,782,591.92L343,288.15c-133.49-92.4-207-232.58-207-394.82V-746.84a92,92,0,0,1,41-76.49A91.49,91.49,0,0,1,227.94-838.85Z" fill="none" stroke="#eae7e2" stroke-miterlimit="10" stroke-width="0.38" fill-rule="evenodd"/><path d="M234.65-832c200.57,0,388.27-67.27,542.85-194.47a91.72,91.72,0,0,1,57.82-20.7,91.23,91.23,0,0,1,20.63,2.36,90.5,90.5,0,0,1,38.41,19.42,850.12,850.12,0,0,0,253.27,143.6A852.1,852.1,0,0,0,1436-832a90.23,90.23,0,0,1,49.83,14.94A91,91,0,0,1,1526.91-741V-108c0,160.5-72.74,299.13-204.81,390.44l-435.19,301a90.56,90.56,0,0,1-37.5,15l-.1,0a91.1,91.1,0,0,1-66.75-15.7L348.4,282.48c-132-91.37-204.75-230-204.75-390.44V-741a91,91,0,0,1,40.49-75.64A90.43,90.43,0,0,1,234.65-832Z" fill="none" stroke="#eae7e2" stroke-miterlimit="10" stroke-width="0.4" fill-rule="evenodd"/><path d="M241.37-825.22c198.32,0,383.92-66.52,536.77-192.29A90.72,90.72,0,0,1,835.32-1038a89.68,89.68,0,0,1,20.39,2.33,89.52,89.52,0,0,1,38,19.2,840.51,840.51,0,0,0,250.45,142,842.32,842.32,0,0,0,285.17,49.24,89.23,89.23,0,0,1,49.27,14.77,90,90,0,0,1,40.59,75.2v626c0,158.71-71.93,295.78-202.52,386.07L886.33,574.5a89.8,89.8,0,0,1-37.08,14.87h-.1a90,90,0,0,1-66-15.53l-429.3-297C223.32,186.46,151.39,49.39,151.39-109.26v-626a90,90,0,0,1,40-74.79A89.43,89.43,0,0,1,241.37-825.22Z" fill="none" stroke="#e9e6e1" stroke-miterlimit="10" stroke-width="0.41" fill-rule="evenodd"/><path d="M248.08-818.41c196.08,0,379.58-65.76,530.7-190.1a89.64,89.64,0,0,1,56.53-20.25,88.94,88.94,0,0,1,20.17,2.3,88.5,88.5,0,0,1,37.54,19,831.31,831.31,0,0,0,247.62,140.39,833.13,833.13,0,0,0,281.95,48.68,88.14,88.14,0,0,1,48.71,14.61,89,89,0,0,1,40.13,74.35v618.9c0,156.91-71.11,292.43-200.23,381.7L885.74,565.46a88.52,88.52,0,0,1-36.66,14.7l-.1,0a89.09,89.09,0,0,1-65.24-15.36L359.3,271.15C230.24,181.82,159.13,46.3,159.13-110.55v-618.9a89,89,0,0,1,39.58-73.95A88.39,88.39,0,0,1,248.08-818.41Z" fill="none" stroke="#e9e5e0" stroke-miterlimit="10" stroke-width="0.43" fill-rule="evenodd"/><path d="M254.8-811.6c193.83,0,375.23-65,524.62-187.92a88.63,88.63,0,0,1,55.88-20,88,88,0,0,1,19.94,2.27,87.5,87.5,0,0,1,37.12,18.76,821.74,821.74,0,0,0,244.79,138.79,823.56,823.56,0,0,0,278.73,48.12A87.12,87.12,0,0,1,1464-797.15a88,88,0,0,1,39.65,73.5v611.8c0,155.11-70.29,289.08-197.93,377.33L885.16,556.43A87.56,87.56,0,0,1,848.92,571h-.1a88.06,88.06,0,0,1-64.5-15.18L364.75,265.48C237.17,177.17,166.88,43.21,166.88-111.85v-611.8A88,88,0,0,1,206-796.76,87.31,87.31,0,0,1,254.8-811.6Z" fill="none" stroke="#e8e5df" stroke-miterlimit="10" stroke-width="0.45" fill-rule="evenodd"/><path d="M261.51-804.79c191.59,0,370.89-64.25,518.55-185.74a87.66,87.66,0,0,1,55.24-19.79,87.14,87.14,0,0,1,19.7,2.24,86.41,86.41,0,0,1,36.69,18.54,812.08,812.08,0,0,0,242,137.18,813.88,813.88,0,0,0,275.51,47.57,86.09,86.09,0,0,1,47.59,14.28,87,87,0,0,1,39.19,72.65v604.72c0,153.31-69.48,285.73-195.63,373L884.58,547.4a86.55,86.55,0,0,1-35.83,14.35l-.09,0a87.13,87.13,0,0,1-63.75-15L370.2,259.81C244.1,172.53,174.62,40.11,174.62-113.14V-717.86a87,87,0,0,1,38.65-72.25A86.24,86.24,0,0,1,261.51-804.79Z" fill="none" stroke="#e8e4df" stroke-miterlimit="10" stroke-width="0.47" fill-rule="evenodd"/><path d="M268.23-798c189.34,0,366.54-63.5,512.48-183.56a86.66,86.66,0,0,1,54.58-19.56,86.18,86.18,0,0,1,19.47,2.21A85.32,85.32,0,0,1,891-980.57,802.59,802.59,0,0,0,1130.16-845a804.35,804.35,0,0,0,272.29,47,85,85,0,0,1,47,14.12,86,86,0,0,1,38.73,71.8v597.62c0,151.52-68.67,282.38-193.34,368.58L884,538.36a85.44,85.44,0,0,1-35.4,14.19h-.09a86.08,86.08,0,0,1-63-14.84L375.65,254.14C251,167.88,182.36,37,182.36-114.44V-712.06a86,86,0,0,1,38.19-71.41A85.26,85.26,0,0,1,268.23-798Z" fill="none" stroke="#e7e4de" stroke-miterlimit="10" stroke-width="0.49" fill-rule="evenodd"/><path d="M274.94-791.17c187.1,0,362.2-62.74,506.41-181.38a85.65,85.65,0,0,1,53.93-19.33,84.17,84.17,0,0,1,19.24,2.19,84.26,84.26,0,0,1,35.83,18.09,793.06,793.06,0,0,0,236.31,134,794.91,794.91,0,0,0,269.07,46.45,84,84,0,0,1,46.47,14,85,85,0,0,1,38.25,71v590.53c0,149.72-67.85,279-191,364.2l-406,280.86a84.52,84.52,0,0,1-35,14l-.1,0a85.18,85.18,0,0,1-62.25-14.67l-405-280.22c-123.14-85.23-191-214.54-191-364.2V-706.26a85,85,0,0,1,37.73-70.57A84.2,84.2,0,0,1,274.94-791.17Z" fill="none" stroke="#e7e3dd" stroke-miterlimit="10" stroke-width="0.51" fill-rule="evenodd"/><path d="M281.66-784.36c184.85,0,357.85-62,500.33-179.2a84.62,84.62,0,0,1,53.29-19.1,83.25,83.25,0,0,1,19,2.16,83.17,83.17,0,0,1,35.4,17.87,783.79,783.79,0,0,0,233.49,132.38A785.38,785.38,0,0,0,1389-784.36a83,83,0,0,1,45.9,13.79,84,84,0,0,1,37.79,70.1V-117c0,147.92-67,275.68-188.75,359.83L882.83,520.29a83.49,83.49,0,0,1-34.57,13.85h-.09a84.09,84.09,0,0,1-61.5-14.5L386.55,242.8c-121.66-84.21-188.7-212-188.7-359.83V-700.47a84,84,0,0,1,37.27-69.72A83.2,83.2,0,0,1,281.66-784.36Z" fill="none" stroke="#e6e2dc" stroke-miterlimit="10" stroke-width="0.52" fill-rule="evenodd"/><path d="M288.37-777.55c182.61,0,353.51-61.23,494.26-177a83.61,83.61,0,0,1,52.64-18.87,82.51,82.51,0,0,1,18.78,2.13,82.19,82.19,0,0,1,35,17.65,774.08,774.08,0,0,0,230.65,130.77,775.91,775.91,0,0,0,262.63,45.34,82,82,0,0,1,45.34,13.63A83,83,0,0,1,1465-694.67v576.35c0,146.12-66.22,272.32-186.46,355.45L882.24,511.26a82.34,82.34,0,0,1-34.14,13.67l-.09,0a83,83,0,0,1-60.75-14.33L392,237.13C271.81,154,205.59,27.75,205.59-118.32V-694.67a83,83,0,0,1,36.81-68.88A82.19,82.19,0,0,1,288.37-777.55Z" fill="none" stroke="#e5e2dc" stroke-miterlimit="10" stroke-width="0.54" fill-rule="evenodd"/><path d="M295.08-770.73c180.37,0,349.17-60.49,488.19-174.85a82.63,82.63,0,0,1,52-18.64,81.55,81.55,0,0,1,18.55,2.1,81.15,81.15,0,0,1,34.54,17.43,764.54,764.54,0,0,0,227.82,129.17,766.51,766.51,0,0,0,259.41,44.79,80.93,80.93,0,0,1,44.79,13.46,81.94,81.94,0,0,1,36.85,68.4v569.25c0,144.33-65.4,269-184.16,351.08L881.66,502.22a81.32,81.32,0,0,1-33.72,13.51h-.09a82,82,0,0,1-60-14.15L397.44,231.46c-118.7-82.16-184.1-206.81-184.1-351.08V-688.87a81.91,81.91,0,0,1,36.35-68A81,81,0,0,1,295.08-770.73Z" fill="none" stroke="#e5e1db" stroke-miterlimit="10" stroke-width="0.56" fill-rule="evenodd"/><path d="M301.8-763.92c178.12,0,344.82-59.73,482.11-172.66A81.58,81.58,0,0,1,835.26-955a80.7,80.7,0,0,1,18.31,2.07,80.17,80.17,0,0,1,34.11,17.21,755.27,755.27,0,0,0,225,127.57,757,757,0,0,0,256.19,44.23,79.9,79.9,0,0,1,44.22,13.29,81,81,0,0,1,36.39,67.56v562.16c0,142.52-64.59,265.62-181.87,346.71L881.07,493.19a80.16,80.16,0,0,1-33.3,13.33l-.09,0a81,81,0,0,1-59.25-14L402.89,225.8C285.67,144.66,221.08,21.56,221.08-120.91V-683.07A80.91,80.91,0,0,1,257-750.26,80.05,80.05,0,0,1,301.8-763.92Z" fill="none" stroke="#e4e0da" stroke-miterlimit="10" stroke-width="0.58" fill-rule="evenodd"/><path d="M308.51-757.11c175.88,0,340.48-59,476.05-170.48a80.58,80.58,0,0,1,50.69-18.19,79.75,79.75,0,0,1,18.08,2,79.08,79.08,0,0,1,33.68,17,745.61,745.61,0,0,0,222.17,126,747.27,747.27,0,0,0,253,43.68A78.86,78.86,0,0,1,1405.81-744a80,80,0,0,1,35.93,66.7v555.07c0,140.73-63.78,262.28-179.57,342.34l-381.68,264a79.39,79.39,0,0,1-32.88,13.16h-.09A80,80,0,0,1,789,483.52L408.34,220.13C292.6,140,228.82,18.47,228.82-122.21V-677.28a79.93,79.93,0,0,1,35.43-66.34A79.07,79.07,0,0,1,308.51-757.11Z" fill="none" stroke="#e4e0d9" stroke-miterlimit="10" stroke-width="0.6" fill-rule="evenodd"/><path d="M315.23-750.3c173.63,0,336.13-58.22,470-168.3a79.55,79.55,0,0,1,50-18,78.86,78.86,0,0,1,17.85,2,78.13,78.13,0,0,1,33.26,16.77,735.82,735.82,0,0,0,219.34,124.36,737.74,737.74,0,0,0,249.75,43.12,77.81,77.81,0,0,1,43.1,13A78.91,78.91,0,0,1,1434-671.48v548c0,138.93-63,258.92-177.27,338L879.91,475.12a78.21,78.21,0,0,1-32.47,13l-.08,0a79.72,79.72,0,0,1-12.19.92,78.74,78.74,0,0,1-45.57-14.56l-375.81-260c-114.26-79.09-177.22-199.08-177.22-338v-548a78.9,78.9,0,0,1,35-65.5A78,78,0,0,1,315.23-750.3Z" fill="none" stroke="#e3dfd9" stroke-miterlimit="10" stroke-width="0.61" fill-rule="evenodd"/><path d="M321.94-743.49c171.39,0,331.79-57.46,463.9-166.12a78.54,78.54,0,0,1,49.4-17.73,77.94,77.94,0,0,1,17.61,2,77.06,77.06,0,0,1,32.83,16.56A726.82,726.82,0,0,0,1102.19-786a728.3,728.3,0,0,0,246.53,42.56,76.81,76.81,0,0,1,42.54,12.8,77.93,77.93,0,0,1,35,65v540.89c0,137.13-62.14,255.56-175,333.58L879.32,466.09a77.21,77.21,0,0,1-32,12.82h-.08a78,78,0,0,1-57-13.47l-371-256.66C306.46,130.72,244.31,12.28,244.31-124.79V-665.68a77.88,77.88,0,0,1,34.51-64.65A77,77,0,0,1,321.94-743.49Z" fill="none" stroke="#e3dfd8" stroke-miterlimit="10" stroke-width="0.63" fill-rule="evenodd"/><path d="M328.66-736.68c169.14,0,327.44-56.71,457.82-163.94a77.57,77.57,0,0,1,48.75-17.5,77.2,77.2,0,0,1,17.39,2A75.88,75.88,0,0,1,885-899.83,717.45,717.45,0,0,0,1098.7-778.68a719,719,0,0,0,243.3,42A75.72,75.72,0,0,1,1384-724a76.91,76.91,0,0,1,34.53,64.15v533.8c0,135.33-61.33,252.22-172.69,329.21L878.74,457.05a76.1,76.1,0,0,1-31.62,12.65H847a75.6,75.6,0,0,1-11.87.9,76.69,76.69,0,0,1-44.38-14.19L424.69,203.12c-111.31-77-172.64-193.93-172.64-329.21v-533.8a76.88,76.88,0,0,1,34.05-63.8A76,76,0,0,1,328.66-736.68Z" fill="none" stroke="#e2ded7" stroke-miterlimit="10" stroke-width="0.65" fill-rule="evenodd"/><path d="M335.37-729.87c166.9,0,323.1-56,451.75-161.76a76.56,76.56,0,0,1,48.1-17.27A76.32,76.32,0,0,1,852.38-907a74.89,74.89,0,0,1,32,16.12A707.67,707.67,0,0,0,1095.2-771.32a709.29,709.29,0,0,0,240.09,41.45,74.67,74.67,0,0,1,41.42,12.48,75.9,75.9,0,0,1,34.06,63.3v526.71c0,133.53-60.52,248.86-170.4,324.83L878.16,448A75.13,75.13,0,0,1,847,460.5h-.08a76,76,0,0,1-55.5-13.12L430.14,197.45C320.31,121.43,259.8,6.1,259.8-127.38V-654.09a75.88,75.88,0,0,1,33.58-63A75,75,0,0,1,335.37-729.87Z" fill="none" stroke="#e1ddd7" stroke-miterlimit="10" stroke-width="0.67" fill-rule="evenodd"/><path d="M342.09-723.06c164.65,0,318.75-55.2,445.67-159.58a75.55,75.55,0,0,1,47.46-17,74.77,74.77,0,0,1,16.92,1.9,73.78,73.78,0,0,1,31.53,15.89,698.25,698.25,0,0,0,208,117.94,699.85,699.85,0,0,0,236.87,40.89,73.68,73.68,0,0,1,40.86,12.32A74.87,74.87,0,0,1,1403-648.29v519.61c0,131.74-59.7,245.52-168.1,320.46L877.57,439a74.12,74.12,0,0,1-30.78,12.3h-.08A74.8,74.8,0,0,1,792,438.36L435.59,191.78c-108.35-75-168-188.77-168-320.46V-648.29a74.87,74.87,0,0,1,33.13-62.12A73.9,73.9,0,0,1,342.09-723.06Z" fill="none" stroke="#e1ddd6" stroke-miterlimit="10" stroke-width="0.69" fill-rule="evenodd"/><path d="M348.8-716.24c162.41,0,314.41-54.45,439.61-157.41a74.49,74.49,0,0,1,46.8-16.81,73.38,73.38,0,0,1,16.69,1.87A72.73,72.73,0,0,1,883-872.92a688.81,688.81,0,0,0,205.2,116.34,690.38,690.38,0,0,0,233.65,40.34,72.66,72.66,0,0,1,40.29,12.14,73.88,73.88,0,0,1,33.13,61.6V-130c0,129.93-58.89,242.16-165.81,316.08L877,430a73.1,73.1,0,0,1-30.36,12.14h-.09a73.85,73.85,0,0,1-54-12.78L441,186.11C334.17,112.14,275.28-.08,275.28-130V-642.5A73.87,73.87,0,0,1,308-703.77,72.88,72.88,0,0,1,348.8-716.24Z" fill="none" stroke="#e0dcd5" stroke-miterlimit="10" stroke-width="0.71" fill-rule="evenodd"/><path d="M355.51-709.43c160.17,0,310.07-53.7,433.54-155.22a73.53,73.53,0,0,1,46.15-16.59,72.42,72.42,0,0,1,16.46,1.84,71.75,71.75,0,0,1,30.68,15.45,679,679,0,0,0,202.37,114.73,680.66,680.66,0,0,0,230.43,39.79,71.65,71.65,0,0,1,39.74,12,72.89,72.89,0,0,1,32.66,60.75v505.43c0,128.14-58.08,238.82-163.52,311.72L876.41,420.92a72,72,0,0,1-29.95,12h-.08a72.79,72.79,0,0,1-53.25-12.6L446.49,180.45C341.1,107.5,283-3.18,283-131.27V-636.7a72.84,72.84,0,0,1,32.21-60.42A71.73,71.73,0,0,1,355.51-709.43Z" fill="none" stroke="#e0dcd4" stroke-miterlimit="10" stroke-width="0.72" fill-rule="evenodd"/><path d="M362.23-702.62c157.92,0,305.72-52.94,427.46-153A72.53,72.53,0,0,1,835.2-872a71.51,71.51,0,0,1,16.22,1.81A70.65,70.65,0,0,1,881.67-855a669.54,669.54,0,0,0,199.55,113.13,671.13,671.13,0,0,0,227.21,39.23,70.55,70.55,0,0,1,39.17,11.82,71.85,71.85,0,0,1,32.19,59.9v498.34c0,126.34-57.25,235.46-161.21,307.34L875.82,411.88a71,71,0,0,1-29.52,11.8h-.08a71.93,71.93,0,0,1-52.51-12.43L451.94,174.78C348,102.85,290.77-6.27,290.77-132.56V-630.9a71.83,71.83,0,0,1,31.75-59.58A70.7,70.7,0,0,1,362.23-702.62Z" fill="none" stroke="#dfdbd4" stroke-miterlimit="10" stroke-width="0.74" fill-rule="evenodd"/></g><path d="M14.3,10.91v9.75a5.58,5.58,0,0,0,2.48,4.74l6.76,4.68a.11.11,0,0,0,.08,0l6.76-4.68a5.58,5.58,0,0,0,2.48-4.74V10.91a.06.06,0,0,0-.06-.06,15.84,15.84,0,0,1-9.18-3.33h-.08a15.74,15.74,0,0,1-9.18,3.33.06.06,0,0,0-.06.06Zm-.47-1a14.83,14.83,0,0,0,9.45-3.38.47.47,0,0,1,.61,0h0A14.93,14.93,0,0,0,28.32,9a14.83,14.83,0,0,0,5,.86.49.49,0,0,1,.48.48V20.66a6.56,6.56,0,0,1-2.9,5.52l-7.07,4.89a.48.48,0,0,1-.55,0h0l-7.06-4.89a6.55,6.55,0,0,1-2.89-5.52V10.38a.47.47,0,0,1,.48-.48ZM35.56,20.66a8.29,8.29,0,0,1-3.64,7l-8.3,5.74a.06.06,0,0,1-.08,0l-8.29-5.74a8.28,8.28,0,0,1-3.65-7V8.22a.07.07,0,0,1,.07-.07h2.16a13.09,13.09,0,0,0,8.34-3L23.54,4a.06.06,0,0,1,.08,0L25,5.16a13.09,13.09,0,0,0,8.34,3H35.5a.07.07,0,0,1,.07.07Zm-18.78-8.6a.49.49,0,0,1,.48.48v.71a.48.48,0,0,1-.48.48.47.47,0,0,1-.48-.48v-.71A.48.48,0,0,1,16.78,12.06Zm-.48,8.73a.48.48,0,1,1,.95,0v.71a.48.48,0,1,1-.95,0Zm13.61-8.25a.48.48,0,1,1,.95,0v.71a.48.48,0,1,1-.95,0Zm0,8.25a.48.48,0,1,1,.95,0v.71a.48.48,0,1,1-.95,0ZM23.1,26.56a.48.48,0,0,1,1,0v.71a.48.48,0,0,1-1,0Z" fill="#fff" fill-rule="evenodd"/><path d="M42.86,25.82a32.56,32.56,0,0,1,3.41-1.37S45,27.15,43.57,28a6.5,6.5,0,0,1-3.81.77,19.79,19.79,0,0,1-3.52,4.06,45.78,45.78,0,0,1,4.55-1.49A17.28,17.28,0,0,1,42.93,31a8.07,8.07,0,0,1-2.55,2.1c-1.34.6-3.48,1-4.88.38A20.48,20.48,0,0,1,31,36.15c.35-.06,1-.14,2-.21a12.24,12.24,0,0,1,4.38.76,8.73,8.73,0,0,1-4.94,1.22,6.45,6.45,0,0,1-2.75-1.26,21.4,21.4,0,0,1-4.18,1.08l-.53.08c.17,0,.37,0,.6.1a9.61,9.61,0,0,1,2.88.95A26.11,26.11,0,0,0,31,40.28a7.74,7.74,0,0,1-5-.05,4.4,4.4,0,0,1-2.18-1.77,4.48,4.48,0,0,1-2.19,1.77,7.74,7.74,0,0,1-5,.05c.35-.1.76-.45,2.46-1.41a9.65,9.65,0,0,1,2.87-.95c.23-.05.43-.08.6-.1l-.53-.08a21.77,21.77,0,0,1-4.18-1.08A6.32,6.32,0,0,1,15,37.92a8.71,8.71,0,0,1-4.94-1.22,12.24,12.24,0,0,1,4.38-.76c1,.07,1.66.15,2,.21A20.55,20.55,0,0,1,12,33.45c-1.4.67-3.54.22-4.88-.38A8.11,8.11,0,0,1,4.56,31a17.66,17.66,0,0,1,2.14.37,46.45,46.45,0,0,1,4.54,1.49,19.79,19.79,0,0,1-3.52-4.06A6.5,6.5,0,0,1,3.91,28c-1.38-.85-2.69-3.55-2.69-3.55a32.56,32.56,0,0,1,3.41,1.37A13.24,13.24,0,0,1,7,27.64a24.58,24.58,0,0,1-1.16-2.29A22.26,22.26,0,0,1,5,23a5.42,5.42,0,0,1-3.48-2.06C.38,19.58,0,16.6,0,16.6a18.45,18.45,0,0,0,2.14,1.71,14.33,14.33,0,0,1,2.52,3.44,21.07,21.07,0,0,1-.59-5.3c-.2,0-1.1-.22-2.33-2.25a7.2,7.2,0,0,1-.47-5.29c.2.46.7,1.12,1.66,2.8a12.2,12.2,0,0,1,1.18,3.77,22.81,22.81,0,0,1,1-5.32,1.2,1.2,0,0,0-.22-.4c-3.13-3-.42-7.44-.42-7.44a13.4,13.4,0,0,1,1,6.93A18.17,18.17,0,0,1,7,5.88C7,1.06,12.41,0,12.41,0c-.45.24-.65,1.28-2.13,3.38a7.75,7.75,0,0,1-3,2.71h0A17.85,17.85,0,0,0,5.69,9.39a10.94,10.94,0,0,1,1.8-1.68A5.65,5.65,0,0,1,11.65,7c-.24.1-1.11,1.07-2.07,1.77a11.47,11.47,0,0,1-3.41,1.3,2.83,2.83,0,0,0-.78.3v-.06a20.38,20.38,0,0,0-.89,5.2A5.65,5.65,0,0,1,6,12.85a6.8,6.8,0,0,1,3.22-1.24c-1.91,3.64-4.33,4.64-4.74,4.79a21.11,21.11,0,0,0,.63,5.12,7,7,0,0,1,1.44-3.86,6,6,0,0,1,2-1.23l-.13.51a11.59,11.59,0,0,1-3,5.86,21.92,21.92,0,0,0,2,4.5,8.46,8.46,0,0,1-.11-3.14A7.68,7.68,0,0,1,9.21,21.6a8.49,8.49,0,0,1-1.07,6.74c.16.26.34.52.52.77a18.62,18.62,0,0,0,3.24,3.55,8.45,8.45,0,0,1-1.21-3.42,4.16,4.16,0,0,1,.94-2.89,10.79,10.79,0,0,1,.91,6.82,19,19,0,0,0,4.18,2.46A10.32,10.32,0,0,1,15.05,33,8.83,8.83,0,0,1,15,29.83a9.93,9.93,0,0,1,2.92,6.27,22,22,0,0,0,4.79,1.13,13.37,13.37,0,0,1-2.23-2.07,10,10,0,0,1-.95-2.89S21,33.4,22.37,34.53a5.18,5.18,0,0,1,1.38,2,4.94,4.94,0,0,1,1.37-2C26.45,33.4,28,32.27,28,32.27A10.32,10.32,0,0,1,27,35.16a13.41,13.41,0,0,1-2.24,2.07,21.83,21.83,0,0,0,4.79-1.13,10,10,0,0,1,2.93-6.27A9.08,9.08,0,0,1,32.44,33a10.33,10.33,0,0,1-1.68,2.61A19.06,19.06,0,0,0,35,33.17a10.68,10.68,0,0,1,.9-6.82,4.14,4.14,0,0,1,.95,2.89,8.45,8.45,0,0,1-1.21,3.42,19.3,19.3,0,0,0,3.24-3.55c.18-.25.35-.51.52-.77a8.49,8.49,0,0,1-1.07-6.74,7.82,7.82,0,0,1,1.83,2.56A8.46,8.46,0,0,1,40,27.3a22.47,22.47,0,0,0,2-4.5,11.59,11.59,0,0,1-3-5.86l-.13-.51a5.9,5.9,0,0,1,2,1.23,7,7,0,0,1,1.45,3.86A21.11,21.11,0,0,0,43,16.4c-.41-.15-2.83-1.15-4.74-4.79a6.77,6.77,0,0,1,3.21,1.24A5.67,5.67,0,0,1,43,15.49a21.3,21.3,0,0,0-.89-5.2v.06a2.83,2.83,0,0,0-.77-.3,11.37,11.37,0,0,1-3.41-1.3c-1-.7-1.83-1.67-2.07-1.77A5.63,5.63,0,0,1,40,7.71,10.64,10.64,0,0,1,41.8,9.39a17.14,17.14,0,0,0-1.57-3.3,7.75,7.75,0,0,1-3-2.71C35.72,1.28,35.53.24,35.08,0c0,0,5.43,1.06,5.4,5.88a17.74,17.74,0,0,1,1.59,3.37A13.48,13.48,0,0,1,43,2.32s2.71,4.45-.41,7.44a1.23,1.23,0,0,0-.23.4,22.3,22.3,0,0,1,1,5.32,12.26,12.26,0,0,1,1.19-3.77c1-1.68,1.45-2.34,1.65-2.8a7.2,7.2,0,0,1-.47,5.29c-1.23,2-2.12,2.23-2.33,2.25a21.06,21.06,0,0,1-.58,5.3,14.28,14.28,0,0,1,2.51-3.44,19,19,0,0,0,2.15-1.71s-.39,3-1.52,4.33A5.42,5.42,0,0,1,42.49,23a22.72,22.72,0,0,1-2,4.65A13.35,13.35,0,0,1,42.86,25.82Z" fill="#fff"/><path id="id-6izo4zJp32" d="M59.62,27l1.74,3.8L63.12,27H65l-2.77,5.38v3.05H60.49V32.37L57.72,27Zm5.66,5.32v-.08a3.71,3.71,0,0,1,.36-1.66,2.63,2.63,0,0,1,1-1.13,3.08,3.08,0,0,1,1.57-.4h0a2.86,2.86,0,0,1,2.07.78,3.11,3.11,0,0,1,.89,2.1h0v.43a3.34,3.34,0,0,1-.8,2.32,3.13,3.13,0,0,1-4.33,0,3.37,3.37,0,0,1-.8-2.36Zm1.67,0h0a2.31,2.31,0,0,0,.34,1.37,1.11,1.11,0,0,0,1,.47h0a1.13,1.13,0,0,0,1-.47,2.6,2.6,0,0,0,.34-1.49h0a2.36,2.36,0,0,0-.34-1.35,1.12,1.12,0,0,0-1-.48h0a1.09,1.09,0,0,0-.95.48A2.51,2.51,0,0,0,67,32.35Zm9.33,3.07,0-.64a2.07,2.07,0,0,1-1.71.76h0A2,2,0,0,1,73,35a2.51,2.51,0,0,1-.54-1.7h0v-4.1h1.67v4c0,.66.3,1,.89,1h0a1.19,1.19,0,0,0,1.17-.59h0V29.16h1.68v6.26Zm6.62-6.3,0,1.61a4.83,4.83,0,0,0-.6-.05h0a1.24,1.24,0,0,0-1.25.64h0v4.1H79.35V29.16h1.58l0,.75A1.54,1.54,0,0,1,82.37,29h0a1.84,1.84,0,0,1,.53.08Zm11,1.87v3.37a3.05,3.05,0,0,1-1.32.87,5.78,5.78,0,0,1-1.9.31h0a3.75,3.75,0,0,1-1.92-.48,3.12,3.12,0,0,1-1.27-1.39A4.85,4.85,0,0,1,87,31.54h0V31a5.2,5.2,0,0,1,.43-2.18,3,3,0,0,1,1.23-1.41,3.49,3.49,0,0,1,1.88-.49h0a3.54,3.54,0,0,1,2.34.71,3,3,0,0,1,1,2.08H92.19a1.74,1.74,0,0,0-.51-1.06,1.65,1.65,0,0,0-1.09-.33h0a1.55,1.55,0,0,0-1.35.66,3.49,3.49,0,0,0-.47,2h0v.54a3.4,3.4,0,0,0,.5,2,1.73,1.73,0,0,0,1.48.67h0a2,2,0,0,0,1.4-.41h0V32.27H90.57V31ZM99,29.12l0,1.61a4.83,4.83,0,0,0-.6-.05h0a1.23,1.23,0,0,0-1.25.64h0v4.1H95.42V29.16H97l0,.75a1.56,1.56,0,0,1,1.4-.87h0a1.77,1.77,0,0,1,.52.08Zm.55,3.19v-.08a3.71,3.71,0,0,1,.36-1.66,2.63,2.63,0,0,1,1-1.13,3.08,3.08,0,0,1,1.57-.4h0a2.86,2.86,0,0,1,2.07.78,3.11,3.11,0,0,1,.89,2.1h0v.43a3.29,3.29,0,0,1-.8,2.32,3.12,3.12,0,0,1-4.32,0,3.33,3.33,0,0,1-.81-2.36Zm1.67,0h0a2.31,2.31,0,0,0,.34,1.37,1.11,1.11,0,0,0,1,.47h0a1.11,1.11,0,0,0,1-.47,2.52,2.52,0,0,0,.34-1.49h0a2.28,2.28,0,0,0-.34-1.35,1.12,1.12,0,0,0-1-.48h0a1.09,1.09,0,0,0-1,.48A2.51,2.51,0,0,0,101.18,32.35ZM111,29.16l1.14,4,.82-4h1.62L113,35.42h-1.4l-1.19-3.94-1.19,3.94h-1.39l-1.6-6.26h1.62l.81,4,1.15-4Zm5-1.54h1.68v1.54h1.07v1.23h-1.07v3.12a.75.75,0,0,0,.13.5.67.67,0,0,0,.51.15h0a2.43,2.43,0,0,0,.49,0h0v1.27a3.43,3.43,0,0,1-1,.15h0a1.61,1.61,0,0,1-1.8-1.78h0V30.39h-.91V29.16H116Zm5.55-1.09v3.31a2.09,2.09,0,0,1,1.67-.8h0q2,0,2.07,2.37h0v4h-1.67v-4a1.19,1.19,0,0,0-.23-.8,1,1,0,0,0-.78-.26h0a1.13,1.13,0,0,0-1.06.57h0v4.45h-1.67V26.53Zm8.2,6.62h0a2,2,0,0,1,.32-1.08,4.73,4.73,0,0,1,1.2-1.11h0a6.46,6.46,0,0,1-.59-.94,2.18,2.18,0,0,1-.21-.93h0a2.18,2.18,0,0,1,.62-1.6,2.3,2.3,0,0,1,1.68-.61h0a2.17,2.17,0,0,1,1.55.56,1.83,1.83,0,0,1,.6,1.4h0a2.22,2.22,0,0,1-1,1.78h0l-.65.47,1.46,1.68a3.16,3.16,0,0,0,.34-1.48h1.42a4.4,4.4,0,0,1-.75,2.67h0L137,35.42h-1.9l-.44-.5a3.79,3.79,0,0,1-2.14.62h0a2.92,2.92,0,0,1-2-.66A2.18,2.18,0,0,1,129.74,33.15Zm2.83,1h0a2.13,2.13,0,0,0,1.14-.33h0l-1.66-1.92-.12.09a1.32,1.32,0,0,0-.52,1h0a1.08,1.08,0,0,0,.33.82A1.12,1.12,0,0,0,132.57,34.19ZM132,29.07h0a2,2,0,0,0,.51,1.1h0l.44-.3a1.6,1.6,0,0,0,.48-.43,1,1,0,0,0,.13-.5.66.66,0,0,0-.22-.5.74.74,0,0,0-.55-.21h0a.71.71,0,0,0-.57.23A.83.83,0,0,0,132,29.07ZM143.13,27v8.43H141.4V27Zm1.7,2.17h1.58l.05.72a2.19,2.19,0,0,1,1.8-.84h0a1.84,1.84,0,0,1,1.49.59,2.71,2.71,0,0,1,.49,1.75h0v4h-1.67v-4a1.11,1.11,0,0,0-.23-.77,1,1,0,0,0-.77-.24h0a1.14,1.14,0,0,0-1.06.61h0v4.41h-1.68Zm6.88,0h1.58l.05.72a2.19,2.19,0,0,1,1.8-.84h0a1.81,1.81,0,0,1,1.48.59,2.7,2.7,0,0,1,.5,1.75h0v4h-1.67v-4a1.06,1.06,0,0,0-.24-.77,1,1,0,0,0-.77-.24h0a1.12,1.12,0,0,0-1.05.61h0v4.41h-1.68Zm6.66,3.15v-.08a3.85,3.85,0,0,1,.35-1.66,2.65,2.65,0,0,1,1-1.13,3.07,3.07,0,0,1,1.56-.4h0a2.83,2.83,0,0,1,2.07.78,3.07,3.07,0,0,1,.9,2.1h0v.43a3.3,3.3,0,0,1-.81,2.32,2.77,2.77,0,0,1-2.15.87,2.82,2.82,0,0,1-2.17-.87,3.33,3.33,0,0,1-.8-2.36Zm1.67,0h0a2.39,2.39,0,0,0,.33,1.37,1.14,1.14,0,0,0,1,.47h0a1.1,1.1,0,0,0,.94-.47,2.51,2.51,0,0,0,.35-1.49h0a2.28,2.28,0,0,0-.35-1.35,1.09,1.09,0,0,0-1-.48h0a1.11,1.11,0,0,0-.95.48A2.6,2.6,0,0,0,160,32.35Zm6.62-3.19,1.16,4.22L169,29.16h1.75l-2.11,6.26H167l-2.11-6.26Zm10.28,6.26h-1.69a2.32,2.32,0,0,1-.17-.56h0a2,2,0,0,1-1.58.68h0A2.19,2.19,0,0,1,172,35a1.68,1.68,0,0,1-.61-1.34h0a1.79,1.79,0,0,1,.74-1.53,3.65,3.65,0,0,1,2.14-.53H175v-.36a1.05,1.05,0,0,0-.23-.7.88.88,0,0,0-.7-.26h0a1,1,0,0,0-.66.2.7.7,0,0,0-.24.56h-1.68a1.66,1.66,0,0,1,.34-1,2.13,2.13,0,0,1,1-.72,3.38,3.38,0,0,1,1.37-.27h0a2.81,2.81,0,0,1,1.85.58,2.06,2.06,0,0,1,.67,1.64h0V34a3.06,3.06,0,0,0,.25,1.34h0Zm-3.07-1.16h0a1.43,1.43,0,0,0,.68-.17,1.12,1.12,0,0,0,.47-.44h0V32.57h-.63c-.84,0-1.28.29-1.34.87h0v.1a.67.67,0,0,0,.22.52A.85.85,0,0,0,173.87,34.26Zm4.68-6.64h1.67v1.54h1.07v1.23h-1.07v3.12a.75.75,0,0,0,.13.5.67.67,0,0,0,.51.15h0a2.37,2.37,0,0,0,.49,0h0v1.27a3.38,3.38,0,0,1-1,.15h0a1.6,1.6,0,0,1-1.79-1.78h0V30.39h-.92V29.16h.92Zm5.68,1.54v6.26h-1.68V29.16Zm-1.78-1.62h0a.81.81,0,0,1,.25-.62,1,1,0,0,1,.69-.24h0a1,1,0,0,1,.68.24.81.81,0,0,1,.25.62h0a.81.81,0,0,1-.25.62.94.94,0,0,1-.68.25.91.91,0,0,1-.68-.25A.79.79,0,0,1,182.45,27.54Zm3.13,4.77v-.08a3.71,3.71,0,0,1,.36-1.66,2.63,2.63,0,0,1,1-1.13,3.08,3.08,0,0,1,1.57-.4h0a2.86,2.86,0,0,1,2.07.78,3.11,3.11,0,0,1,.89,2.1h0l0,.43a3.3,3.3,0,0,1-.81,2.32,3.12,3.12,0,0,1-4.32,0,3.33,3.33,0,0,1-.81-2.36Zm1.67,0h0a2.39,2.39,0,0,0,.34,1.37,1.11,1.11,0,0,0,1,.47h0a1.11,1.11,0,0,0,.95-.47,2.52,2.52,0,0,0,.34-1.49h0a2.28,2.28,0,0,0-.34-1.35,1.12,1.12,0,0,0-1-.48h0a1.09,1.09,0,0,0-.95.48A2.59,2.59,0,0,0,187.25,32.35Zm5.5-3.19h1.57l.06.72a2.17,2.17,0,0,1,1.8-.84h0a1.83,1.83,0,0,1,1.48.59,2.76,2.76,0,0,1,.5,1.75h0v4h-1.68v-4a1.06,1.06,0,0,0-.23-.77,1,1,0,0,0-.77-.24h0a1.15,1.15,0,0,0-1.06.61h0v4.41h-1.67Zm13.47,3.29H204.7v3H203V27h3.29a3.83,3.83,0,0,1,1.67.35,2.55,2.55,0,0,1,1.11,1,2.71,2.71,0,0,1,.39,1.45h0a2.45,2.45,0,0,1-.85,2,3.58,3.58,0,0,1-2.35.71ZM204.7,28.4V31h1.55a1.5,1.5,0,0,0,1.05-.32,1.16,1.16,0,0,0,.36-.92h0a1.42,1.42,0,0,0-.36-1,1.4,1.4,0,0,0-1-.39H204.7Zm11.29,7H214.3a2,2,0,0,1-.17-.56h0a2,2,0,0,1-1.58.68h0A2.19,2.19,0,0,1,211,35a1.68,1.68,0,0,1-.61-1.34h0a1.79,1.79,0,0,1,.74-1.53,3.66,3.66,0,0,1,2.13-.53h.77v-.36a1,1,0,0,0-.22-.7.88.88,0,0,0-.7-.26h0a1,1,0,0,0-.66.2.7.7,0,0,0-.24.56h-1.68a1.66,1.66,0,0,1,.34-1,2.13,2.13,0,0,1,.95-.72,3.4,3.4,0,0,1,1.38-.27h0a2.75,2.75,0,0,1,1.83.58,2,2,0,0,1,.68,1.64h0V34a3.06,3.06,0,0,0,.25,1.34h0Zm-3.07-1.16h0a1.46,1.46,0,0,0,.68-.17,1.09,1.09,0,0,0,.46-.44h0V32.57h-.62c-.84,0-1.28.29-1.34.87h0v.1a.67.67,0,0,0,.22.52A.85.85,0,0,0,212.92,34.26Zm7.89-5.14,0,1.61a4.54,4.54,0,0,0-.6-.05h0a1.22,1.22,0,0,0-1.24.64h0v4.1h-1.67V29.16h1.58l0,.75a1.55,1.55,0,0,1,1.4-.87h0a1.77,1.77,0,0,1,.52.08Zm1.64-1.5h1.67v1.54h1.07v1.23h-1.07v3.12a.75.75,0,0,0,.13.5.67.67,0,0,0,.51.15h0a2.37,2.37,0,0,0,.49,0h0v1.27a3.38,3.38,0,0,1-1,.15h0a1.6,1.6,0,0,1-1.79-1.78h0V30.39h-.92V29.16h.92Zm3.87,1.54h1.58l0,.72a2.19,2.19,0,0,1,1.8-.84h0a1.84,1.84,0,0,1,1.49.59,2.71,2.71,0,0,1,.49,1.75h0v4h-1.67v-4a1.11,1.11,0,0,0-.23-.77,1,1,0,0,0-.77-.24h0A1.14,1.14,0,0,0,228,31h0v4.41h-1.68Zm9.8,6.38h0a3,3,0,0,1-2.24-.85,3,3,0,0,1-.87-2.25h0v-.16a3.72,3.72,0,0,1,.37-1.69,2.62,2.62,0,0,1,1-1.15,3,3,0,0,1,1.53-.4h0a2.6,2.6,0,0,1,2,.81,3.31,3.31,0,0,1,.74,2.3h0v.68h-4a1.57,1.57,0,0,0,.49,1,1.45,1.45,0,0,0,1,.37h0a1.79,1.79,0,0,0,1.51-.7h0l.82.92a2.59,2.59,0,0,1-1,.83A3.36,3.36,0,0,1,236.12,35.54Zm-.19-5.14h0a1.07,1.07,0,0,0-.81.33,1.76,1.76,0,0,0-.39,1h2.33v-.13a1.22,1.22,0,0,0-.31-.86A1.07,1.07,0,0,0,235.93,30.4Zm7.5-1.28,0,1.61a4.82,4.82,0,0,0-.61-.05h0a1.22,1.22,0,0,0-1.24.64h0v4.1h-1.67V29.16h1.58l0,.75a1.55,1.55,0,0,1,1.4-.87h0a1.77,1.77,0,0,1,.52.08Z" fill="#fff"/><path id="id-D6z1nYkh32" d="M57.72,8.42h6.76V10.3h-2.1v9.56H59.8V10.3H57.72ZM68.31,15v3H72v1.89H65.74V8.42h6.1V10.3H68.31v2.79h3V15ZM76,8.42V18H79.3v1.89H73.46V8.42Zm10.63,0V10.3H83.06v3.15h3v1.78h-3v4.63H80.49V8.42Zm3.6,0h2.41c1.51,0,2.27.65,2.27,2h0v7.47c0,1.33-.76,2-2.27,2H90.24c-1.52,0-2.28-.67-2.28-2h0V10.39C88,9.07,88.72,8.42,90.24,8.42Zm2.11,9.1h0V10.75c0-.3-.16-.45-.47-.45H91q-.48,0-.48.45h0v6.77q0,.45.48.45h.87C92.19,18,92.35,17.82,92.35,17.52Zm7.48-1.94h-.45v4.28H96.82V8.42h4.72c1.51,0,2.26.65,2.26,2h0V13.6a1.73,1.73,0,0,1-1.43,1.9h0l2,4.36h-2.75Zm.93-5.28H99.38v3.46h1.38a.5.5,0,0,0,.36-.1.41.41,0,0,0,.11-.33h0V10.75c0-.3-.15-.45-.47-.45Zm5,9.56V8.42h4.76c1.53,0,2.29.65,2.29,2h0v7.47c0,1.33-.76,2-2.29,2h-4.76Zm4.48-2.22h0v-7c0-.3-.17-.45-.49-.45h-1.42v7.91h1.42C110.06,18.09,110.23,17.94,110.23,17.64Zm8.06,2.22V8.42H123c1.51,0,2.27.65,2.27,2h0v3.48c0,1.33-.76,2-2.27,2h-2.16v4Zm4.4-6.34h0V10.75a.4.4,0,0,0-.46-.45h-1.39V14h1.39A.4.4,0,0,0,122.69,13.52Zm7.16,2.06h-.45v4.28h-2.55V8.42h4.71c1.51,0,2.27.65,2.27,2h0V13.6a1.73,1.73,0,0,1-1.44,1.9h0l2,4.36h-2.75Zm.94-5.28H129.4v3.46h1.39a.5.5,0,0,0,.36-.1.45.45,0,0,0,.11-.33h0V10.75c0-.3-.16-.45-.47-.45Zm7.07-1.88h2.41c1.51,0,2.27.65,2.27,2h0v7.47c0,1.33-.76,2-2.27,2h-2.41c-1.53,0-2.29-.67-2.29-2h0V10.39C135.57,9.07,136.33,8.42,137.86,8.42Zm2.1,9.1h0V10.75c0-.3-.15-.45-.47-.45h-.86q-.48,0-.48.45h0v6.77q0,.45.48.45h.86C139.81,18,140,17.82,140,17.52Zm3.89.34V15.58h2.57v1.94c0,.3.16.45.49.45h.3c.33,0,.49-.15.49-.45h0V8.42h2.57v9.44c0,1.33-.76,2-2.27,2h-1.89c-1.51,0-2.26-.67-2.26-2ZM154.75,15v3h3.67v1.89h-6.24V8.42h6.1V10.3h-3.53v2.79h3V15Zm11.91-4.59v2h-2.59v-1.8c0-.3-.16-.45-.47-.45h-.74q-.48,0-.48.45h0v7a.46.46,0,0,0,.1.35.56.56,0,0,0,.38.1h.74A.5.5,0,0,0,164,18a.46.46,0,0,0,.11-.35h0V15.9h2.59v2c0,1.32-.76,2-2.29,2h-2.3c-1.51,0-2.27-.66-2.27-2h0V10.39c0-1.32.76-2,2.27-2h2.3c1.53,0,2.29.65,2.29,2Zm1-2h6.76V10.3h-2.1v9.56h-2.57V10.3h-2.09Zm12,9.1h0V15.45a.42.42,0,0,0-.11-.33.54.54,0,0,0-.38-.1h-1.58c-1.42,0-2.12-.67-2.12-2h0V10.39c0-1.32.75-2,2.26-2h2.2c1.51,0,2.26.65,2.26,2h0v1.5h-2.57V10.75q0-.45-.48-.45h-.61c-.33,0-.49.15-.49.45h0v2a.44.44,0,0,0,.11.33.54.54,0,0,0,.38.1H180a2.32,2.32,0,0,1,1.66.5,2,2,0,0,1,.5,1.46h0v2.7c0,1.33-.75,2-2.27,2h-2.17c-1.53,0-2.29-.67-2.29-2h0V16.38h2.58v1.14q0,.45.48.45h.61C179.47,18,179.63,17.82,179.63,17.52Zm7.91,2.34V8.42h4.72c1.51,0,2.26.65,2.26,2h0v3.48c0,1.33-.75,2-2.26,2H190.1v4ZM192,13.52h0V10.75c0-.3-.15-.45-.47-.45H190.1V14h1.38C191.8,14,192,13.82,192,13.52Zm7.16,2.06h-.45v4.28h-2.55V8.42h4.71c1.51,0,2.27.65,2.27,2h0V13.6a1.73,1.73,0,0,1-1.44,1.9h0l2,4.36h-2.75Zm.94-5.28h-1.39v3.46h1.39a.53.53,0,0,0,.36-.1.45.45,0,0,0,.1-.33h0V10.75a.4.4,0,0,0-.46-.45ZM205,19.86V8.42h2.55V19.86Zm8-2.95,1.44-8.49h2.67l-2.52,11.44h-3.15L208.84,8.42h2.68Zm13.21,2.95h-2.59l-.4-2.07h-2.61l-.39,2.07h-2.54l2.59-11.44h3.28Zm-4.3-8.78-.94,4.84h1.87Zm4.82-2.66h6.76V10.3h-2.1v9.56h-2.57V10.3h-2.09ZM237.27,15v3h3.67v1.89h-6.25V8.42h6.1V10.3h-3.52v2.79h3V15Zm11.27-6.56V18h3.3v1.89H246V8.42Zm4.54,11.44V8.42h2.55V19.86Zm6.85-7.67v7.67h-2.26V8.42h2.8l1.89,6.47,1.89-6.47h2.81V19.86h-2.27V12.18l-1.48,5.19h-1.9Zm9.16,7.67V8.42h2.55V19.86ZM273,8.42h6.76V10.3h-2.11v9.56H275V10.3H273ZM283.55,15v3h3.67v1.89H281V8.42h6.1V10.3h-3.53v2.79h3V15Zm5.27,4.88V8.42h4.77c1.52,0,2.28.65,2.28,2h0v7.47c0,1.33-.76,2-2.28,2h-4.77Zm4.48-2.22h0v-7q0-.45-.48-.45h-1.43v7.91h1.43Q293.3,18.09,293.3,17.64Z" fill="#fff"/></svg>