<?xml version="1.0" encoding="UTF-8"?>
<svg id="Layer_1" data-name="Layer 1" xmlns="http://www.w3.org/2000/svg" viewBox="0 0 1018.19 177.85">
  <defs>
    <style>
      .cls-1 {
        fill: #fff;
      }
    </style>
  </defs>
  <path class="cls-1"
    d="M1014.2,177.85H3.99c-2.2,0-3.99-1.79-3.99-4V4C0,1.79,1.79,0,3.99,0h1010.21c2.2,0,3.99,1.79,3.99,4v169.85c0,2.21-1.79,4-3.99,4ZM5.99,171.85h1006.22V6H5.99v165.85Z" />
  <g>
    <polygon class="cls-1"
      points="297.53 160.59 226.5 160.59 220.5 160.59 220.5 166.59 303.53 166.59 303.53 160.59 297.53 160.59" />
    <polygon class="cls-1"
      points="226.5 16.72 297.53 16.72 303.53 16.72 303.53 10.72 220.5 10.72 220.5 16.72 226.5 16.72" />
  </g>
  <path class="cls-1"
    d="M213.48,22.87v-12.16H10.53v155.88h202.95v-11.89h39.12V22.87h-39.12ZM207.48,160.59H16.53V16.71h190.95v6.16H25.04v131.83h182.44v5.89ZM73.15,111.28c3.32,3.61,7.95,5.41,13.87,5.41s10.66-1.8,13.99-5.41c3.32-3.61,4.99-9.43,4.99-17.46v-47.08h19.34v47.56c0,12.57-3.41,22.22-10.22,28.95-6.81,6.73-16.22,10.1-28.22,10.1s-21.53-3.36-28.34-10.1c-6.81-6.73-10.22-16.38-10.22-28.95v-47.56h19.83v47.08c0,8.03,1.66,13.85,4.99,17.46ZM223.02,131.9h-16.3l-42.33-51.66v51.66h-19.46V46.75h16.3l42.33,51.66v-51.66h19.46v85.15Z" />
  <g>
    <path class="cls-1"
      d="M434.58,66.64c-3.08-2.55-7.62-3.83-13.62-3.83h-15.94v29.56h15.94c6,0,10.54-1.3,13.62-3.89,3.08-2.59,4.62-6.24,4.62-10.95s-1.54-8.33-4.62-10.89Z" />
    <polygon class="cls-1" points="592.53 66.23 579.03 98.69 606.03 98.69 592.53 66.23" />
    <path class="cls-1"
      d="M310.34,10.71v12.16h-36.3v131.83h36.3v11.89h695.52l.52-155.88H310.34ZM292.13,131.9V46.75h41.6c10.71,0,18.75,2.03,24.15,6.08,5.39,4.06,8.09,9.41,8.09,16.06,0,4.46-1.1,8.33-3.28,11.62-1.96,2.94-4.58,5.27-7.87,7,.75.26,1.49.53,2.21.84,4.09,1.78,7.32,4.38,9.67,7.79,2.35,3.41,3.53,7.58,3.53,12.53,0,7.3-2.88,13-8.64,17.09-5.76,4.1-14.23,6.14-25.42,6.14h-44.04ZM998.27,160.59H316.34v-5.89h674.76V22.87H316.34v-6.16h681.93v143.88ZM460.61,131.9h-21.17l-16.53-23.86c-.29,0-.57.02-.86.02h-17.03v23.84h-19.83V46.75h36.37c11.84,0,21.04,2.74,27.61,8.21,6.57,5.47,9.85,13,9.85,22.57,0,6.41-1.5,11.9-4.5,16.48-3,4.58-7.26,8.07-12.77,10.46-.04.02-.08.03-.12.05l18.98,27.38ZM533.72,80.93v15.45h-39.54v19.71h46.35v15.81h-65.93V46.75h64.35v15.81h-44.77v18.37h39.54ZM545.03,131.9l37.83-85.15h19.46l38.2,85.15h-20.68l-7.59-18.25h-39.44l-7.59,18.25h-20.19ZM706.7,46.75h21.9l-35.19,38,37.39,47.15h-23.11l-27.38-33.42-11.31,11.8v21.62h-19.58V46.75h19.58v39.74l37.71-39.74ZM798.54,80.93v15.45h-39.54v19.71h46.35v15.81h-65.93V46.75h64.35v15.81h-44.77v18.37h39.54ZM896.47,131.9h-21.17l-16.53-23.86c-.29,0-.57.02-.86.02h-17.03v23.84h-19.83V46.75h36.37c11.84,0,21.04,2.74,27.61,8.21,6.57,5.47,9.85,13,9.85,22.57,0,6.41-1.5,11.9-4.5,16.48-3,4.58-7.26,8.07-12.77,10.46-.04.02-.08.03-.12.05l18.98,27.38ZM952.3,103.01c-1.78-1.34-4.16-2.43-7.12-3.28-2.96-.85-6.18-1.66-9.67-2.43-3.49-.77-7-1.7-10.52-2.8-3.53-1.1-6.77-2.55-9.73-4.38-2.96-1.82-5.31-4.22-7.06-7.18-1.75-2.96-2.62-6.67-2.62-11.13,0-4.87,1.3-9.31,3.89-13.32,2.59-4.01,6.55-7.22,11.86-9.61,5.31-2.39,11.98-3.59,20.01-3.59,5.35,0,10.64.65,15.88,1.95,5.23,1.3,9.79,3.16,13.69,5.6l-6.2,14.84c-3.81-2.19-7.75-3.83-11.8-4.93-4.06-1.09-7.95-1.64-11.68-1.64s-7.02.43-9.37,1.28c-2.35.85-4.08,2.01-5.17,3.47s-1.64,3.08-1.64,4.87c0,2.27.89,4.1,2.68,5.47,1.78,1.38,4.14,2.45,7.06,3.22,2.92.77,6.16,1.54,9.73,2.31,3.57.77,7.1,1.72,10.58,2.86,3.49,1.14,6.69,2.58,9.61,4.32,2.92,1.75,5.29,4.1,7.12,7.06,1.83,2.96,2.74,6.63,2.74,11.01,0,4.79-1.32,9.17-3.95,13.14-2.64,3.97-6.63,7.18-11.98,9.61-5.35,2.43-12.04,3.65-20.07,3.65-6.81,0-13.36-.91-19.65-2.74-6.29-1.82-11.33-4.2-15.15-7.12l6.69-14.84c3.57,2.6,7.87,4.72,12.89,6.39,5.03,1.66,10.1,2.49,15.21,2.49,3.89,0,7.04-.41,9.43-1.22,2.39-.81,4.16-1.88,5.29-3.22,1.13-1.34,1.7-2.9,1.7-4.68,0-2.27-.89-4.08-2.68-5.41Z" />
    <path class="cls-1"
      d="M350.4,106.6c0-3.65-1.34-6.33-4.01-8.03-2.68-1.7-6.53-2.55-11.56-2.55h-23.11v21.04h23.11c5.03,0,8.88-.85,11.56-2.55s4.01-4.34,4.01-7.91Z" />
    <path class="cls-1"
      d="M342.31,79.17c2.55-1.66,3.83-4.2,3.83-7.6s-1.28-5.92-3.83-7.54c-2.55-1.62-6.22-2.43-11.01-2.43h-19.59v20.07h19.59c4.78,0,8.45-.83,11.01-2.49Z" />
    <path class="cls-1"
      d="M870.44,66.64c-3.08-2.55-7.62-3.83-13.62-3.83h-15.94v29.56h15.94c6,0,10.54-1.3,13.62-3.89,3.08-2.59,4.62-6.24,4.62-10.95s-1.54-8.33-4.62-10.89Z" />
  </g>
</svg>